<?xml version="1.0" encoding="UTF-8"?>
<!DOCTYPE svg PUBLIC "-//W3C//DTD SVG 1.1//EN" "http://www.w3.org/Graphics/SVG/1.1/DTD/svg11.dtd">
<!-- Creator: CorelDRAW 2021 (64 Bit) -->
<svg xmlns="http://www.w3.org/2000/svg" xml:space="preserve" width="100mm" height="100mm" version="1.1" shape-rendering="geometricPrecision" text-rendering="geometricPrecision" image-rendering="optimizeQuality" fill-rule="evenodd" clip-rule="evenodd"
viewBox="0 0 10000 10000"
 xmlns:xlink="http://www.w3.org/1999/xlink"
 xmlns:xodm="http://www.corel.com/coreldraw/odm/2003">
 <g id="Camada_x0020_1">
  <metadata id="CorelCorpID_0Corel-Layer"/>
  <rect fill="none" x="-3.84" y="3.78" width="10000" height="10000"/>
  <g id="_1489304437024">
   <g>
    <path fill="#64365C" d="M3620.1 4117.18c14.83,-4.52 50.57,5.81 33.11,-34.13 -14.15,-32.36 -16.86,-13.78 -34.78,-9.21 -14.52,33.92 -20.59,-0.22 1.67,43.34z"/>
    <path fill="#64365C" d="M6302.11 4445.78c109.07,22.76 -13.28,-114.06 0,0z"/>
   </g>
   <g>
    <path fill="#935C25" d="M4540.75 2289.83c61.25,-67.79 -5.28,-29.35 112.82,-165.77 15.17,-17.54 8.76,-9.75 22.73,-29.73 -86.55,21.54 -133.04,91.47 -135.55,195.5z"/>
    <path fill="#935C25" d="M4568.64 2753.32c-95.97,-87.67 -61.14,-25.94 -139.07,-145.32l-28.66 -40.12c11.06,110.09 64.88,167.78 167.73,185.44z"/>
    <path fill="#935C25" d="M4370.98 1886.49c81.28,-33.59 56.79,-41.78 164.85,-57.06 47.69,-6.74 34.68,-0.71 69.17,-19.4 -110.62,-24.87 -187.98,2.47 -234.02,76.46z"/>
    <path fill="#935C25" d="M5033.28 2162.39l39.66 -38.65c19.35,-22.44 16.23,-21.55 42.12,-42.18l78.92 -47.21c18.33,-12.08 17.93,-13.72 28.77,-23.75 -107.16,12.2 -167.62,57.43 -189.47,151.79z"/>
    <path fill="#935C25" d="M5883.24 2961.05c109.55,32.23 175.03,-28.07 218.96,-92.74 -76.74,48.84 -117.77,63.9 -218.96,92.74z"/>
    <path fill="#935C25" d="M4184.04 2621.72c-44.22,-68.33 -103.7,-115.18 -216.52,-101.73 51.97,32.84 74.6,14.11 159.02,67.65 32.16,20.39 21.85,17.78 57.5,34.08z"/>
   </g>
   <g>
    <path fill="#9A6428" d="M4304.04 2163.54c14.77,80.45 -42.82,141.12 -104.68,178.54 9.1,10.14 -18.28,45.49 58.22,5.37 71.27,-37.39 79.44,-140.29 77.19,-211.14 -2.56,3.78 -8.8,3.21 -10.26,9.07 -12.79,51.22 5.95,-8.17 -20.47,18.16z"/>
    <path fill="#9A6428" d="M3609.45 1811.19c49.86,25.47 95.55,25.3 154.35,-1.02 71.39,-31.96 69.65,-28.68 95.53,-99.03 -105.75,55.12 -79.09,76.36 -249.88,100.05z"/>
    <path fill="#9A6428" d="M3580.12 2719.2c-20.11,-129.59 -25.4,-132.97 -12.43,-270.28 -65.75,74.85 -58.1,205.08 12.43,270.28z"/>
    <path fill="#9A6428" d="M4889.83 1785.58c2.49,-27.52 -18.95,-13.55 10.77,-21.79 0,-0.01 -0.27,-58.82 -53.72,7.43 -9.67,11.98 -27.39,45.15 -33.92,64.82 -18.72,56.39 -19.35,106.8 9.95,151.76 4.01,-80.47 3.8,-159.17 66.92,-202.22z"/>
    <path fill="#9A6428" d="M3774.13 2238.99c9.83,26.01 -16.53,-8.1 11.62,18.09 12.61,11.73 13.92,8.02 31.34,23.7 36.42,32.76 26.56,20.95 32.27,64.04l31.67 13.87c-5.19,-101.67 -90.1,-165.56 -198.26,-178.86 12.46,12.15 9.2,12.19 27.47,25.06l63.89 34.1z"/>
    <path fill="#9A6428" d="M5154.51 3030.63c13.06,-18.83 66.66,-56.96 101.63,-78.75 22.71,-14.14 40.31,-22.05 64.9,-32.41 7.81,-3.29 24.09,-8.93 30.31,-11.91 4.11,-1.96 16.95,-8.47 20.48,-10.5l19.59 -13.96c-124.8,-2.91 -229.03,77.63 -236.91,147.53z"/>
    <path fill="#9A6428" d="M4093.29 2128.1c-36.77,-23.53 -68.31,-30.39 -100.78,-49.41 -58.88,-34.51 -20.16,-35.81 -98.12,-67.95 35.59,112.69 153.45,136.83 198.9,117.36z"/>
    <path fill="#9A6428" d="M5931.36 2537.18c28.16,18 77.06,34.52 113.1,52.93 50.86,26 55.56,46.22 98.97,69.97 -31.86,-99.21 -102.39,-129.86 -212.07,-122.9z"/>
    <path fill="#9A6428" d="M4703.13 2953.77c43.11,-23.12 53.78,-56.81 102.12,-88.83 24.82,-16.44 80.66,-41.54 113.3,-55.78 -119.57,-13.73 -186.6,58.94 -215.42,144.61z"/>
    <path fill="#9A6428" d="M5253.89 2566.21c57.26,-49.3 37.22,-61.29 76.14,-101.3l75.03 -76.82c-79.4,1.58 -143.21,88.72 -151.17,178.12z"/>
   </g>
   <g>
    <path fill="#B99966" d="M6233.31 2583.2l60.36 5.42c-4.18,-85.43 -16.73,-67.97 -44.13,-138.31l30.53 -30.14c64.44,-57.12 117.39,-114.76 2.24,-198.84 24.53,165.04 -38.31,86.84 -100.49,172.11 -51.35,70.4 18.84,138.75 51.49,189.76z"/>
    <path fill="#B99966" d="M6302.34 2119.97c117.42,22.31 124.48,-24.9 159.96,-104.75 41.33,-92.97 110.23,-81.55 136.78,-132.44 -236.74,-32.71 -207.09,118.73 -236.3,173 -21.37,39.74 -45.22,35.1 -60.44,64.19z"/>
    <path fill="#B99966" d="M5604.93 1919.33c22.21,-33.74 28.07,-33.82 48.5,-75.79 10.88,-167.22 -5.38,-100.09 97.22,-177.75 -74.48,-42.15 -159.92,-0.37 -174.87,76.39 -27.5,141.28 21.35,90.2 -75.2,193.7l104.35 -16.55z"/>
    <path fill="#B99966" d="M5760.03 1469.66c36.17,-44.77 149.43,-121.33 59.5,-225.88l-25.02 60.37c-22.56,46.82 -78.18,89.82 -115.38,122.28 2.11,106.13 40.57,133.37 132.05,161.09 -27.71,-51.88 -39.39,-57.69 -51.15,-117.86z"/>
    <path fill="#B99966" d="M6187.15 2188.87c-3.21,-2.65 -8.53,-9.93 -10.51,-6.72 -1.95,3.18 -7.93,-4.98 -10.66,-6.18l-21.9 -9.29c-156.67,-59.53 -93.85,-159.59 -281.01,-149.36 159.9,168.57 161.62,254.39 324.08,171.55z"/>
    <path fill="#B99966" d="M5847.48 1641.51c34.05,-29.4 42.68,-43.06 88.46,-55.54 -0.11,-0.11 0.61,-64.61 -81.99,3.41 -69.7,57.41 -25.58,42.25 -6.47,52.13z"/>
   </g>
   <g>
    <path fill="#DB9B42" d="M3609.45 1811.19c170.79,-23.69 144.13,-44.93 249.88,-100.05 -25.88,70.35 -24.14,67.07 -95.53,99.03 -58.8,26.32 -104.49,26.49 -154.35,1.02zm-58.59 -52.79l8.85 101.88 58.83 31.8c23.18,10.03 42.66,15.31 71.26,17.7 52.7,4.4 104.83,-4.22 144.02,-30.67 108.57,-73.25 61.18,-128.82 73.29,-238.68 -59.2,-34.4 -120.51,-84.73 -222.07,-35.95 -62.85,30.2 -109.05,80.82 -134.18,153.92z"/>
    <path fill="#DB9B42" d="M4154.61 2100.98c-15.7,50.65 -22.92,32.87 -49.18,98.22 -4.16,67.8 -13.12,122.46 11.64,161.97 39.95,4.78 -0.87,-24.99 49.39,16.19 29,-60.96 9.84,-17.48 32.9,-35.28 61.86,-37.42 119.45,-98.09 104.68,-178.54l-11.43 -103.65c-65.21,-16.72 -94.29,18.31 -138,41.09z"/>
    <path fill="#DB9B42" d="M5006.93 2592.7c39.04,-57.86 111.16,-64.91 110.39,-170.47 -16.7,23.8 6.75,-6.22 -61.69,5.91 -50.37,8.95 -207.39,-4.69 -284.1,90.72 120.58,95.38 185.88,64.49 235.4,73.84z"/>
    <path fill="#DB9B42" d="M4900.6 1763.79c-29.72,8.24 -8.28,-5.73 -10.77,21.79 -15.42,81.07 -48.41,84.6 -50.87,174.41 94.88,80.5 125.23,15.04 154.16,0.07l12.32 -4.02c18.74,-72.89 35.01,-196.53 -26.88,-234.27l-56 -17.14c-0.21,1.26 1.58,2.79 1.43,6.06 -2.43,54.11 -0.95,36.68 -23.39,53.1z"/>
    <path fill="#DB9B42" d="M3656.13 2319.12c9.3,34.02 1.45,28.01 38.11,57.44 42.85,34.4 18.47,19.53 53.98,24.99 67.95,-0.21 156.95,60.55 101.14,-56.73 -5.71,-43.09 4.15,-31.28 -32.27,-64.04 -17.42,-15.68 -18.73,-11.97 -31.34,-23.7 -28.15,-26.19 -1.79,7.92 -11.62,-18.09 -38.02,12.34 54.82,45.14 -69.91,1.26 -0.1,66.99 6.74,17.63 -9.92,18.63l-32.23 -3.62c-2.18,-4.85 -9.36,-2.05 -16.85,-0.34l10.91 64.2z"/>
   </g>
   <g>
    <path fill="#D69947" d="M4026.45 1635.22c-5.8,104.59 -27.13,195.49 35.07,262.5 68.42,35.58 142.87,-8.18 189.36,-63.51 58.08,-69.12 27.78,-150.09 34.97,-239.61 -41.12,-52.83 -29.99,-88.03 -75.3,-138.36 -120.43,-6.54 -132.89,95.67 -184.1,178.98z"/>
    <path fill="#D69947" d="M5548.8 2556.18c-169.19,114.81 15.82,318.34 23.27,332.89l41.44 12.97c111,49.81 167.68,-53.38 181.62,-138.11 17.78,-108.18 -21.38,-170.81 -97.04,-213.84l43.63 -7.1 -173.17 -9.85 -19.75 23.04z"/>
    <path fill="#D69947" d="M2961.74 2574.33c-22.52,77.97 -83.52,86.71 24.62,184.66 95.4,32.54 129.9,62.57 238.71,10.97 68.6,-32.56 143.55,-65.09 167.76,-137.53 -28.06,-156 -312.87,-108.06 -431.09,-58.1z"/>
    <path fill="#D69947" d="M4012.43 2771.06c-34.9,45.83 -83.32,57.74 -39.41,137.67 14.45,26.31 78.52,86.19 113.96,99 121.43,43.95 272.14,-51.37 334.79,-85.33 12.21,-183.33 -257.55,-187.6 -409.34,-151.34z"/>
    <path fill="#D69947" d="M3580.12 2719.2c-70.53,-65.2 -78.18,-195.43 -12.43,-270.28 -12.97,137.31 -7.68,140.69 12.43,270.28zm120.47 -184.9c-10.3,-105.21 -38.65,-177.2 -150.47,-167.74 -61.39,61.42 -135.11,95.4 -111.7,235.67 16.16,96.81 73.02,192.15 139.65,229.22 102.65,-27.14 144.78,-175.92 122.52,-297.15z"/>
    <path fill="#D69947" d="M5154.51 3030.63c7.88,-69.9 112.11,-150.44 236.91,-147.53l-19.59 13.96c-3.53,2.03 -16.37,8.54 -20.48,10.5 -6.22,2.98 -22.5,8.62 -30.31,11.91 -24.59,10.36 -42.19,18.27 -64.9,32.41 -34.97,21.79 -88.57,59.92 -101.63,78.75zm-80.08 -20.01c-28.71,12.47 -18.03,48.91 -10.68,83.9 76.37,37.51 171.78,25.94 254.98,-10.34 99.72,-43.49 103.51,-77.32 166.37,-143.62l-1.59 -75.01c-196.94,-147.03 -352.98,-6.4 -409.08,145.07z"/>
    <path fill="#D69947" d="M3612.68 2300.91l43.45 18.21 -10.91 -64.2c7.49,-1.71 14.67,-4.51 16.85,0.34l32.23 3.62c16.66,-1 9.82,48.36 9.92,-18.63 124.73,43.88 31.89,11.08 69.91,-1.26l-63.89 -34.1c-18.27,-12.87 -15.01,-12.91 -27.47,-25.06 108.16,13.3 193.07,77.19 198.26,178.86l-31.67 -13.87c55.81,117.28 -33.19,56.52 -101.14,56.73 36.49,50.87 92.58,62.96 165.87,46.41 70.38,-74.77 46.58,-194.28 -29.06,-262.62 -68.73,-62.12 -183.66,-99.79 -292.88,-88.27 -57.23,96.17 10,121.79 20.53,203.84z"/>
    <path fill="#D69947" d="M4842.16 1683.27c-55.86,36.73 -76,53.3 -111.52,106.86 -42.27,100.37 -15.73,198.91 53.03,239.32 103.41,60.79 176.68,18.48 209.45,-69.39 -28.93,14.97 -59.28,80.43 -154.16,-0.07 2.46,-89.81 35.45,-93.34 50.87,-174.41 -63.12,43.05 -62.91,121.75 -66.92,202.22 -29.3,-44.96 -28.67,-95.37 -9.95,-151.76 6.53,-19.67 24.25,-52.84 33.92,-64.82 53.45,-66.25 53.72,-7.44 53.72,-7.43 22.44,-16.42 20.96,1.01 23.39,-53.1 0.15,-3.27 -1.64,-4.8 -1.43,-6.06l56 17.14c-15.88,-26.69 -14.79,-43.9 -58.99,-52.06 -32.13,-5.94 -57.57,5.83 -77.41,13.56z"/>
    <path fill="#D69947" d="M4304.04 2163.54c26.42,-26.33 7.68,33.06 20.47,-18.16 1.46,-5.86 7.7,-5.29 10.26,-9.07 2.25,70.85 -5.92,173.75 -77.19,211.14 -76.5,40.12 -49.12,4.77 -58.22,-5.37 -23.06,17.8 -3.9,-25.68 -32.9,35.28 -50.26,-41.18 -9.44,-11.41 -49.39,-16.19 35.28,76.18 71.93,85.39 165.03,53.16 70.8,-22.03 110.41,-80.54 139.08,-146.21 3.96,-117.81 -34.92,-180.43 -128.57,-208.23l11.43 103.65z"/>
   </g>
   <g>
    <path fill="#4A0B35" d="M4908.87 2728.99c36.04,31.69 57.83,9.5 64.65,87.37 4.15,47.51 -23.11,97.1 -36.33,138.22l52.3 -24.61c25.3,-7.96 -27.53,-37 37.64,-2.01 10.73,5.76 17.76,25.74 21.02,31.89l26.28 50.77c56.1,-151.47 212.14,-292.1 409.08,-145.07l1.59 75.01c31.76,-36.63 25.85,47.87 26.23,-47l60.74 -4.49c-7.45,-14.55 -192.46,-218.08 -23.27,-332.89 -3.84,-2.35 -9.02,-4.01 -12.47,-5.19 -3.43,-1.17 -8.27,-3.56 -12.49,-4.86 -4.18,-1.3 -7.99,-2.88 -12.62,-4.1l-71.84 -7.73c-23.73,5.08 -55.85,56.66 -109.53,85.91 -178.29,97.12 -129.95,-125.52 -130.69,-151.49 -27.03,-26.66 -23.53,17.99 -29,114.72 -156.58,65.95 -127.38,68.52 -218.47,108.45 -56.04,24.56 -35.08,-6.83 -42.82,37.1z"/>
    <path fill="#4A0B35" d="M5613.51 2902.04c-5.06,5 -17.48,1.93 -17.64,12l-0.41 26.52c71.37,24.65 61.86,3.66 115.22,14.45 45.46,9.21 22.15,2.68 48.35,27.96 63.59,61.41 -46.36,5.43 46.42,46.7 22.46,-9.68 1.61,1.9 6.41,-28.61 -45.42,-146.55 256.07,-279.92 343.42,-170.59 37.87,58.19 -31.21,119.78 -54.44,158.74 40.07,36.42 42.85,-33.05 82.93,35.56l17.42 -154.02c2.72,-95.39 3.05,-70.14 108.74,-70.14 0,-21.27 2.38,-59.99 0.14,-79.17l-28.16 -88.94c33.67,0 131.55,-13.97 140.02,13.87 -31.65,0 -69.12,2.33 -99.86,-2.4l-25.59 -5.55c-4.21,-1.11 -7.65,-2.29 -11.54,-3.52l-38.09 -16.55c180.52,-39.11 93.07,-8.69 301.16,-14.44 32.67,-54.81 5.45,-8.43 -5.49,-25.4l-248.85 10.11 -60.36 -5.42 -48.81 -11.06c14.65,49.57 38.41,82.95 27.51,146.34 -156.39,78.38 -300.99,-55.5 -343.29,-169.94l-127 -5.55 -43.63 7.1c75.66,43.03 114.82,105.66 97.04,213.84 -13.94,84.73 -70.62,187.92 -181.62,138.11z"/>
   </g>
   <g>
    <path fill="#DDAB5A" d="M4703.13 2953.77c28.82,-85.67 95.85,-158.34 215.42,-144.61 -32.64,14.24 -88.48,39.34 -113.3,55.78 -48.34,32.02 -59.01,65.71 -102.12,88.83zm-273.56 -345.77c77.93,119.38 43.1,57.65 139.07,145.32 -102.85,-17.66 -156.67,-75.35 -167.73,-185.44l28.66 40.12zm-39.04 -102.17c-58.42,28.24 -79.84,60.43 -64.94,149.61 9.44,56.58 40.23,98.52 70.35,126.01 143.99,131.32 235,21.37 285.35,0.58 -58.5,76.41 -72.41,103.21 -57.44,214.58l5.38 14.01c40.29,31.89 82.39,104.18 172.68,75.78 34.83,-10.96 60,-41.88 78.52,-62.57 25.44,-28.4 37.8,-55.4 56.76,-69.25 13.22,-41.12 40.48,-90.71 36.33,-138.22 -6.82,-77.87 -28.61,-55.68 -64.65,-87.37 -124.8,-15.33 -142.6,2.88 -232.7,54.75 37.53,-127.03 17.8,-167.85 -71.92,-225.06 -45.28,-28.87 -160.33,-83.67 -213.72,-52.85z"/>
    <path fill="#DDAB5A" d="M4370.98 1886.49c46.04,-73.99 123.4,-101.33 234.02,-76.46 -34.49,18.69 -21.48,12.66 -69.17,19.4 -108.06,15.28 -83.57,23.47 -164.85,57.06zm-1.91 -153.85c-21.18,28.39 2.82,-2.3 -23.15,26.46 -4.52,5.01 -14.66,14.97 -21.83,23.39 -36.36,42.81 -51.77,94.26 -37.17,154.86 61.07,253.49 440.48,-6.01 368.37,-157.2l-27.42 -43.69c-190.9,-54.28 -105.87,-20.67 -258.8,-3.82z"/>
    <path fill="#DDAB5A" d="M4540.75 2289.83c2.51,-104.03 49,-173.96 135.55,-195.5 -13.97,19.98 -7.56,12.19 -22.73,29.73 -118.1,136.42 -51.57,97.98 -112.82,165.77zm-94.42 20.32c28.4,38.34 29.74,58.54 81.15,87.92 46.41,26.52 101.33,31.02 146.77,0.13 68.44,-46.54 96.86,-197.28 74.37,-304.51 -70.14,-157.85 -328.8,-37.51 -302.29,216.46z"/>
    <path fill="#DDAB5A" d="M5033.28 2162.39c21.85,-94.36 82.31,-139.59 189.47,-151.79 -10.84,10.03 -10.44,11.67 -28.77,23.75l-78.92 47.21c-25.89,20.63 -22.77,19.74 -42.12,42.18l-39.66 38.65zm5.96 -186.41c-129.05,98.39 -147.24,280.77 37.74,325.75 120.03,15.65 164.25,-129.61 212.09,-219.03 7.19,-60.21 -11.08,-91.34 -21.66,-137.31 -89.6,-1.85 -152.42,-38.94 -228.17,30.59z"/>
    <path fill="#DDAB5A" d="M4184.04 2621.72c-35.65,-16.3 -25.34,-13.69 -57.5,-34.08 -84.42,-53.54 -107.05,-34.81 -159.02,-67.65 112.82,-13.45 172.3,33.4 216.52,101.73zm-283.65 -87.35c15.76,144.31 382.61,257.87 360.2,89.19 -22.76,-171.25 -376.94,-242.59 -360.2,-89.19z"/>
    <path fill="#DDAB5A" d="M5883.24 2961.05c101.19,-28.84 142.22,-43.9 218.96,-92.74 -43.93,64.67 -109.41,124.97 -218.96,92.74zm-71.38 40.01c88.22,98.82 275.3,-8.92 288.98,-11.85 23.23,-38.96 92.31,-100.55 54.44,-158.74 -87.35,-109.33 -388.84,24.04 -343.42,170.59z"/>
    <path fill="#DDAB5A" d="M5253.89 2566.21c7.96,-89.4 71.77,-176.54 151.17,-178.12l-75.03 76.82c-38.92,40.01 -18.88,52 -76.14,101.3zm-54.73 -97.49c0.74,25.97 -47.6,248.61 130.69,151.49 53.68,-29.25 85.8,-80.83 109.53,-85.91 20.52,-59.36 59.6,-125.54 32.04,-196.07 -50.44,-40.9 -110.71,-21.75 -160.54,9.63 -42.18,26.55 -69.08,69.13 -96.48,103.32l-15.24 17.54z"/>
    <path fill="#DDAB5A" d="M5931.36 2537.18c109.68,-6.96 180.21,23.69 212.07,122.9 -43.41,-23.75 -48.11,-43.97 -98.97,-69.97 -36.04,-18.41 -84.94,-34.93 -113.1,-52.93zm-62.64 11.36c42.3,114.44 186.9,248.32 343.29,169.94 10.9,-63.39 -12.86,-96.77 -27.51,-146.34 -41.35,-38.35 -65.6,-70.28 -145.26,-90.32 -81.69,-20.54 -158.25,-24 -170.52,66.72z"/>
    <path fill="#DDAB5A" d="M4093.29 2128.1c-45.45,19.47 -163.31,-4.67 -198.9,-117.36 77.96,32.14 39.24,33.44 98.12,67.95 32.47,19.02 64.01,25.88 100.78,49.41zm12.14 71.1c26.26,-65.35 33.48,-47.57 49.18,-98.22 -43.93,-110.93 -173.95,-212.73 -328.2,-159.74 -16.66,81.57 20.99,154.42 66.21,194.7 51.51,45.87 127.19,61.33 212.81,63.26z"/>
   </g>
   <g>
    <path fill="#E7E5E5" d="M4651.41 5503.25c-49.71,-142.52 -175.41,-93.28 -291.39,-123.42 -123.11,-31.97 -117.79,-134.7 -285.3,-11.07 -114.11,84.23 -180.81,79.85 -322.69,32.88 -177.69,-58.83 -594.94,95.01 -145.88,227.25 93.4,27.5 272.75,-9.38 354.76,-38.11 154.75,-54.23 183.03,-52.18 359.3,-30.19 96,11.98 289.69,23.06 331.2,-57.34z"/>
    <path fill="#E7E5E5" d="M5410.61 5280.38c39.82,176.2 412.41,267.8 553.07,130.06 87.57,-85.77 93.82,-151.2 270.59,-96.2 156.25,48.62 502.92,-1.26 235.99,-136.06 -107.39,-54.22 -396.07,-33.46 -472.86,-8.59 -73.38,23.78 -102.72,81.49 -155.87,105.83 -155.25,71.1 -249.09,-145.14 -430.92,4.96z"/>
    <path fill="#E7E5E5" d="M3755.3 8140.59c-46.46,10.66 -69.18,15.82 -89.73,56.32 -14.75,29.04 -24.11,84.92 -11.39,115.73 29.78,72.19 181.29,22.41 233.27,9.03 71.99,-18.53 161.5,-62.23 235.56,-44.87 71.14,16.67 106.53,80.05 222.44,68.76 226.94,-22.12 125.98,-225.08 -85.83,-208.52 -79,6.17 -184.96,29.76 -261.4,20.32 -81.09,-10.02 -145.72,-39.07 -242.92,-16.77z"/>
    <path fill="#E7E5E5" d="M4936.62 8558.35c0,118.84 242.23,72.65 308.13,70.32 65.51,-2.32 131.7,1.7 195.63,-6.57 76.35,-9.87 101.56,-27.7 120.64,-91.76 -76.12,-106.7 -196.97,-25.29 -259.82,20.9l-31.98 -45.75c-17.33,-28.55 2.57,-16.83 -29.12,-38.68 -29.86,-20.59 -75.88,-19.55 -110.07,-7.73 -31.98,11.05 -58.6,30.72 -98.34,41.52 -55.12,14.99 -95.07,4.94 -95.07,57.75z"/>
    <path fill="#E7E5E5" d="M6323.87 8454.31c-105.25,-33.28 -45.53,-53.88 -210.02,-57.67 -88.27,-2.03 -168.57,-0.83 -168.57,105.68 0,117.57 171.19,34.06 239.22,12.26 162.95,-52.23 158.53,63.98 296.13,23.25 75.8,-70.77 56.15,-133.25 -58.7,-153.54 -27.17,22.51 -59.8,49.17 -98.06,70.02z"/>
    <path fill="#E7E5E5" d="M4912.88 5756.5c52.19,98.87 259.57,34.86 369.43,60.52 101.17,23.64 266.22,40.72 358.68,-46.51 -3.48,-63.57 -4.77,-12.5 -39.2,-71.27 -134.38,3.42 -86.79,30.9 -157.01,61.82 -74.27,32.72 -443.29,-165.03 -531.9,-4.56z"/>
   </g>
   <g>
    <path fill="#51143E" d="M3372.07 2048.34c178.87,105.92 -7.8,474.8 -152.36,348.06 -65.3,-45.69 -31.26,-90.19 -35.18,-172.48 -106.74,92.44 -218.54,207.66 -222.79,350.41 118.22,-49.96 403.03,-97.9 431.09,58.1 -24.21,72.44 -99.16,104.97 -167.76,137.53 -108.81,51.6 -143.31,21.57 -238.71,-10.97 -24.01,49.96 32.18,66.7 78.85,148.93 40.69,-8.44 69.33,-20.22 106.6,-23.97 0.07,10.41 -6.5,28.48 -6.55,29 -0.3,2.95 -1.92,13.09 -1.32,16.14 18.23,94.41 128.57,-23 67.31,83.32l122.75 43.23c3.15,-4.18 10.41,-11.93 13.63,-7.77l146.8 1.58c49.85,12.34 77.13,20.58 135.47,28.9 331.55,47.33 582.65,81.67 936.83,97.87l7.63 -26.37c0.73,-3.83 2.11,-8.78 2.92,-13.51 7.08,-41 5.23,-101.59 31.95,-125.72l-5.38 -14.01 -51.2 -111.94c-62.19,16.51 -34.77,-41.69 -56.04,28.02 -5.71,-87.91 6.09,-55.85 -79.08,-52.02 4.28,32.26 -10.6,50.84 -10.72,50.36 -0.63,-2.35 -3.17,7.67 -5.04,11.37 -62.65,33.96 -213.36,129.28 -334.79,85.33 -35.44,-12.81 -99.51,-72.69 -113.96,-99 -43.91,-79.93 4.51,-91.84 39.41,-137.67 18.1,-32.74 3.65,-11.16 27.22,-36.27l27.07 -18.23c-65.39,-1.37 -121.02,-48.94 -194.52,-56.11 -0.05,-63.98 15.89,-127.85 0.14,-169.45 -89.98,15.13 36.17,16.71 -58.31,27.65 -43.48,5.02 -36.86,-7.81 -77.51,20.29l-32.08 37.37 -3.85 -42.01c22.26,121.23 -19.87,270.01 -122.52,297.15 -66.63,-37.07 -123.49,-132.41 -139.65,-229.22 -23.41,-140.27 50.31,-174.25 111.7,-235.67 64.56,-108.72 -76.67,81.59 44.33,-34.84 8.61,-8.28 12.91,10.45 18.23,-30.81 -10.53,-82.05 -77.76,-107.67 -20.53,-203.84 33.93,-38.54 40.16,-20.54 52.93,-64.6 5.73,-19.75 2.96,-88.02 2.96,-111.49 -45.5,-0.87 -69.75,3.9 -89.1,-38.2 -88.99,35.57 -76.99,133.19 -186.87,165.56z"/>
    <path fill="#51143E" d="M4278.6 1597.4c53.81,30.21 38.74,12.2 44.67,84.3 8.35,101.47 -16.52,54.33 -16.65,54.22 43.92,-18.62 18.33,-6.99 62.45,-3.28 152.93,-16.85 67.9,-50.46 258.8,3.82 -1.92,-2.68 -4.89,-6.19 -6.18,-7.7l-81.74 -86.44c-23.32,-31.05 -37.11,-67.48 -68.03,-102.46l-193.32 57.54z"/>
   </g>
   <g>
    <path fill="#480A38" d="M6937.52 2508.33c-117.02,33.61 -267.79,71.64 -395,70.18 10.94,16.97 38.16,-29.41 5.49,25.4 -208.09,5.75 -120.64,-24.67 -301.16,14.44l38.09 16.55c3.89,1.23 7.33,2.41 11.54,3.52l25.59 5.55c30.74,4.73 68.21,2.4 99.86,2.4 -8.47,-27.84 -106.35,-13.87 -140.02,-13.87l28.16 88.94c2.24,19.18 -0.14,57.9 -0.14,79.17 -105.69,0 -106.02,-25.25 -108.74,70.14l-17.42 154.02c-40.08,-68.61 -42.86,0.86 -82.93,-35.56 -13.68,2.93 -200.76,110.67 -288.98,11.85 -4.8,30.51 16.05,18.93 -6.41,28.61 -92.78,-41.27 17.17,14.71 -46.42,-46.7 -26.2,-25.28 -2.89,-18.75 -48.35,-27.96 -53.36,-10.79 -43.85,10.2 -115.22,-14.45l0.41 -26.52c0.16,-10.07 12.58,-7 17.64,-12l-41.44 -12.97 -60.74 4.49c-0.38,94.87 5.53,10.37 -26.23,47 -62.86,66.3 -66.65,100.13 -166.37,143.62 -83.2,36.28 -178.61,47.85 -254.98,10.34 -7.35,-34.99 -18.03,-71.43 10.68,-83.9l-26.28 -50.77c-3.26,-6.15 -10.29,-26.13 -21.02,-31.89 -65.17,-34.99 -12.34,-5.95 -37.64,2.01l-52.3 24.61c-18.96,13.85 -31.32,40.85 -56.76,69.25 -18.52,20.69 -43.69,51.61 -78.52,62.57 -90.29,28.4 -132.39,-43.89 -172.68,-75.78 -26.72,24.13 -24.87,84.72 -31.95,125.72 -0.81,4.73 -2.19,9.68 -2.92,13.51l-7.63 26.37c-354.18,-16.2 -605.28,-50.54 -936.83,-97.87 -58.34,-8.32 -85.62,-16.56 -135.47,-28.9l-146.8 -1.58c-3.22,-4.16 -10.48,3.59 -13.63,7.77 177.89,37.15 350.05,94.63 543.1,126 963.57,156.58 1993.13,172.19 2912.83,-189.04 175.09,-68.77 552.62,-252.58 506.58,-482.74 -15.99,-79.97 -99.36,-165.42 -142.19,-194.96 -102.58,131.17 6.49,145.88 -236.8,193.43z"/>
    <path fill="#480A38" d="M3231.25 3012.41c61.26,-106.32 -49.08,11.09 -67.31,-83.32 -0.6,-3.05 1.02,-13.19 1.32,-16.14 0.05,-0.52 6.62,-18.59 6.55,-29 -37.27,3.75 -65.91,15.53 -106.6,23.97 -46.67,-82.23 -102.86,-98.97 -78.85,-148.93 -108.14,-97.95 -47.14,-106.69 -24.62,-184.66 4.25,-142.75 116.05,-257.97 222.79,-350.41 3.92,82.29 -30.12,126.79 35.18,172.48 -19.68,-69.09 -29.09,-124.96 -3.57,-194.2 32.7,-88.68 69.77,-102.15 95.18,-131.77 -319.87,77.51 -949,416.18 -427.27,765.7 40.24,26.96 114.88,70.88 169.8,96.42 38.52,17.91 154.57,61.81 177.4,79.86z"/>
   </g>
   <g>
    <path fill="#F0F0EE" d="M5601.79 5699.24c34.43,58.77 35.72,7.7 39.2,71.27 -92.46,87.23 -257.51,70.15 -358.68,46.51 -109.86,-25.66 -317.24,38.35 -369.43,-60.52 88.61,-160.47 457.63,37.28 531.9,4.56 70.22,-30.92 22.63,-58.4 157.01,-61.82zm-950.38 -195.99c-41.51,80.4 -235.2,69.32 -331.2,57.34 -176.27,-21.99 -204.55,-24.04 -359.3,30.19 -82.01,28.73 -261.36,65.61 -354.76,38.11 -449.06,-132.24 -31.81,-286.08 145.88,-227.25 141.88,46.97 208.58,51.35 322.69,-32.88 167.51,-123.63 162.19,-20.9 285.3,11.07 115.98,30.14 241.68,-19.1 291.39,123.42zm759.2 -222.87c181.83,-150.1 275.67,66.14 430.92,-4.96 53.15,-24.34 82.49,-82.05 155.87,-105.83 76.79,-24.87 365.47,-45.63 472.86,8.59 266.93,134.8 -79.74,184.68 -235.99,136.06 -176.77,-55 -183.02,10.43 -270.59,96.2 -140.66,137.74 -513.25,46.14 -553.07,-130.06zm-2243.78 -148.02c-41.25,24.61 -28.99,-1.63 -12.46,21.67 -11.08,59.53 25.97,396.5 35.16,481.81l70.85 428.51c1.55,-2.91 6.73,6.77 9.42,10.68 24.29,48.92 296.07,177.62 382.68,196.14 463.42,99.07 717.22,-303.85 815.17,-353.35 145.73,-73.69 345.7,48.59 446.03,114.12 267.49,174.74 699.08,150.37 926.75,-44.07 131.53,-112.31 159.6,-199.41 421.3,-140.93 201.94,45.12 361.06,34.66 558.86,-1.08 18.77,-80.66 23.2,-279.77 32.76,-377.15 4.78,-48.66 4.65,-123.71 11.54,-176.06 8.78,-66.55 18.04,-105.31 19.27,-172.82 -320.72,-99.7 -403.22,-14.79 -580.69,-99.29 -240.98,-114.73 -278.4,-420.11 -639.46,-106.09 -178.15,154.95 -542.82,234.09 -713.18,15.23 -113.03,-145.19 -156.97,-216.26 -397.88,-274.33 -357.99,-86.29 -620.09,38.97 -822.19,301.54 -251.96,327.37 -413.66,181.71 -563.93,175.47z"/>
    <path fill="#F0F0EE" d="M4936.62 8558.35c0,-52.81 39.95,-42.76 95.07,-57.75 39.74,-10.8 66.36,-30.47 98.34,-41.52 34.19,-11.82 80.21,-12.86 110.07,7.73 31.69,21.85 11.79,10.13 29.12,38.68l31.98 45.75c62.85,-46.19 183.7,-127.6 259.82,-20.9 -19.08,64.06 -44.29,81.89 -120.64,91.76 -63.93,8.27 -130.12,4.25 -195.63,6.57 -65.9,2.33 -308.13,48.52 -308.13,-70.32zm1387.25 -104.04c38.26,-20.85 70.89,-47.51 98.06,-70.02 114.85,20.29 134.5,82.77 58.7,153.54 -137.6,40.73 -133.18,-75.48 -296.13,-23.25 -68.03,21.8 -239.22,105.31 -239.22,-12.26 0,-106.51 80.3,-107.71 168.57,-105.68 164.49,3.79 104.77,24.39 210.02,57.67zm-2568.57 -313.72c97.2,-22.3 161.83,6.75 242.92,16.77 76.44,9.44 182.4,-14.15 261.4,-20.32 211.81,-16.56 312.77,186.4 85.83,208.52 -115.91,11.29 -151.3,-52.09 -222.44,-68.76 -74.06,-17.36 -163.57,26.34 -235.56,44.87 -51.98,13.38 -203.49,63.16 -233.27,-9.03 -12.72,-30.81 -3.36,-86.69 11.39,-115.73 20.55,-40.5 43.27,-45.66 89.73,-56.32zm-326.64 -199.9c-33.05,34.86 43.56,29.2 -43.47,29.2 41.95,54.15 43.49,436.01 60.49,545.83 17.72,114.46 54.02,130.92 164.22,158.29 904.52,224.68 1768.45,236.16 2675.96,29.51 342.67,-78.02 286.26,-72.18 313.24,-297.13 8.51,-70.86 17.27,-193.66 19.67,-271.68l-30.17 -5.64c-89.35,12.41 -223.29,129.45 -417.46,7.77 -108.02,-67.69 -198.63,-210.06 -366.71,-69.71 -86.69,72.4 -152.17,243.27 -319.58,224.57 -108.1,-12.08 -181.35,-121.68 -324.42,-222.98 -201.5,-142.67 -553.72,-269.63 -841.5,-170.31 -216.16,74.61 -227.1,66.83 -436.71,5.49 -140.23,-41.05 -323.09,-8.91 -453.56,36.79z"/>
   </g>
   <g>
    <path fill="#4D1944" d="M3269.8 6075.03c-53.26,30.01 -24.9,-7.85 -33.31,59.23l144.44 1597.66c9.95,108.23 -4.49,211.86 47.73,208.77 130.47,-45.7 313.33,-77.84 453.56,-36.79 209.61,61.34 220.55,69.12 436.71,-5.49 287.78,-99.32 640,27.64 841.5,170.31 143.07,101.3 216.32,210.9 324.42,222.98 167.41,18.7 232.89,-152.17 319.58,-224.57 168.08,-140.35 258.69,2.02 366.71,69.71 194.17,121.68 328.11,4.64 417.46,-7.77 33.89,-50.85 37.39,-50.91 44.05,-130.53l85.64 -1007.98c17.79,-210.61 76.34,-1001.57 102.3,-1144.7 -197.8,35.74 -356.92,46.2 -558.86,1.08 -261.7,-58.48 -289.77,28.62 -421.3,140.93 -227.67,194.44 -659.26,218.81 -926.75,44.07 -100.33,-65.53 -300.3,-187.81 -446.03,-114.12 -97.95,49.5 -351.75,452.42 -815.17,353.35 -86.61,-18.52 -358.39,-147.22 -382.68,-196.14z"/>
    <path fill="#4D1944" d="M6302.11 4445.78c-13.28,-114.06 109.07,22.76 0,0zm-2682.01 -328.6c-22.26,-43.56 -16.19,-9.42 -1.67,-43.34 17.92,-4.57 20.63,-23.15 34.78,9.21 17.46,39.94 -18.28,29.61 -33.11,34.13zm-453.27 1015.18c150.27,6.24 311.97,151.9 563.93,-175.47 202.1,-262.57 464.2,-387.83 822.19,-301.54 240.91,58.07 284.85,129.14 397.88,274.33 170.36,218.86 535.03,139.72 713.18,-15.23 361.06,-314.02 398.48,-8.64 639.46,106.09 177.47,84.5 259.97,-0.41 580.69,99.29l123.85 -1398.53c-60.25,-1.85 -366.24,80.55 -462.31,100.54 -1151.68,239.71 -2410.22,189.69 -3530.74,-108.03 24.9,238.86 48.36,479.85 67.94,718.83 9.81,119.61 20.92,238.96 32.72,357.17 10.28,102.99 0.23,268.16 51.21,342.55z"/>
    <path fill="#4D1944" d="M2995.78 3546.47c144.72,23.3 307.9,75.9 459.01,105.55 1264.08,248.14 2309.74,214.49 3570,-109.63 160.05,-50.86 142.91,-42.7 166.61,-225.16 15.66,-120.55 36.18,-243.22 49.27,-364.15 -159.58,73.62 -169.23,122.43 -457.22,222.87 -543.17,189.43 -1187.75,258.54 -1762.43,259.94 -520.2,1.26 -1280.37,-67.71 -1773.12,-248.7 -202.43,-74.36 -302.86,-136.18 -465.61,-219.92 5.34,99.34 32.11,239.97 46.09,342.78 28.92,212.46 13.21,154.97 167.4,236.42z"/>
   </g>
   <path fill="#E7E7E7" d="M7024.79 3542.39l-16.78 178.91 -123.85 1398.53c-1.23,67.51 -10.49,106.27 -19.27,172.82 -6.89,52.35 -6.76,127.4 -11.54,176.06 -9.56,97.38 -13.99,296.49 -32.76,377.15 -25.96,143.13 -84.51,934.09 -102.3,1144.7l-85.64 1007.98c-6.66,79.62 -10.16,79.68 -44.05,130.53l30.17 5.64c-2.4,78.02 -11.16,200.82 -19.67,271.68 -26.98,224.95 29.43,219.11 -313.24,297.13 -907.51,206.65 -1771.44,195.17 -2675.96,-29.51 -110.2,-27.37 -146.5,-43.83 -164.22,-158.29 -17,-109.82 -18.54,-491.68 -60.49,-545.83 87.03,0 10.42,5.66 43.47,-29.2 -52.22,3.09 -37.78,-100.54 -47.73,-208.77l-144.44 -1597.66c8.41,-67.08 -19.95,-29.22 33.31,-59.23 -2.69,-3.91 -7.87,-13.59 -9.42,-10.68l-70.85 -428.51c-9.19,-85.31 -46.24,-422.28 -35.16,-481.81 -16.53,-23.3 -28.79,2.94 12.46,-21.67 -50.98,-74.39 -40.93,-239.56 -51.21,-342.55 -11.8,-118.21 -22.91,-237.56 -32.72,-357.17 -19.58,-238.98 -43.04,-479.97 -67.94,-718.83l-19.18 -167.34c-154.19,-81.45 -138.48,-23.96 -167.4,-236.42 -13.98,-102.81 -40.75,-243.44 -46.09,-342.78 162.75,83.74 263.18,145.56 465.61,219.92 492.75,180.99 1252.92,249.96 1773.12,248.7 574.68,-1.4 1219.26,-70.51 1762.43,-259.94 287.99,-100.44 297.64,-149.25 457.22,-222.87 -13.09,120.93 -33.61,243.6 -49.27,364.15 -23.7,182.46 -6.56,174.3 -166.61,225.16zm461.83 -1062.86l0 136.48c-124.91,214.01 -97.93,805.25 -193.39,943.91 -136.42,198.13 -93.29,-107.36 -156.52,516.78 -137.41,1356.54 -233.3,2757.9 -360.61,4122.24 -38.21,409.46 25.03,500.83 -279.28,617.04 -3.32,140.06 -108.33,147.13 -221.84,183.76 -106.29,34.3 -206.98,62.7 -315.71,90.32 -206.84,52.52 -668.09,99.42 -701.92,112.72l-451.32 0c-6.15,-2.11 -605.82,-51.14 -1059.26,-197.39 -134.19,-43.27 -220.29,-42.73 -222.92,-196.69 -90.99,-13.12 -176.13,-84.94 -208.36,-156.39 -32.6,-72.29 -35.53,-233.01 -42.64,-318.11l-177.98 -2007.86c-17.9,-208.66 -218.81,-2505.57 -250.12,-2666.98 -185.93,-89.33 -167.79,-259.35 -198.59,-499.78 -21.87,-170.78 -42.79,-396.21 -132.78,-550.31l0 -123.67c2,-3.56 4.28,-13.23 5.09,-11.09 10.93,28.35 7.98,-18.02 9.51,-21.79 5.77,-14.24 9.52,-26.82 16.13,-41.52 11.41,-25.34 25.27,-45.15 36.08,-61.99 36.75,-57.24 53.55,-70.91 95.56,-114.64 236.83,-246.48 602.17,-304.48 846.28,-401.37l16.36 -52.25c1.56,-3.46 4.57,-8.34 5.97,-11.22 1.43,-2.95 3.73,-7.97 6.5,-11.33l8.85 101.88 -0.77 22.5c-88.99,35.57 -76.99,133.19 -186.87,165.56l-60.75 22.09c-319.87,77.51 -949,416.18 -427.27,765.7 40.24,26.96 114.88,70.88 169.8,96.42 38.52,17.91 154.57,61.81 177.4,79.86l122.75 43.23c177.89,37.15 350.05,94.63 543.1,126 963.57,156.58 1993.13,172.19 2912.83,-189.04 175.09,-68.77 552.62,-252.58 506.58,-482.74 -15.99,-79.97 -99.36,-165.42 -142.19,-194.96 12.82,-130.92 26.35,-196.18 18.91,-347.57l9.9 19.27c0.77,2.33 3.16,7.17 3.99,10.14 5.79,20.65 5.4,25.29 6.87,47.26 10.48,157.04 -26.06,36.65 157.67,240.61 68.08,75.6 64.33,110.08 114.96,194.92z"/>
   <path fill="#FAF8D0" d="M6187.15 2188.87c-162.46,82.84 -164.18,-2.98 -324.08,-171.55 187.16,-10.23 124.34,89.83 281.01,149.36l21.9 9.29c2.73,1.2 8.71,9.36 10.66,6.18 1.98,-3.21 7.3,4.07 10.51,6.72zm115.19 -68.9c15.22,-29.09 39.07,-24.45 60.44,-64.19 29.21,-54.27 -0.44,-205.71 236.3,-173 -26.55,50.89 -95.45,39.47 -136.78,132.44 -35.48,79.85 -42.54,127.06 -159.96,104.75zm-366.4 -534c-45.78,12.48 -54.41,26.14 -88.46,55.54l-17.7 17.33c-2.53,2.28 -5.89,5.44 -8.64,7.86 -2.61,2.29 -5.82,4.86 -8.47,7.1 -83.36,70.44 -68.46,64.06 -135.74,142.85l-23.5 26.89c-20.43,41.97 -26.29,42.05 -48.5,75.79 -23.1,63.32 -45.89,95.63 -61.32,157.23 -14.16,56.54 -19.21,105.79 -41.26,149.88 6.22,11.17 46.29,245.93 66.2,306.7l173.17 9.85 127 5.55c12.27,-90.72 88.83,-87.26 170.52,-66.72 79.66,20.04 103.91,51.97 145.26,90.32l48.81 11.06c-32.65,-51.01 -102.84,-119.36 -51.49,-189.76 62.18,-85.27 125.02,-7.07 100.49,-172.11 115.15,84.08 62.2,141.72 -2.24,198.84l-30.53 30.14c27.4,70.34 39.95,52.88 44.13,138.31l248.85 -10.11c127.21,1.46 277.98,-36.57 395,-70.18l-28.23 -29.99c96.47,-251.46 183.11,-400.14 60.02,-701.6 -145.16,-355.5 -421.58,-370.38 -456.7,-395.47 -204.41,11.75 -350.75,26.17 -532.39,164.05l-44.28 40.65z"/>
   <path fill="#875F8B" d="M3014.96 3713.81c1120.52,297.72 2379.06,347.74 3530.74,108.03 96.07,-19.99 402.06,-102.39 462.31,-100.54l16.78 -178.91c-1260.26,324.12 -2305.92,357.77 -3570,109.63 -151.11,-29.65 -314.29,-82.25 -459.01,-105.55l19.18 167.34z"/>
   <path fill="#5FA744" d="M5074.53 1710.54c22.41,-147.3 82.82,-230.95 166.02,-315.37 67.77,-68.78 182.82,-156.55 296.98,-175.85l-463 491.22zm159.13 -606.25l-119.72 55.78c-35.34,42.41 -24.28,23.58 -58.81,49.19 -22.33,16.55 -26.7,21.82 -50.87,46.96 -30.27,31.48 -72.16,83.23 -97.85,110.44l-33.68 84.88c-21.64,74.94 -39.46,143.19 -30.57,231.73 19.84,-7.73 45.28,-19.5 77.41,-13.56 44.2,8.16 43.11,25.37 58.99,52.06 61.89,37.74 45.62,161.38 26.88,234.27 58.41,-1.2 20.53,-5.27 33.8,19.94 75.75,-69.53 138.57,-32.44 228.17,-30.59 208.03,-56.05 252.65,-166.47 335.37,-356 53.32,-122.15 157.99,-376.5 180.28,-512.69 -206.29,-38.98 -361.46,-62.71 -549.4,27.59z"/>
   <path fill="#F4ECA3" d="M5760.03 1469.66c11.76,60.17 23.44,65.98 51.15,117.86 -91.48,-27.72 -129.94,-54.96 -132.05,-161.09 37.2,-32.46 92.82,-75.46 115.38,-122.28l25.02 -60.37c89.93,104.55 -23.33,181.11 -59.5,225.88zm-526.37 -365.37c187.94,-90.3 343.11,-66.57 549.4,-27.59 -22.29,136.19 -126.96,390.54 -180.28,512.69 -82.72,189.53 -127.34,299.95 -335.37,356 10.58,45.97 28.85,77.1 21.66,137.31 39.17,25.35 51.63,46.83 93.18,76.41 36.83,26.23 77.36,50.63 120.1,67.33 22.05,-44.09 27.1,-93.34 41.26,-149.88 15.43,-61.6 38.22,-93.91 61.32,-157.23l-104.35 16.55c96.55,-103.5 47.7,-52.42 75.2,-193.7 14.95,-76.76 100.39,-118.54 174.87,-76.39 -102.6,77.66 -86.34,10.53 -97.22,177.75l23.5 -26.89c67.28,-78.79 52.38,-72.41 135.74,-142.85 2.65,-2.24 5.86,-4.81 8.47,-7.1 2.75,-2.42 6.11,-5.58 8.64,-7.86l17.7 -17.33c-19.11,-9.88 -63.23,5.28 6.47,-52.13 82.6,-68.02 81.88,-3.52 81.99,-3.41l44.28 -40.65c181.64,-137.88 327.98,-152.3 532.39,-164.05 -224.1,-337.25 -499.35,-553.13 -945.24,-504.43 2.99,3.6 -9.89,16.11 2.04,-2.97l11.9 -19.99c-96.91,21.25 -119.26,58.94 -199.6,107.78 -42.39,25.76 -135.43,92.69 -148.05,142.63z"/>
   <path fill="#56903F" d="M4471.92 1539.86c30.92,34.98 44.71,71.41 68.03,102.46l81.74 86.44c1.29,1.51 4.26,5.02 6.18,7.7 21.37,6.37 33.45,10.04 51.56,18.64 11.36,5.39 18.59,9.6 27.09,15.33 16.25,10.93 16.19,11.96 24.12,19.7 35.52,-53.56 55.66,-70.13 111.52,-106.86 -8.89,-88.54 8.93,-156.79 30.57,-231.73l-328.59 -363.35c147.58,27.75 303.86,149.01 362.27,278.47 25.69,-27.21 67.58,-78.96 97.85,-110.44 24.17,-25.14 28.54,-30.41 50.87,-46.96 34.53,-25.61 23.47,-6.78 58.81,-49.19 -118.28,-220.67 -529.82,-378.07 -874.46,-262.84 14.43,87.55 72.68,242.48 104.05,324.33 37.94,99.01 107.36,234 128.39,318.3z"/>
   <path fill="#531434" d="M3900.39 2534.37c-16.74,-153.4 337.44,-82.06 360.2,89.19 22.41,168.68 -344.44,55.12 -360.2,-89.19zm126.06 -899.15l-119.34 5.21c-12.11,109.86 35.28,165.43 -73.29,238.68 -39.19,26.45 -91.32,35.07 -144.02,30.67 -28.6,-2.39 -48.08,-7.67 -71.26,-17.7l-58.83 -31.8 -0.77 22.5c19.35,42.1 43.6,37.33 89.1,38.2 0,23.47 2.77,91.74 -2.96,111.49 -12.77,44.06 -19,26.06 -52.93,64.6 109.22,-11.52 224.15,26.15 292.88,88.27 75.64,68.34 99.44,187.85 29.06,262.62 -73.29,16.55 -129.38,4.46 -165.87,-46.41 -35.51,-5.46 -11.13,9.41 -53.98,-24.99 -36.66,-29.43 -28.81,-23.42 -38.11,-57.44l-43.45 -18.21c-5.32,41.26 -9.62,22.53 -18.23,30.81 -121,116.43 20.23,-73.88 -44.33,34.84 111.82,-9.46 140.17,62.53 150.47,167.74l3.85 42.01 32.08 -37.37c40.65,-28.1 34.03,-15.27 77.51,-20.29 94.48,-10.94 -31.67,-12.52 58.31,-27.65 15.75,41.6 -0.19,105.47 -0.14,169.45 73.5,7.17 129.13,54.74 194.52,56.11l-27.07 18.23c-23.57,25.11 -9.12,3.53 -27.22,36.27 151.79,-36.26 421.55,-31.99 409.34,151.34 1.87,-3.7 4.41,-13.72 5.04,-11.37 0.12,0.48 15,-18.1 10.72,-50.36 85.17,-3.83 73.37,-35.89 79.08,52.02 21.27,-69.71 -6.15,-11.51 56.04,-28.02l51.2 111.94c-14.97,-111.37 -1.06,-138.17 57.44,-214.58 -50.35,20.79 -141.36,130.74 -285.35,-0.58 -30.12,-27.49 -60.91,-69.43 -70.35,-126.01 -14.9,-89.18 6.52,-121.37 64.94,-149.61l-83.91 -13.56c-24.99,-65.4 21.37,-37.7 -24.52,-77.94 -93.1,32.23 -129.75,23.02 -165.03,-53.16 -24.76,-39.51 -15.8,-94.17 -11.64,-161.97 -85.62,-1.93 -161.3,-17.39 -212.81,-63.26 -45.22,-40.28 -82.87,-113.13 -66.21,-194.7 154.25,-52.99 284.27,48.81 328.2,159.74 43.71,-22.78 72.79,-57.81 138,-41.09 93.65,27.8 132.53,90.42 128.57,208.23 -14.61,72.93 7.16,22.38 25.15,42.03 -26.51,-253.97 232.15,-374.31 302.29,-216.46 58.42,22.97 38.37,-21.82 34.3,62.5 0,-25.76 -31.42,-97 69.11,-74 46.44,10.62 71,120.95 83.48,146.06l18.03 39.95 -114.58 0.07c43.58,78.19 -21.38,9.32 37.32,36.81 75.88,-13.73 112.71,-7.29 178.18,26.26 36.01,10.92 22.52,13.59 22.52,-29.61 -184.98,-44.98 -166.79,-227.36 -37.74,-325.75 -13.27,-25.21 24.61,-21.14 -33.8,-19.94l-12.32 4.02c-32.77,87.87 -106.04,130.18 -209.45,69.39 -68.76,-40.41 -95.3,-138.95 -53.03,-239.32 -7.93,-7.74 -7.87,-8.77 -24.12,-19.7 -8.5,-5.73 -15.73,-9.94 -27.09,-15.33 -18.11,-8.6 -30.19,-12.27 -51.56,-18.64l27.42 43.69c72.11,151.19 -307.3,410.69 -368.37,157.2 -14.6,-60.6 0.81,-112.05 37.17,-154.86 7.17,-8.42 17.31,-18.38 21.83,-23.39 25.97,-28.76 1.97,1.93 23.15,-26.46 -44.12,-3.71 -18.53,-15.34 -62.45,3.28 0.13,0.11 25,47.25 16.65,-54.22 -5.93,-72.1 9.14,-54.09 -44.67,-84.3l7.25 -2.8c-7.19,89.52 23.11,170.49 -34.97,239.61 -46.49,55.33 -120.94,99.09 -189.36,63.51 -62.2,-67.01 -40.87,-157.91 -35.07,-262.5z"/>
   <path fill="#53133C" d="M4446.33 2310.15c-17.99,-19.65 -39.76,30.9 -25.15,-42.03 -28.67,65.67 -68.28,124.18 -139.08,146.21 45.89,40.24 -0.47,12.54 24.52,77.94l83.91 13.56c53.39,-30.82 168.44,23.98 213.72,52.85 89.72,57.21 109.45,98.03 71.92,225.06 90.1,-51.87 107.9,-70.08 232.7,-54.75 7.74,-43.93 -13.22,-12.54 42.82,-37.1 91.09,-39.93 61.89,-42.5 218.47,-108.45 5.47,-96.73 1.97,-141.38 29,-114.72l15.24 -17.54c27.4,-34.19 54.3,-76.77 96.48,-103.32 49.83,-31.38 110.1,-50.53 160.54,-9.63 27.56,70.53 -11.52,136.71 -32.04,196.07l71.84 7.73c4.63,1.22 8.44,2.8 12.62,4.1 4.22,1.3 9.06,3.69 12.49,4.86 3.45,1.18 8.63,2.84 12.47,5.19l19.75 -23.04c-19.91,-60.77 -59.98,-295.53 -66.2,-306.7 -42.74,-16.7 -83.27,-41.1 -120.1,-67.33 -41.55,-29.58 -54.01,-51.06 -93.18,-76.41 -47.84,89.42 -92.06,234.68 -212.09,219.03 0,43.2 13.49,40.53 -22.52,29.61 39.01,28.25 50.57,37.62 62.86,90.89 0.77,105.56 -71.35,112.61 -110.39,170.47 -390.27,105.37 -289.44,-285.43 -130.65,-287.62 -58.7,-27.49 6.26,41.38 -37.32,-36.81l114.58 -0.07 -18.03 -39.95c-12.48,-25.11 -37.04,-135.44 -83.48,-146.06 -100.53,-23 -69.11,48.24 -69.11,74 4.07,-84.32 24.12,-39.53 -34.3,-62.5 22.49,107.23 -5.93,257.97 -74.37,304.51 -45.44,30.89 -100.36,26.39 -146.77,-0.13 -51.41,-29.38 -52.75,-49.58 -81.15,-87.92z"/>
   <path fill="#F7ED7B" d="M6512.61 1381.27c35.12,25.09 311.54,39.97 456.7,395.47 123.09,301.46 36.45,450.14 -60.02,701.6l28.23 29.99c243.29,-47.55 134.22,-62.26 236.8,-193.43 12.82,-130.92 26.35,-196.18 18.91,-347.57 -20.66,-190.47 -188.05,-402.09 -352.28,-496.38 -234.8,-134.82 -69.41,-52.17 -159.57,-138.4l13.86 71.57c-53.78,-18.44 -127.55,-40.56 -182.63,-22.85z"/>
   <path fill="#EDDC6E" d="M5581.31 853.88l-11.9 19.99c-11.93,19.08 0.95,6.57 -2.04,2.97 445.89,-48.7 721.14,167.18 945.24,504.43 55.08,-17.71 128.85,4.41 182.63,22.85l-13.86 -71.57c-5.07,-108.29 -172.19,-287.36 -241.47,-343.23 -48.18,-38.84 -106.29,-77.11 -182.03,-112.54 -53.74,-25.12 -191.31,-57.77 -225.73,-79.56l-298.77 0 -152.07 56.66z"/>
   <path fill="#DAA457" d="M3311.32 2070.43c-25.41,29.62 -62.48,43.09 -95.18,131.77 -25.52,69.24 -16.11,125.11 3.57,194.2 144.56,126.74 331.23,-242.14 152.36,-348.06l-60.75 22.09z"/>
   <path fill="#CB944A" d="M5006.93 2592.7c-49.52,-9.35 -114.82,21.54 -235.4,-73.84 76.71,-95.41 233.73,-81.77 284.1,-90.72 68.44,-12.13 44.99,17.89 61.69,-5.91 -12.29,-53.27 -23.85,-62.64 -62.86,-90.89 -65.47,-33.55 -102.3,-39.99 -178.18,-26.26 -158.79,2.19 -259.62,392.99 130.65,287.62z"/>
   <path fill="#56913D" d="M5074.53 1710.54l463 -491.22c-114.16,19.3 -229.21,107.07 -296.98,175.85 -83.2,84.42 -143.61,168.07 -166.02,315.37z"/>
   <path fill="#427B39" d="M4872.73 1451.54l33.68 -84.88c-58.41,-129.46 -214.69,-250.72 -362.27,-278.47l328.59 363.35z"/>
  </g>
  <g id="_1489304435536">
   <path fill="#8A2281" d="M4999.99 4743.55c865.59,0 1567.28,701.7 1567.28,1567.28 0,865.58 -701.69,1567.28 -1567.28,1567.28 -865.58,0 -1567.27,-701.7 -1567.27,-1567.28 0,-865.58 701.69,-1567.28 1567.27,-1567.28z"/>
   <path fill="#00A859" d="M4759.48 7651.62c-137.94,91.86 -342.95,36 -402.56,-139.95 -159.57,44.74 -337.29,-71.73 -339.6,-257.5 -165.59,-6.75 -298.62,-172.44 -243.42,-349.83 -155.39,-57.6 -230.71,-256.28 -123.39,-407.93 -129.99,-102.8 -140.23,-315.03 8.7,-426.1 -91.86,-137.94 -36.01,-342.94 139.95,-402.55 -44.75,-159.58 71.73,-337.29 257.49,-339.61 6.76,-165.58 172.45,-298.61 349.84,-243.41 57.59,-155.4 256.28,-230.71 407.93,-123.4 102.8,-129.99 315.03,-140.22 426.09,8.71 137.94,-91.87 342.95,-36.01 402.56,139.94 159.57,-44.74 337.28,71.73 339.6,257.5 165.59,6.75 298.62,172.44 243.42,349.83 155.39,57.6 230.71,256.28 123.39,407.93 129.99,102.8 140.23,315.04 -8.7,426.1 91.86,137.94 36.01,342.94 -139.95,402.55 44.75,159.58 -71.73,337.29 -257.49,339.61 -6.76,165.59 -172.45,298.61 -349.84,243.41 -57.59,155.4 -256.28,230.71 -407.93,123.4 -102.8,129.99 -315.03,140.22 -426.09,-8.7z"/>
   <path fill="#FEFEFE" d="M4774.49 7567.91c-129.33,86.13 -321.54,33.76 -377.42,-131.21 -149.61,41.95 -316.23,-67.25 -318.41,-241.42 -155.25,-6.33 -279.97,-161.68 -228.21,-327.99 -145.7,-54 -216.31,-240.28 -115.7,-382.46 -121.87,-96.39 -131.47,-295.37 8.16,-399.5 -86.13,-129.33 -33.76,-321.54 131.21,-377.43 -41.95,-149.61 67.25,-316.23 241.42,-318.4 6.34,-155.25 161.68,-279.97 328,-228.22 54,-145.7 240.28,-216.31 382.46,-115.69 96.38,-121.88 295.37,-131.47 399.5,8.16 129.32,-86.13 321.54,-33.76 377.42,131.21 149.61,-41.95 316.23,67.25 318.41,241.42 155.25,6.33 279.97,161.68 228.21,327.99 145.7,54 216.31,240.29 115.7,382.47 121.87,96.38 131.47,295.37 -8.16,399.5 86.13,129.32 33.76,321.53 -131.21,377.42 41.95,149.61 -67.25,316.23 -241.42,318.4 -6.34,155.25 -161.68,279.98 -328,228.22 -54,145.7 -240.28,216.31 -382.46,115.69 -96.38,121.88 -295.37,131.47 -399.5,-8.16z"/>
   <g>
    <g>
     <path fill="#8A2281" d="M4191.62 6943.83c0,0 -345.13,-415.2 -32.07,-826.3 205.78,-270.21 517.94,-314.02 905.12,-301.54 168.46,5.42 671.32,64.66 621.42,-228.79l-4.11 -24.14c-4.83,-28.39 -9.36,69.85 -17.11,91.29 -72.32,199.85 -547.2,100.97 -711.31,90.14 -1100.25,-72.63 -1226.46,773.28 -761.94,1199.34z"/>
     <path fill="#8A2281" d="M5808.37 5677.84c0,0 345.13,415.19 32.07,826.29 -205.78,270.21 -517.95,314.02 -905.12,301.54 -168.46,-5.42 -671.32,-64.65 -621.42,228.79l4.11 24.14c4.83,28.39 9.36,-69.85 17.11,-91.28 72.32,-199.86 547.2,-100.98 711.31,-90.15 1100.25,72.63 1226.46,-773.28 761.94,-1199.33z"/>
    </g>
    <path fill="#8A2281" fill-rule="nonzero" d="M4256.51 6435.28c-7.76,3.33 -13.39,3.41 -16.9,0.23 -3.5,-3.18 -5.54,-8.21 -6.13,-15.1 -0.59,-6.89 0.27,-14.68 2.59,-23.36 2.31,-8.67 5.6,-17.23 9.87,-25.67 4.26,-8.43 9.25,-15.87 14.96,-22.32 5.7,-6.44 11.78,-10.78 18.23,-12.99 7.93,-1.92 24.18,-2.55 48.74,-1.91 24.56,0.65 52.42,0.78 83.57,0.39 19.64,-40.29 39.31,-81.3 59.01,-123.03 19.7,-41.74 37.7,-80.63 54,-116.67 16.31,-36.05 29.95,-67.33 40.92,-93.85 10.97,-26.53 17.77,-44.75 20.42,-54.67 1.63,-6.43 3.95,-11.03 6.98,-13.8 3.94,-7.19 10.22,-11.79 18.86,-13.79 8.64,-2 18.26,-1.84 28.87,0.49 10.6,2.32 21.51,6.29 32.75,11.9 11.24,5.61 21.27,12.2 30.1,19.78 8.84,7.58 15.94,15.72 21.31,24.44 5.37,8.71 7.35,17.24 5.95,25.56 -1.04,7.33 -3.68,22.29 -7.92,44.88 -4.24,22.59 -9.17,49.47 -14.78,80.63 -5.61,31.16 -11.5,64.99 -17.67,101.49 -6.17,36.51 -11.73,72.1 -16.67,106.78 -4.95,34.68 -8.9,66.72 -11.84,96.11 -2.94,29.4 -3.86,52.67 -2.76,69.82 0.21,5.74 -1.72,11.61 -5.8,17.62 -4.08,6.01 -8.97,10.2 -14.69,12.57 -5.71,2.37 -11.72,2.37 -18,0.01 -6.29,-2.37 -11.5,-8.82 -15.65,-19.36 -7.6,-19.25 -13.65,-42.64 -18.17,-70.18 -4.51,-27.54 -7.99,-57.49 -10.45,-89.83 -12.79,5.37 -25.21,9.87 -37.26,13.48 -12.04,3.61 -24.15,6.75 -36.31,9.41 -12.16,2.66 -24.36,4.97 -36.61,6.93 -12.25,1.95 -24.97,3.96 -38.16,6.03 -13.54,27.07 -26.77,52.78 -39.68,77.14 -12.91,24.35 -24.8,46.19 -35.68,65.5 -10.88,19.31 -20.46,35.46 -28.73,48.46 -8.28,13 -14.82,21.46 -19.63,25.4 -8.25,7.24 -15.44,11.34 -21.56,12.32 -6.12,0.98 -10.48,-0.3 -13.06,-3.83 -2.59,-3.53 -3.19,-8.5 -1.8,-14.9 1.39,-6.41 5.47,-13.38 12.25,-20.92 3.8,-4.3 9.14,-11.78 16.02,-22.45 6.88,-10.67 14.76,-23.98 23.64,-39.93 8.88,-15.95 18.6,-33.92 29.15,-53.91 10.56,-19.99 21.45,-41.23 32.66,-63.7 -18.22,4.11 -37.53,9.2 -57.93,15.26 -20.39,6.05 -42.73,13.9 -67.01,23.54zm318.56 -356.6c-15.47,34.98 -33.71,74.86 -54.73,119.63 -21.01,44.78 -42.71,89.87 -65.09,135.29 21.47,-1.15 42.45,-3.31 62.95,-6.5 20.5,-3.18 38.98,-8.17 55.45,-14.95 -1.95,-40.09 -2.71,-80.32 -2.29,-120.7 0.42,-40.37 1.66,-77.96 3.71,-112.77zm360.07 48.12c26.02,-3.13 46.1,-0.87 60.22,6.79 14.13,7.66 23.7,18.39 28.72,32.19 5.02,13.8 6.34,29.72 3.95,47.77 -2.39,18.05 -6.82,36.1 -13.29,54.16 -6.47,18.06 -14.29,34.85 -23.46,50.35 -9.18,15.51 -17.78,27.82 -25.8,36.95 -8.5,9.18 -16.05,14.17 -22.68,14.97 -6.62,0.8 -12.35,-0.91 -17.18,-5.13 -4.83,-4.22 -8.79,-10.23 -11.89,-18.02 -3.1,-7.78 -5.25,-15.68 -6.45,-23.7 -1.21,-8.02 -1.29,-15.69 -0.25,-23.01 1.04,-7.33 3.04,-12.61 6.01,-15.85 2.98,-3.24 7.27,-8.43 12.89,-15.59 5.62,-7.16 11.4,-14.93 17.35,-23.33 5.95,-8.4 11.61,-17.24 16.97,-26.53 5.37,-9.28 9.19,-17.42 11.47,-24.42 2.28,-6.99 2.55,-12.67 0.83,-17.02 -1.73,-4.35 -6.37,-6.07 -13.94,-5.16 -13.73,1.65 -27.84,10.07 -42.33,25.25 -14.49,15.19 -27.87,33.72 -40.11,55.6 -12.25,21.87 -22.78,45.1 -31.58,69.68 -8.81,24.58 -13.89,47.16 -15.26,67.72 -1.36,20.57 1.36,37.17 8.15,49.79 6.8,12.62 19.67,17.79 38.59,15.52 21.77,-2.62 41.36,-9.42 58.76,-20.39 17.4,-10.98 32.67,-23.74 45.8,-38.28 13.13,-14.54 23.82,-29.39 32.08,-44.54 8.26,-15.16 14.13,-28.23 17.61,-39.21 3,-10.92 7.59,-18.67 13.76,-23.26 6.17,-4.58 11.85,-6.22 17.05,-4.93 5.19,1.3 9.17,5.38 11.91,12.25 2.75,6.87 2.7,16.48 -0.13,28.82 -3.31,12.4 -10.21,27.87 -20.7,46.42 -10.49,18.54 -24.02,36.73 -40.6,54.57 -16.57,17.83 -35.68,33.57 -57.32,47.22 -21.64,13.64 -45.24,22 -70.79,25.08l-5.68 0.68c-1.02,3.48 -2.07,6.73 -3.15,9.74 -1.07,3.01 -1.94,5.76 -2.61,8.24 -1.07,3.01 -1.71,5.72 -1.9,8.14 14.84,-0.34 27.35,1.87 37.53,6.65 10.17,4.78 18.05,11.39 23.63,19.84 5.57,8.45 8.74,17.79 9.49,28.02 0.75,10.23 -0.64,20.6 -4.18,31.11 -6.05,17.53 -15.71,29.97 -28.99,37.33 -13.27,7.36 -27.43,10.38 -42.47,9.07 -15.04,-1.31 -29.1,-6.46 -42.18,-15.45 -13.09,-8.98 -22.52,-21.53 -28.3,-37.64 -3.5,-9.18 -4.38,-16.51 -2.64,-22 1.74,-5.49 4.55,-9.07 8.42,-10.74 3.88,-1.66 8.38,-1.24 13.48,1.26 5.1,2.51 9.73,7.11 13.9,13.81 4.17,6.7 8.43,11.23 12.8,13.58 4.36,2.36 8.43,3.31 12.22,2.85 3.78,-0.45 7.07,-2.05 9.87,-4.79 2.79,-2.73 4.69,-5.84 5.71,-9.32 3.29,-8.56 2.34,-15.53 -2.87,-20.9 -5.21,-5.37 -12.98,-9.12 -23.32,-11.24 -4.43,-0.9 -7.76,-2.66 -9.99,-5.27 -2.24,-2.62 -3.8,-5.67 -4.7,-9.16 -0.9,-3.49 -1.09,-7.07 -0.57,-10.73 0.51,-3.66 1.05,-7.21 1.6,-10.64 0.66,-2.47 1.59,-5.71 2.79,-9.69 1.2,-3.99 2.7,-8.49 4.5,-13.5 -26.53,-4.97 -47.66,-17.07 -63.42,-36.3 -15.75,-19.22 -26.04,-41.87 -30.85,-67.93 -4.82,-26.06 -4.32,-53.85 1.49,-83.35 5.81,-29.5 16.87,-57.23 33.19,-83.2 16.32,-25.97 37.76,-48.23 64.33,-66.79 26.57,-18.56 58.07,-30.03 94.51,-34.41zm313.4 73.18c3.17,-9.51 10.12,-15.62 20.83,-18.35 10.71,-2.73 21.88,-2.64 33.52,0.29 11.63,2.92 21.54,8.45 29.71,16.58 8.19,8.14 11.39,18.8 9.61,31.97 -1.34,8.8 -4.39,19.37 -9.14,31.7 -4.76,12.34 -10.08,24.98 -15.96,37.93 -5.89,12.95 -11.67,25.76 -17.34,38.45 -5.67,12.68 -10.08,23.89 -13.23,33.63 -3.15,9.74 -4.29,17.2 -3.43,22.38 0.86,5.17 4.81,7.1 11.85,5.77 10.77,-2.26 20.75,-8.14 29.93,-17.64 9.17,-9.51 17.54,-20.71 25.11,-33.63 7.57,-12.91 14.1,-26.42 19.61,-40.52 5.5,-14.1 9.76,-26.62 12.76,-37.54 3.48,-10.98 8.19,-18.75 14.12,-23.3 5.93,-4.55 11.62,-6.2 17.05,-4.93 5.43,1.26 9.52,5.33 12.27,12.2 2.75,6.87 2.46,16.51 -0.84,28.91 -2.84,12.34 -7.85,27.58 -15.02,45.73 -7.18,18.14 -16.34,35.81 -27.47,52.99 -11.13,17.18 -24.43,32.34 -39.89,45.48 -15.46,13.14 -33.13,20.91 -53,23.3 -20.35,2.45 -35.3,-3.07 -44.84,-16.56 -9.55,-13.5 -15.6,-30.89 -18.16,-52.18 -10.75,22.41 -24.14,41.78 -40.17,58.11 -16.04,16.34 -35.29,24.89 -57.76,25.68 -24.36,1.01 -44.2,-4.29 -59.52,-15.88 -15.31,-11.6 -26.41,-27.07 -33.3,-46.4 -6.89,-19.33 -9.54,-41.34 -7.94,-66.01 1.59,-24.68 7.23,-49.6 16.92,-74.77 9.69,-25.16 23.34,-49.37 40.95,-72.61 17.6,-23.24 39.12,-42.87 64.56,-58.89 25.43,-16.03 54.66,-27.46 87.68,-34.32 33.02,-6.85 69.67,-6.46 109.95,1.17 9.33,1.76 16.63,5.57 21.89,11.41 5.27,5.85 7.89,11.65 7.86,17.42 -0.02,5.76 -3.03,10.68 -9.02,14.77 -5.99,4.08 -15.55,5.47 -28.66,4.16 -22.4,-2.58 -43.3,-0.79 -62.72,5.39 -19.42,6.18 -37.17,15.27 -53.24,27.29 -16.08,12.02 -30.33,26.21 -42.76,42.59 -12.43,16.38 -23.12,33.26 -32.07,50.66 -8.95,17.4 -15.77,34.54 -20.45,51.43 -4.69,16.88 -7.29,32.2 -7.8,45.94 -0.51,13.74 1.08,24.95 4.77,33.63 3.68,8.68 9.87,13.21 18.56,13.61 10.16,0.7 19.52,-3.31 28.08,-12.02 8.55,-8.71 16.55,-19.99 24,-33.85 7.46,-13.86 14.11,-29.42 19.95,-46.69 5.84,-17.26 10.93,-33.84 15.26,-49.72 2.43,-15.65 5.13,-30.14 8.09,-43.46 2.96,-13.31 5.9,-23.75 8.84,-31.3zm168.95 -103.86c3.79,-12.46 11.9,-19.79 24.36,-22.01 12.45,-2.22 25.33,-0.89 38.64,3.99 13.31,4.88 24.69,12.63 34.12,23.25 9.44,10.63 13.27,22.53 11.5,35.7 -1.34,8.81 -5.26,21.16 -11.74,37.06 -6.49,15.9 -13.77,33.22 -21.83,51.95 -8.07,18.73 -16.35,37.73 -24.83,57 -8.48,19.26 -15.42,36.41 -20.81,51.46 -5.39,15.05 -8.38,27.05 -8.99,36.01 -0.6,8.95 2.62,12.77 9.66,11.44 10.77,-2.26 20.74,-8.14 29.92,-17.64 9.18,-9.51 17.55,-20.72 25.12,-33.63 7.56,-12.91 14.1,-26.42 19.6,-40.52 5.51,-14.11 9.76,-26.62 12.77,-37.54 3.48,-10.98 8.18,-18.75 14.12,-23.3 5.93,-4.56 11.61,-6.2 17.04,-4.93 5.44,1.26 9.53,5.33 12.27,12.2 2.75,6.87 2.47,16.51 -0.84,28.91 -3.31,12.39 -8.55,27.67 -15.73,45.81 -7.17,18.15 -16.33,35.81 -27.46,52.99 -11.14,17.18 -24.44,32.34 -39.9,45.49 -15.46,13.14 -33.12,20.9 -53,23.29 -19.4,2.34 -33.86,-3.12 -43.37,-16.38 -9.52,-13.25 -15.72,-30.87 -18.6,-52.84 -2.89,-21.98 -2.97,-46.57 -0.24,-73.78 2.73,-27.21 6.38,-53.7 10.96,-79.45 4.58,-25.75 9.58,-49.04 15,-69.85 5.41,-20.82 9.5,-35.71 12.26,-44.68z"/>
    <path fill="#00A859" d="M5470.31 6051.45c-28.71,-164.24 75.13,-199.86 193.66,-246.89 42.86,-17.01 67.27,-52.19 67.27,-52.19 -6.99,90.36 -13.53,239.68 -117.47,271.87 -47.51,14.71 -79.33,13.69 -123.18,47.19 50.77,-100.3 83.16,-126.73 159.14,-203.44 0,0 -67.74,39.79 -105.86,84.39 -38.13,44.61 -73.56,99.07 -73.56,99.07z"/>
    <path fill="#8A2281" fill-rule="nonzero" d="M5006.37 6555.84c-0.95,1.86 -2.89,3.07 -5.83,3.63 -7.86,2.6 -12.08,8.27 -12.63,17.05 0.26,7.94 3.71,13.93 10.37,17.93 2.94,1.53 5.84,2.28 8.74,2.28 7.74,-0.09 13.64,-3.54 17.76,-10.37 -8.74,-8.85 -14.87,-19.02 -18.41,-30.52zm23.34 22.42c3.76,-12.4 5.61,-24.52 5.61,-36.42 -1.28,-20.81 -4.64,-35.28 -10.1,-43.39 -1.77,-1.95 -3.45,-2.92 -5.04,-2.92 -5.49,0 -8.56,8.8 -9.21,26.43 0,23.46 6.24,42.21 18.74,56.3zm-25.86 -33.1c-1.12,-6.97 -1.7,-13.32 -1.7,-19.05 1.39,-25.19 7.23,-38.04 17.49,-38.57 7.24,0 12.96,5.93 17.25,17.76 4.41,12.36 6.62,24.88 6.62,37.58 -0.14,13.82 -2.79,27.36 -7.99,40.56 2.86,3.34 6.28,5.04 10.31,5.13 2.37,0 4.47,-0.8 6.28,-2.41 2.39,-2.1 3.69,-5.22 3.96,-9.31 0.18,-3.39 1.15,-5.07 2.92,-5.07 1.68,0 2.52,1.35 2.52,4.03 0,5.22 -1.57,9.88 -4.69,14 -3.14,4.09 -7.47,6.19 -13,6.28 -4.32,0 -8.92,-1.68 -13.8,-5 -6.17,7.61 -14.2,11.5 -24.11,11.66 -2.15,0 -4.38,-0.18 -6.66,-0.58 -6.32,-1.13 -11.25,-4.09 -14.84,-8.93 -3.58,-4.85 -5.37,-10.13 -5.37,-15.88 0,-9.16 2.43,-16.63 7.34,-22.43 4.91,-5.77 10.73,-9.05 17.47,-9.77zm95.5 32.53c-1.17,-6.39 -1.81,-11.77 -1.95,-16.08 -4.02,-7.03 -9.08,-10.55 -15.23,-10.55 -5.27,0 -9.51,1.99 -12.72,5.99 -3.23,3.98 -4.84,9.16 -4.84,15.51 0,5.97 1.72,11.03 5.15,15.24 3.43,4.18 7.58,6.28 12.41,6.28 7.87,0 13.58,-5.47 17.18,-16.39zm2.46 12.05c-4.71,8.41 -11.68,12.63 -20.93,12.63 -7.05,0 -13.07,-2.94 -18.09,-8.82 -5,-5.87 -7.52,-12.94 -7.52,-21.19 0,-9.16 2.52,-16.46 7.52,-21.9 5.02,-5.44 11.04,-8.16 18.09,-8.16 7.04,0 13.07,2.86 18.07,8.56 0.6,-3.07 2.39,-4.6 5.38,-4.6 1.94,0 3.49,1.22 4.66,3.69 0.87,1.95 1.31,4.74 1.31,8.36 0,2.5 -0.22,5.42 -0.66,8.74 -0.38,2.94 -0.58,5.68 -0.58,8.23 0.04,12.83 3.12,19.24 9.2,19.24 3.07,0 5.62,-1.51 7.67,-4.56 2.06,-3.05 3.28,-7.08 3.68,-12.1 0.33,-4.18 1.54,-6.28 3.62,-6.28 1.99,0 2.99,1.93 2.99,5.78 0,1.5 -0.2,3.31 -0.6,5.44 -1.19,6.34 -3.51,11.05 -6.92,14.13 -3.43,3.05 -6.88,4.6 -10.37,4.6l-0.14 0c-3.58,-0.04 -6.87,-1.02 -9.9,-2.92 -3.03,-1.9 -5.18,-4.87 -6.48,-8.87zm117.9 15.68c-6.26,-4.8 -11.99,-7.21 -17.16,-7.21 -6.95,0.27 -10.64,3.14 -11.09,8.63 0.14,5.92 3.88,8.87 11.22,8.87 5.95,0 11.63,-3.43 17.03,-10.29zm-14.91 -107.64c1.17,15.4 16.76,23.64 46.8,24.75 25.1,-0.07 45.45,-7.48 61.08,-22.2 -17.54,-16.13 -40.2,-24.66 -68.03,-25.61 -16.96,0.66 -29.34,5.61 -37.11,14.9 -1.81,2.63 -2.74,5.35 -2.74,8.16zm113.79 9.93c-18.87,15.97 -41.36,24.02 -67.46,24.09 -18.22,-0.38 -31.93,-3.01 -41.13,-7.9 -9.2,-4.89 -14.24,-12.1 -15.11,-21.63 0,-4.2 1.13,-8.62 3.39,-13.29 8.75,-14.91 25.5,-22.36 50.2,-22.36 25.92,0.18 48.63,8.82 68.16,25.92 1.64,-3.85 2.46,-7.08 2.46,-9.71 -0.11,-1.61 -0.18,-2.81 -0.18,-3.63 0,-2.85 0.55,-5.21 1.68,-7.07 1.37,-2.28 3.34,-3.43 5.88,-3.43 4.38,0.18 6.55,2.63 6.55,7.39 0,6.43 -3.05,14.53 -9.2,24.28 10.04,13.4 15.04,31.54 15.04,54.43 -2.28,44.27 -24.62,67.27 -66.99,69.02 -17.45,-0.31 -32.62,-4.49 -45.49,-12.52 -7.21,8.56 -15.24,12.85 -24.11,12.9 -5.44,0 -9.82,-1.22 -13.14,-3.63 -3.93,-2.85 -5.9,-6.99 -5.9,-12.43 0.51,-11.63 7.05,-17.45 19.64,-17.49 6.21,0 13.04,2.92 20.52,8.8 3.76,-6.7 5.86,-15.24 6.28,-25.65 -0.11,-8.94 -2.06,-15 -5.79,-18.14 -3.74,-3.16 -5.71,-6.81 -5.93,-10.97 0.27,-4.18 2.52,-6.5 6.74,-6.92 5.27,0.09 9.14,3.74 11.59,10.95 1.4,4.35 2.08,9.73 2.08,16.07 -0.42,16.24 -3.4,29.4 -8.93,39.46 11.65,7.21 25.85,10.95 42.57,11.21 36.85,-1.75 56.31,-21.74 58.37,-60 0,-20.74 -3.92,-36.65 -11.79,-47.75zm76.05 68.54c0.18,-1.17 0.27,-2.39 0.27,-3.69 0,-6.17 -1.79,-11.44 -5.37,-15.77 -3.61,-4.34 -7.94,-6.53 -13.03,-6.53 -4.8,0.27 -7.19,2.41 -7.19,6.42 0.2,7.27 5.24,12.94 15.09,17.05 3.4,1.3 6.83,2.14 10.23,2.52zm-1.74 6.68c-8.21,-0.69 -15.06,-2.92 -20.55,-6.68 -6.35,-4.31 -10.08,-9.62 -11.21,-15.92 -1.97,3.58 -2.96,7.65 -2.96,12.23 0,6.19 1.79,11.45 5.37,15.81 3.58,4.36 7.89,6.55 12.96,6.55 7.25,0 12.72,-4.01 16.39,-11.99zm9.84 -6.41c3.43,0 6.52,-0.89 9.33,-2.66 2.81,-1.77 4.51,-3.98 5.13,-6.61 0.69,-2.12 1.73,-3.19 3.1,-3.19 1.64,0 2.48,0.91 2.48,2.72 -0.05,3.34 -1.95,6.82 -5.71,10.42 -3.76,3.61 -9.05,5.58 -15.81,5.93 -5.22,12.83 -13.78,19.24 -25.66,19.24 -7.56,0 -14.02,-2.94 -19.35,-8.82 -5.33,-5.87 -8,-12.94 -8,-21.19 0,-8.3 2.67,-15.37 8,-21.25 5.33,-5.87 11.79,-8.81 19.35,-8.81 7.57,0 14.02,2.94 19.38,8.81 5.35,5.88 8.02,12.95 8.02,21.25 0,1.44 -0.08,2.81 -0.26,4.16zm42.04 6.68c1.08,7.34 4.78,11.14 11.08,11.38 0.05,0 0.07,-0.02 0.07,-0.06 3.07,0 5.86,-1.62 8.34,-4.89 2.47,-3.25 3.87,-8.47 4.18,-15.63 0,-2.48 0.79,-3.7 2.38,-3.7 2.04,0 3.06,1.26 3.06,3.83 0,7.38 -1.68,13.8 -5.02,19.24 -3.34,5.44 -8.12,8.16 -14.29,8.16 -7.48,-0.04 -13.03,-3.58 -16.66,-10.64 -1.9,-3.67 -2.85,-7.92 -2.85,-12.76 0,-4.49 0.82,-9.51 2.46,-15.04 -3.67,3.12 -7.83,4.67 -12.5,4.67 -6.74,-0.51 -11.34,-3.83 -13.8,-9.98 -0.77,-2.45 -1.17,-4.66 -1.17,-6.61 0.86,-6.63 4.13,-10.15 9.8,-10.48 5.26,0.29 8.11,3.38 8.53,9.26 0,2.72 -0.84,6.02 -2.52,9.91 4.85,0 8.98,-2.1 12.45,-6.28 2.5,-3.03 4.78,-4.53 6.86,-4.53 3.03,0.2 4.53,1.92 4.53,5.11 0,1.72 -0.66,4.04 -2.01,6.94 -2.23,5.44 -3.36,10.86 -3.36,16.26 0,1.94 0.15,3.89 0.44,5.84zm66.81 -5.51c-1.17,-6.39 -1.81,-11.77 -1.94,-16.08 -4.03,-7.03 -9.09,-10.55 -15.24,-10.55 -5.26,0 -9.51,1.99 -12.72,5.99 -3.23,3.98 -4.84,9.16 -4.84,15.51 0,5.97 1.73,11.03 5.15,15.24 3.43,4.18 7.59,6.28 12.41,6.28 7.87,0 13.58,-5.47 17.18,-16.39zm2.46 12.05c-4.71,8.41 -11.68,12.63 -20.92,12.63 -7.06,0 -13.07,-2.94 -18.09,-8.82 -5,-5.87 -7.52,-12.94 -7.52,-21.19 0,-9.16 2.52,-16.46 7.52,-21.9 5.02,-5.44 11.03,-8.16 18.09,-8.16 7.03,0 13.07,2.86 18.07,8.56 0.59,-3.07 2.39,-4.6 5.37,-4.6 1.95,0 3.5,1.22 4.67,3.69 0.86,1.95 1.3,4.74 1.3,8.36 0,2.5 -0.22,5.42 -0.66,8.74 -0.38,2.94 -0.58,5.68 -0.58,8.23 0.05,12.83 3.12,19.24 9.2,19.24 3.08,0 5.62,-1.51 7.68,-4.56 2.06,-3.05 3.27,-7.08 3.67,-12.1 0.33,-4.18 1.55,-6.28 3.63,-6.28 1.99,0 2.98,1.93 2.98,5.78 0,1.5 -0.2,3.31 -0.6,5.44 -1.19,6.34 -3.51,11.05 -6.92,14.13 -3.43,3.05 -6.88,4.6 -10.37,4.6l-0.13 0c-3.58,-0.04 -6.88,-1.02 -9.91,-2.92 -3.03,-1.9 -5.18,-4.87 -6.48,-8.87z"/>
   </g>
  </g>
 </g>
</svg>
