<?xml version="1.0" encoding="UTF-8"?>
<!DOCTYPE svg PUBLIC "-//W3C//DTD SVG 1.1//EN" "http://www.w3.org/Graphics/SVG/1.1/DTD/svg11.dtd">
<!-- Creator: CorelDRAW 2021 (64 Bit) -->
<svg xmlns="http://www.w3.org/2000/svg" xml:space="preserve" width="100mm" height="100mm" version="1.1" shape-rendering="geometricPrecision" text-rendering="geometricPrecision" image-rendering="optimizeQuality" fill-rule="evenodd" clip-rule="evenodd"
viewBox="0 0 10000 10000"
 xmlns:xlink="http://www.w3.org/1999/xlink"
 xmlns:xodm="http://www.corel.com/coreldraw/odm/2003">
 <g id="Camada_x0020_1">
  <metadata id="CorelCorpID_0Corel-Layer"/>
  <rect fill="none" x="-3.84" y="3.78" width="10000" height="10000"/>
  <g id="_1489303175792">
   <g>
    <g>
     <path fill="#0A0608" d="M4023.08 2383.81c-46.04,25.08 -68.48,60.74 -55.46,126.34 9.58,48.31 60.5,87.32 121.83,63.48 101.76,-39.55 55.13,-256.01 -66.37,-189.82z"/>
     <path fill="#0A0608" d="M3204.01 2322.8c-101.16,56.28 -30.45,253.53 81.17,183.23 99.96,-62.95 29.01,-244.53 -81.17,-183.23z"/>
    </g>
    <g>
     <path fill="#62352C" d="M3867.55 2180.61c32.68,19.76 187.89,35.09 239.48,48.45 73.81,19.12 158.94,44.01 232.08,60.49 2.36,-116.18 -275.32,-177.07 -363.75,-186.55 -75.44,-8.09 -124.06,-6.89 -107.81,77.61z"/>
     <path fill="#62352C" d="M2975.15 2214.37c66.08,-2.6 160.79,-30.87 238.07,-40.1l242.58 -38.31c-2.68,-113.91 -110.58,-82.77 -266.85,-56.86 -47.32,7.85 -90.57,23.1 -128.44,42.08 -37.36,18.72 -82.96,40.19 -85.36,93.19z"/>
    </g>
    <g>
     <path fill="#5D332D" d="M2824.81 3145.8c-5.01,-31.21 -14.92,-42.32 -21.41,-71.57 -8.84,-39.88 1.5,-59.58 -12.56,-89.29 -35.68,-2.88 -35.61,-10.24 -51.44,-33.87 8.16,-30.56 7.52,-18.1 25.4,-39.96 -191.64,-85.13 -207.09,-480.66 -148.59,-557.26 32.05,-41.95 142.87,-64.13 160.05,89.19 6.54,58.27 19.71,73.24 21.79,128.2 62.87,7.36 20.83,-33.38 50.49,-193.96 17.08,-92.47 8.31,-136.99 53.87,-211.09 70.91,-115.33 148.8,-177.55 244.65,-280.39 162.72,-174.59 120.81,-259.93 365.92,-421.77 371.01,-244.98 652.99,57.18 801.29,335.01 32.18,60.3 53.69,117.27 71.08,190.06 11.09,46.44 46.3,141.97 55.63,203.5 3.18,20.95 2.49,33 7.94,54.08 32.55,126 12.81,325.1 13.6,456.94 38.42,-26.87 46.92,-51.18 64.14,-105.77l47.77 -121.8c90.41,-6.68 44.83,20.09 103.84,24.84 7.43,-10.45 2.12,3.1 6.43,-17.8 1.97,-9.55 1.7,-12.78 2.89,-22.12l58.86 -500.72c-1.07,-59.36 -24.76,-293.33 -46.65,-359.98 -49.1,-149.51 -117.07,-269.9 -240.39,-369.21 -71.14,-57.29 -135.2,-99.09 -220.24,-135.35l-36.12 -14.69c-152.63,-64.47 -140.37,-112.09 -334.56,-173.43l-79.7 -21.91c-20.46,-2.06 -25.37,0.38 -46.67,-4.13 -161.81,-34.23 -207.07,-6.4 -324.85,4.2 -58.11,5.22 -139.15,37.83 -195.59,58.4 -18.16,6.62 -18.25,6.15 -36.62,14.19 -27.67,12.11 -42.52,18.54 -68.86,32.73 -96.37,51.92 -147.49,84.49 -227.61,153.39l-103.1 100.1c-96.53,107.75 -165.47,218.66 -220.35,355.38 -0.77,1.9 -1.72,4.09 -2.47,6 -50.75,128.01 -63.73,231.21 -89.58,367.62 -14.46,76.26 11.43,96.73 -47.05,257.75 -21.34,58.76 -33.88,59.43 -62.29,149.38l-10.84 31.49c-2.82,11.22 -5.28,32.35 -6.95,43.85 -26.99,185.84 30.01,344.99 133.44,467.18 28.36,33.52 71.77,83.77 116.07,95.59l0 -84.66c24.77,18.15 35.27,50.84 53.47,82 76.95,131.78 65.06,192.34 65.06,366.73 39.01,0 46.72,6.62 82.42,-86.91 18.43,-48.28 26.18,-85.28 28.39,-150.16z"/>
     <path fill="#5D332D" d="M4081.25 3490.18c-53.04,86.48 -121.24,15.37 -173.57,229.61 -13.75,56.29 -26.04,106.7 -27.97,171.06 -2.68,88.76 10.27,113.79 18.42,186.24l1.05 22.89c6.89,8.44 3.27,-2.03 14.03,22.76 3.71,8.53 5.37,16.72 7.76,25.86l125.61 177.79c59,115.89 -50.57,175.11 -57.18,235.41 204.9,14.2 115.51,-75.23 197.8,-75.08 62.41,95.17 -30.4,225.66 -69.48,274.55 -72.48,90.7 -97.83,179.33 -93.02,300.46 37.69,-31.21 28.47,-41.03 58.89,-51.06l-0.09 82.46c2.32,0.74 4.28,1.17 4.87,2.7 0.59,1.56 4.02,1.17 4.77,1.05 1.29,-0.21 9.92,-3.08 12.55,-4.11 121.04,-231.07 122.67,-217.83 302.06,-346.45 250.89,-179.88 229.03,-264.36 332.45,-322.74 40.43,-48.15 63.42,24.12 66.26,-66.04 8.46,-268.2 -38.39,-233.91 -33.22,-339.67 -29.62,-36.56 -37.24,-74.2 -79.77,-125.27 -18.98,-22.78 -21.22,-21.66 -23.67,-44.06 44.91,0 50,-0.39 84.67,-8.47 -2.34,-28.02 -0.55,-24.96 -20.52,-38.75l-185.43 -110.91c-102.6,-83.61 -213.5,-235.83 -242.79,-367.67 -62.82,14.08 -163.82,158.52 -224.48,167.44z"/>
    </g>
    <g>
     <path fill="#F9BEA1" d="M3316.16 3128.87c24.4,-17.36 39.41,-11.6 39.47,-11.6 0.05,0 143.16,24.05 255.84,24.69l293.17 -17.78c-25.4,53.82 -202.75,76.88 -284.72,76.61 -63.69,-0.21 -194.15,-13.93 -248.81,-33.81 -54.93,-19.97 -44.26,-20.16 -54.95,-38.11zm425.5 -310.45c-124.39,129.83 -283.43,2.42 -260.08,-55.96 18.23,-7.41 23.4,-2.6 34.85,3.19 140.77,71.16 123.31,31.99 209.36,10.92l26.78 -0.42c1.16,-2.31 4.7,0.69 6.91,1.51 4.47,16.27 -7.12,29.59 -17.82,40.76zm281.42 -434.61c121.5,-66.19 168.13,150.27 66.37,189.82 -61.33,23.84 -112.25,-15.17 -121.83,-63.48 -13.02,-65.6 9.42,-101.26 55.46,-126.34zm-819.07 -61.01c110.18,-61.3 181.13,120.28 81.17,183.23 -111.62,70.3 -182.33,-126.95 -81.17,-183.23zm663.54 -142.19c-16.25,-84.5 32.37,-85.7 107.81,-77.61 88.43,9.48 366.11,70.37 363.75,186.55 -73.14,-16.48 -158.27,-41.37 -232.08,-60.49 -51.59,-13.36 -206.8,-28.69 -239.48,-48.45zm-892.4 33.76c2.4,-53 48,-74.47 85.36,-93.19 37.87,-18.98 81.12,-34.23 128.44,-42.08 156.27,-25.91 264.17,-57.05 266.85,56.86l-242.58 38.31c-77.28,9.23 -171.99,37.5 -238.07,40.1zm-210.35 696.74c64.99,-5.78 66.35,45.45 26.04,73.83 14.06,29.71 3.72,49.41 12.56,89.29 6.49,29.25 16.4,40.36 21.41,71.57 27.3,19.39 13.66,9.13 29.19,37.77 84.03,155.02 136.93,178.43 209.13,264.95l14.94 17.13c27.37,9.27 32.03,19.31 49.93,36.61 19.66,18.99 32.78,25.73 51.94,41.76 107.62,90.08 235.77,186.48 380.82,180.81 92.69,-3.62 218.16,-44.9 289.78,-85.64 29.25,-16.64 45.4,-11.92 65.29,-28.26 7.25,-5.95 89.03,-102.5 165.42,-120.75 60.66,-8.92 161.66,-153.36 224.48,-167.44 21.77,-88.9 73.37,-40.06 75.42,-228.57 1.36,-123.83 48.01,29.59 178.78,-125.97l26.81 -32.45c27.09,-35.65 79.11,-181.55 83.26,-221.54 3.79,-36.44 4.37,-30.69 11.89,-64.33 13.66,-61.02 -3.62,-92.18 -3.62,-148.99 -59.01,-4.75 -13.43,-31.52 -103.84,-24.84l-47.77 121.8c-17.22,54.59 -25.72,78.9 -64.14,105.77 -0.79,-131.84 18.95,-330.94 -13.6,-456.94 -5.45,-21.08 -4.76,-33.13 -7.94,-54.08 -9.33,-61.53 -44.54,-157.06 -55.63,-203.5 -17.39,-72.79 -38.9,-129.76 -71.08,-190.06 -148.3,-277.83 -430.28,-579.99 -801.29,-335.01 -245.11,161.84 -203.2,247.18 -365.92,421.77 -95.85,102.84 -173.74,165.06 -244.65,280.39 -45.56,74.1 -36.79,118.62 -53.87,211.09 -29.66,160.58 12.38,201.32 -50.49,193.96 -2.08,-54.96 -15.25,-69.93 -21.79,-128.2 -17.18,-153.32 -128,-131.14 -160.05,-89.19 -58.5,76.6 -43.05,472.13 148.59,557.26z"/>
     <path fill="#F9BEA1" d="M4105.69 5092.77l-66.75 131.94c-101.95,200.33 -84.24,185.38 -225.2,384.01 -35.32,49.77 1.37,99.6 30.39,140.82 24.43,34.7 64.68,85.21 92.48,110.57 53.94,49.18 172.29,139.03 268.26,138.9 36.22,-44.07 76.19,-94.76 119.46,-133.71 52.4,-47.16 254.35,-159.81 322.98,-192.87 67.19,-32.36 286.21,-151.13 320.62,-197.09 79.04,-105.57 -3.68,-76.71 74.64,-186.7 52.27,-73.42 -19.92,-135.4 12.44,-214.9 13.09,-32.14 29.68,-53.39 22.31,-94.56 -7.18,-40.11 -29.23,-63.12 -31.09,-110.93 136.39,-29.45 248.84,-87.19 426.99,-103.73 37.17,-3.45 77.42,-31.37 144.84,-30.25 31.39,-35.16 39.43,-5.75 152.4,-81.4l0 -50.8c-110.27,-73.84 -66.37,-30.54 -211.66,-44.42 -68.18,34.26 -119.63,25.03 -222.27,40.85 -21.96,3.39 -40.32,4.61 -59.5,8.1 -79.62,14.48 -171.25,43.81 -269,58.08 -70.89,10.36 -258.25,78.19 -300.86,77.77 -0.48,-40.36 12.56,-28.02 30.59,-66.63 34.07,-72.95 0.73,-3.12 36.26,-54.15l32.61 -62.05c0.26,-0.56 8.99,-25.47 9.22,-26.55 21.26,-100.15 -18.48,-111.41 -75.65,-109.49 -103.42,58.38 -81.56,142.86 -332.45,322.74 -179.39,128.62 -181.02,115.38 -302.06,346.45z"/>
     <path fill="#F9BEA1" d="M6784.71 5025.4c35.78,55.02 87.26,85.27 146.64,111.09 27.1,11.79 34.88,22.72 55.98,34.89 46.41,26.76 223.68,70.33 290.2,67.85 59.93,-130.48 214.03,-337.84 355.37,-366.46 137.46,-27.84 100.89,-12.79 229.11,-16.42 90.08,-2.55 167.43,-38.91 243.45,-84.95 7.57,-21.19 18.7,-31.14 35.26,-41.45 17.42,-10.85 28.4,-15.28 49.15,-28.92 30.7,-20.17 75.19,-38.55 109.41,-51.27 52.84,-19.65 200.19,-45.69 213.48,-97.55 -117.37,-31.84 -337.66,24.2 -431.35,56.74 -105.88,36.79 -395.77,-9.94 -430.09,-32.28 31.58,-18.95 207.65,4.91 269.67,4.22 86.51,-0.97 180.25,-3.66 256.01,-46.56l-72.87 -13.89c-4.08,-42.44 -14.93,-14.65 13.05,-26.3 58.18,-24.23 12.12,38.47 177.83,-51.96 18.15,-9.91 27.51,-13.14 45.13,-21.96 25.71,-12.87 61.15,-36.48 68.58,-63.68 -65.17,6.5 -163.15,59.22 -215.26,86.2 -113.07,58.54 -132.62,57.8 -247.07,57.73 -351.63,-0.21 -296.67,-49.26 -541.12,-76.95 -47.19,-5.34 -82.88,-13.68 -140.17,-3.22 -114.48,20.92 -142.94,44.43 -213.12,125.55l-66.86 94.01c-46.21,76.74 -47.19,66.26 -98.72,172.22 -15.36,31.59 -36.34,62.73 -52.86,99.53l-48.83 113.79z"/>
     <path fill="#F9BEA1" d="M3103.47 3735.22c40.88,103.28 -32.96,118.97 62.41,253.87l336.52 468.21c85.09,110.04 64.69,151.14 247.75,-122.01l115.58 -164.36c25.83,-31.91 29.39,-18.66 33.45,-70.95l-1.05 -22.89c-29.64,-11.42 -17.64,-4.41 -26.28,-33.78l-12.97 -127.35c1.82,-63.91 22.91,-112.29 22.09,-175.31 -42.5,8.73 -37.68,17.83 -109.89,48.26 -198.82,83.78 -258.5,52.92 -435.61,-38.49 -66.76,-34.46 -174.58,-157.58 -206.69,-223.67l-33.78 -0.74c0,34.05 -0.76,68.79 -0.34,102.73 0.6,48.11 8.81,56.19 8.81,106.48z"/>
    </g>
    <path fill="#E64E45" d="M2361.26 6964.85l-35.57 26.47c-31.11,29.92 -67.29,46.81 -99.86,77.68 -30.05,28.47 -57.9,65.42 -88.75,83.1 -1.58,-63.81 70.53,-173.47 113.36,-219.35 158.94,-170.27 121.19,-62.11 104.04,-188.57l-70.83 -426.24c-26.02,-124.29 -29.58,-326.41 -32.7,-454.34 -1.31,-53.92 0.91,-107.11 -0.78,-160.87l-12.38 -144.82c-8.88,-107.76 -10.62,-197.2 -24.23,-300.11 -18.27,-138.14 -58.7,-204.74 -57.2,-264.73 33.76,27.89 32.14,51.11 70.19,96.97 52.08,62.75 47.92,194.11 60.98,292.67 39.81,300.34 7.43,643.99 99.61,933.56 10.99,34.53 13.44,78.34 21.25,111.78 8.36,35.75 13.69,76.68 20.01,110.71 7.33,39.53 21.65,68.17 25.88,96.22 7.5,49.67 -1.76,65.89 22.66,108.72 42.83,1.66 59.79,-20.04 95.73,-37.62 15.76,-7.7 27.47,-13.05 43.61,-24.94 2,-1.48 7.41,-6.09 9.35,-7.57l13.98 -10.55c1.48,-0.91 3.63,-2.14 5.18,-3l90.37 -54.41c72.84,-42.41 194.1,-140.77 260.03,-199.19 1.85,-1.64 15.45,-14.39 17.15,-16.03l305.19 -279.48c17.67,-18.78 -2.54,0.6 16.35,-16.35 10.58,-9.49 8,-5.78 18.32,-15.63 57.29,-54.68 226.62,-240.8 290.05,-263.22 -3.69,38.43 -12.05,46.17 -33.29,71.59l-117.63 144.87c-1.21,1.49 -2.75,3.5 -3.92,5.02 -1.17,1.51 -2.57,3.63 -3.69,5.13l-13.61 18.8c-10.52,11.46 -10.44,8.51 -22.14,18.53l-392.62 404.01c-24.83,20.3 -20.93,21.7 -42.52,43.15 -74.66,74.18 -51.58,46.78 -144.22,117.31l-185.15 129.38c-47.23,34.05 -155.69,75.52 -253.79,143 -60.66,41.72 12.54,11.32 -68.41,48.35zm-138.32 1564.19l113.42 39.48c108.11,47.64 76.05,9.17 212.04,52.69l120.43 31.05c13.69,4.44 33.85,9.53 46.14,13 83.74,23.62 120.47,12.82 219.12,43.17l131.81 20.56c34.49,5.34 62.19,4.92 96.5,8.45 46.63,4.81 31.47,17.16 84.48,19.92 72.96,3.8 127.82,14.9 194.91,16.34 70.64,1.52 141.36,2.47 212.01,2.98 281.56,2 514.94,-31.47 763.31,-75.25 65.55,-11.56 462.22,-97.03 515.3,-121.01 40.95,-18.5 33.28,-12.68 82.24,-22.07 39.28,-7.53 40.73,-25.36 78.48,-31.17 -14.84,-51.43 -23.62,-126.82 -25.39,-191.33 -1.04,-38.21 -10.93,-66.24 -14.92,-95.15 -4.85,-35.14 0.36,-70.03 -4.28,-105.78 -19.52,-150.53 -48.76,-508.32 -28.4,-634.05 17.2,-106.23 89.83,-264.57 128.15,-371.38 2.38,-6.63 4.02,-11.91 6.59,-18.81 12.31,-33.04 39.24,-79.92 36.46,-112.55 -2.39,-58.88 3.82,-76.94 22.49,-122.93 0.77,-1.89 1.88,-3.97 2.64,-5.87l29.83 -85.49c3.79,-21.46 -1.35,-28.87 13.39,-57.11l29.62 -39.43c14.57,-22.18 17.83,-78.82 17.44,-113.16 -1.18,-104.6 7.41,-40.26 17.19,-100.65l2.07 -525.98c-3.43,-49.14 -14.37,-53.37 -15.8,-117.51 -1.96,-88.22 -14.41,-155.84 -11.89,-254.27 4.28,-166.65 13.48,-346.41 16.72,-507.9 32.37,81.43 40.69,643.81 85.2,735.32 19.06,39.18 10.26,-5.49 15.63,36.49 31.54,246.45 57.67,834.22 -9.55,1031.49 -1.63,27.77 28.06,55.84 56.64,104.3l170.44 252.9c62.89,92.47 168.03,233.48 242.42,316.38l99.94 111.72c136.5,135.27 258.92,241.8 446.89,146.29 18.45,-9.38 35.42,-19.79 51.92,-32.75l35.97 -31.76c66.63,-63.22 108.81,-116.24 159.05,-196.55 108.04,-172.72 170.76,-339 240.33,-530.14 8.61,-23.65 13.43,-43.42 20.48,-64.19 13.81,-40.71 29.38,-88.84 41.42,-127.91 6.84,-22.18 11.42,-46.03 17.84,-66.82l85.6 -346.2c4,-20.04 5.93,-50.03 11.84,-72.83l127.28 -727.85c6.17,-26.07 8.1,-47.3 13,-71.67 13.88,-69.04 50.15,-226.63 50.15,-294.82 -66.52,2.48 -243.79,-41.09 -290.2,-67.85 -21.1,-12.17 -28.88,-23.1 -55.98,-34.89 -59.38,-25.82 -110.86,-56.07 -146.64,-111.09 -27.17,23.12 -51.18,120.29 -66.04,160.81 -58.67,159.97 -62.62,238.45 -105.75,368.38l-360.7 756.9c-10.92,16.32 -10.75,20.29 -33.02,26.24 -8.67,-32.47 1.89,-0.11 -11,-22.87 -112.2,-198.19 -124.26,-221.65 -219.36,-432.58 -67.99,-150.8 -128.48,-353.13 -176.13,-509.66l-194.65 -638.35c-67.42,-1.12 -107.67,26.8 -144.84,30.25 -178.15,16.54 -290.6,74.28 -426.99,103.73 1.86,47.81 23.91,70.82 31.09,110.93 7.37,41.17 -9.22,62.42 -22.31,94.56 -32.36,79.5 39.83,141.48 -12.44,214.9 -78.32,109.99 4.4,81.13 -74.64,186.7 -34.41,45.96 -253.43,164.73 -320.62,197.09 -68.63,33.06 -270.58,145.71 -322.98,192.87 -43.27,38.95 -83.24,89.64 -119.46,133.71 -95.97,0.13 -214.32,-89.72 -268.26,-138.9 -27.8,-25.36 -68.05,-75.87 -92.48,-110.57 -29.02,-41.22 -65.71,-91.05 -30.39,-140.82 140.96,-198.63 123.25,-183.68 225.2,-384.01l66.75 -131.94c-2.63,1.03 -11.26,3.9 -12.55,4.11 -0.75,0.12 -4.18,0.51 -4.77,-1.05 -0.59,-1.53 -2.55,-1.96 -4.87,-2.7l0.09 -82.46c-30.42,10.03 -21.2,19.85 -58.89,51.06 -4.81,-121.13 20.54,-209.76 93.02,-300.46 39.08,-48.89 131.89,-179.38 69.48,-274.55 -82.29,-0.15 7.1,89.28 -197.8,75.08 6.61,-60.3 116.18,-119.52 57.18,-235.41l-125.61 -177.79c23.4,77.82 112.31,138.16 120.07,216.4l-14.77 7c-2.22,1.02 -4.64,2.09 -7.01,3.17 -2.22,1.02 -4.44,1.84 -6.64,2.86 -2.05,0.96 -4.25,1.73 -6.19,2.69 -11.91,5.84 -15.36,9.09 -24.79,15.46l-283.94 128.91c-185.83,66.64 -86.55,47.71 -207.82,-2.43l-170.25 -68.98c-32.15,-12.09 -41.87,-20.12 -75.24,-33.91 -79.01,-32.66 -63.61,-56.32 -168.92,-30.45 -49.04,12.04 -174.81,49.79 -186.08,20.52 -15.48,-40.2 -14.49,-70.06 -18.09,-112.11 -5.33,-62.22 -18.6,-180.01 -3.05,-242.28l26.14 -94.34 -44.92 -9.4c-141.31,60.15 -346.43,114.58 -505.05,162.25l-185.72 59.8c-162.16,54.97 -378.02,113.35 -511.48,216.66l-101.55 84.71c-109.82,104.09 -191.16,253.09 -203.02,406.58 -2.64,34.15 0.52,75.21 0.09,110.16 -0.59,48.05 -9.02,58.57 -9.09,109.44 -0.1,73.45 0.45,146.96 0.28,220.43 -0.38,164.47 20,480.4 35.17,633.7l41.82 288.38c18.27,88.42 15.71,111.44 44.42,226.51 13.41,53.71 7.5,61.57 34.72,134.61 12.74,34.19 11.91,53.63 23.89,86.18 20.69,56.23 37.16,108.69 57.01,163.12l138.33 301.93c53.73,107.46 186.62,340.39 253.49,415.38 16.81,18.85 10.09,9.64 21.62,29.19 25.72,43.61 118.38,143.94 153.92,184.74l139.9 139.72c12.24,30.96 -29.83,349.93 -29.88,402.2 -0.07,68.48 -19.4,135.07 -25.4,201.64z"/>
    <path fill="#21252D" d="M5093.13 8527.18c-37.75,5.81 -39.2,23.64 -78.48,31.17 -48.96,9.39 -41.29,3.57 -82.24,22.07 -53.08,23.98 -449.75,109.45 -515.3,121.01 -248.37,43.78 -481.75,77.25 -763.31,75.25 -70.65,-0.51 -141.37,-1.46 -212.01,-2.98 -67.09,-1.44 -121.95,-12.54 -194.91,-16.34 -53.01,-2.76 -37.85,-15.11 -84.48,-19.92 -34.31,-3.53 -62.01,-3.11 -96.5,-8.45l-131.81 -20.56c-98.65,-30.35 -135.38,-19.55 -219.12,-43.17 -12.29,-3.47 -32.45,-8.56 -46.14,-13l-120.43 -31.05c-135.99,-43.52 -103.93,-5.05 -212.04,-52.69l-113.42 -39.48 -19.17 134.78c-2.35,13.93 -10.11,32.88 -12.46,46.81l-46.81 317.26c-14.44,86.56 -28.27,110.53 -40.6,238.8 -3.86,40.22 -12.89,40.19 -16.34,85.26l-87.07 556.39c-4.02,28.74 -14.62,57.26 -14.62,95.45l3310.46 0c0,-101.77 -17.91,-177.66 -25.94,-278.86 -3.06,-38.68 -14.21,-51.59 -16.25,-93.81 -3.26,-67.01 -14.57,-130.33 -22.94,-188.73l-138.07 -915.21z"/>
    <path fill="#F47272" d="M2849.47 3951.71l44.92 9.4 -26.14 94.34c-15.55,62.27 -2.28,180.06 3.05,242.28 3.6,42.05 2.61,71.91 18.09,112.11 11.27,29.27 137.04,-8.48 186.08,-20.52 105.31,-25.87 89.91,-2.21 168.92,30.45 33.37,13.79 43.09,21.82 75.24,33.91l170.25 68.98c121.27,50.14 21.99,69.07 207.82,2.43l283.94 -128.91c9.43,-6.37 12.88,-9.62 24.79,-15.46 1.94,-0.96 4.14,-1.73 6.19,-2.69 2.2,-1.02 4.42,-1.84 6.64,-2.86 2.37,-1.08 4.79,-2.15 7.01,-3.17l14.77 -7c-7.76,-78.24 -96.67,-138.58 -120.07,-216.4 -2.39,-9.14 -4.05,-17.33 -7.76,-25.86 -10.76,-24.79 -7.14,-14.32 -14.03,-22.76 -4.06,52.29 -7.62,39.04 -33.45,70.95l-115.58 164.36c-183.06,273.15 -162.66,232.05 -247.75,122.01l-336.52 -468.21c-95.37,-134.9 -21.53,-150.59 -62.41,-253.87 -38.22,45.83 -115.51,70.01 -186.23,164.16 -20.44,27.22 -30.15,41.86 -67.77,52.33z"/>
    <path fill="#CB3B33" d="M2137.08 7152.1c30.85,-17.68 58.7,-54.63 88.75,-83.1 32.57,-30.87 68.75,-47.76 99.86,-77.68l35.57 -26.47c80.95,-37.03 7.75,-6.63 68.41,-48.35 98.1,-67.48 206.56,-108.95 253.79,-143l185.15 -129.38c92.64,-70.53 69.56,-43.13 144.22,-117.31 21.59,-21.45 17.69,-22.85 42.52,-43.15l392.62 -404.01c11.7,-10.02 11.62,-7.07 22.14,-18.53l13.61 -18.8c1.12,-1.5 2.52,-3.62 3.69,-5.13 1.17,-1.52 2.71,-3.53 3.92,-5.02l117.63 -144.87c21.24,-25.42 29.6,-33.16 33.29,-71.59 -63.43,22.42 -232.76,208.54 -290.05,263.22 -10.32,9.85 -7.74,6.14 -18.32,15.63 -18.89,16.95 1.32,-2.43 -16.35,16.35l-305.19 279.48c-1.7,1.64 -15.3,14.39 -17.15,16.03 -65.93,58.42 -187.19,156.78 -260.03,199.19l-90.37 54.41c-1.55,0.86 -3.7,2.09 -5.18,3l-13.98 10.55c-1.94,1.48 -7.35,6.09 -9.35,7.57 -16.14,11.89 -27.85,17.24 -43.61,24.94 -35.94,17.58 -52.9,39.28 -95.73,37.62 -24.42,-42.83 -15.16,-59.05 -22.66,-108.72 -4.23,-28.05 -18.55,-56.69 -25.88,-96.22 -6.32,-34.03 -11.65,-74.96 -20.01,-110.71 -7.81,-33.44 -10.26,-77.25 -21.25,-111.78 -92.18,-289.57 -59.8,-633.22 -99.61,-933.56 -13.06,-98.56 -8.9,-229.92 -60.98,-292.67 -38.05,-45.86 -36.43,-69.08 -70.19,-96.97 -1.5,59.99 38.93,126.59 57.2,264.73 13.61,102.91 15.35,192.35 24.23,300.11l12.38 144.82c1.69,53.76 -0.53,106.95 0.78,160.87 3.12,127.93 6.68,330.05 32.7,454.34l70.83 426.24c17.15,126.46 54.9,18.3 -104.04,188.57 -42.83,45.88 -114.94,155.54 -113.36,219.35z"/>
    <path fill="#E55145" d="M5015.58 4118.12c-74,-30.47 -48.95,-11.22 -97.18,-23.61 -47.11,-12.1 -9.08,-41.27 -104.92,-34.48 -7.07,59.65 8.73,48.59 15.46,86.21 6.07,33.87 -9.36,215.96 1.91,286.71 7.35,46.1 36.07,39.87 -7.53,151.83 -18.08,46.43 -29.07,45.66 -53.19,91.4l-5.39 10.51c-0.6,1.14 -2.07,3.9 -2.55,4.8l543.47 -113.59c78.99,-7.28 125.37,-7.4 199.04,-24.9 1.29,-102.71 -14.47,-65.72 -41.51,-100.59 -25.54,-32.94 6.19,-18.61 -40.39,-69.79 -45.81,-50.35 -13.47,-72.02 -77.37,-117.59 -36.26,-25.87 -58.54,-33.88 -99.37,-55.27 -14.71,-7.7 -9.22,-3.51 -24.15,-14.49 -55.43,-40.73 -84.23,-26.79 -200.27,-74.78 -1.9,-0.79 -4.17,-1.59 -6.06,-2.37z"/>
    <path fill="#C53932" d="M5191.34 6998.13c23.3,-20.08 40.28,-95.89 54.18,-135.48l59.28 -152.39c1.38,5.18 70.64,141.42 101.52,160.87 67.22,-197.27 41.09,-785.04 9.55,-1031.49 -5.37,-41.98 3.43,2.69 -15.63,-36.49 -44.51,-91.51 -52.83,-653.89 -85.2,-735.32 -3.24,161.49 -12.44,341.25 -16.72,507.9 -2.52,98.43 9.93,166.05 11.89,254.27 1.43,64.14 12.37,68.37 15.8,117.51l-2.07 525.98c-9.78,60.39 -18.37,-3.95 -17.19,100.65 0.39,34.34 -2.87,90.98 -17.44,113.16l-29.62 39.43c-14.74,28.24 -9.6,35.65 -13.39,57.11l-29.83 85.49c-0.76,1.9 -1.87,3.98 -2.64,5.87 -18.67,45.99 -24.88,64.05 -22.49,122.93z"/>
    <path fill="#F5BDA4" d="M8573.67 4356.54c-2.23,42.22 -2.11,36.17 -32.96,52.77 -82.58,44.45 -155.63,59.35 -161.47,98.17 61.98,3.51 137.3,-24.39 187.25,-47.13 1.89,-0.86 4.2,-1.83 6.05,-2.7l16.45 -8.44c1.44,-0.72 3.47,-2.02 4.92,-2.69l226.68 -79.61c13.63,-8.37 3.6,-8.38 24.85,-15.13 -5.24,56.32 -13.59,45.01 -62.05,62.77l-257.62 93.18c19.35,29.75 21.9,13.09 39.14,60.47 -32.47,62.1 -95.27,61.91 -165.32,87.52l-94.57 34.14c-14.94,5.57 -32.81,12.98 -47.75,20.41 -25.75,12.81 -13.02,9.65 -37.51,22.45 1.87,3.52 9.18,20.6 9.83,21.75 123.74,0 206.84,-36.93 299.56,-86.11 173.35,-91.93 253.12,-105.54 366.9,-166.49 87.24,-46.74 89,-87.88 0.29,-130.09 -29.27,-13.92 -49.68,-35.77 -91.34,-44.25 -46.25,-9.42 -165.7,29.01 -231.33,29.01z"/>
    <path fill="#E8AD95" d="M8105.46 4771.4c56.64,0 66.12,-16.93 124.13,-16.93 -0.65,-1.15 -7.96,-18.23 -9.83,-21.75 24.49,-12.8 11.76,-9.64 37.51,-22.45 14.94,-7.43 32.81,-14.84 47.75,-20.41l94.57 -34.14c70.05,-25.61 132.85,-25.42 165.32,-87.52 -17.24,-47.38 -19.79,-30.72 -39.14,-60.47l257.62 -93.18c48.46,-17.76 56.81,-6.45 62.05,-62.77 -21.25,6.75 -11.22,6.76 -24.85,15.13l-226.68 79.61c-1.45,0.67 -3.48,1.97 -4.92,2.69l-16.45 8.44c-1.85,0.87 -4.16,1.84 -6.05,2.7 -49.95,22.74 -125.27,50.64 -187.25,47.13 5.84,-38.82 78.89,-53.72 161.47,-98.17 30.85,-16.6 30.73,-10.55 32.96,-52.77l-164.95 0c-7.43,27.2 -42.87,50.81 -68.58,63.68 -17.62,8.82 -26.98,12.05 -45.13,21.96 -165.71,90.43 -119.65,27.73 -177.83,51.96 -27.98,11.65 -17.13,-16.14 -13.05,26.3l72.87 13.89c-75.76,42.9 -169.5,45.59 -256.01,46.56 -62.02,0.69 -238.09,-23.17 -269.67,-4.22 34.32,22.34 324.21,69.07 430.09,32.28 93.69,-32.54 313.98,-88.58 431.35,-56.74 -13.29,51.86 -160.64,77.9 -213.48,97.55 -34.22,12.72 -78.71,31.1 -109.41,51.27 -20.75,13.64 -31.73,18.07 -49.15,28.92 -16.56,10.31 -27.69,20.26 -35.26,41.45z"/>
    <path fill="#DAA288" d="M3095 3526.01l33.78 0.74c32.11,66.09 139.93,189.21 206.69,223.67 177.11,91.41 236.79,122.27 435.61,38.49 72.21,-30.43 67.39,-39.53 109.89,-48.26 0.82,63.02 -20.27,111.4 -22.09,175.31l12.97 127.35c8.64,29.37 -3.36,22.36 26.28,33.78 -8.15,-72.45 -21.1,-97.48 -18.42,-186.24 1.93,-64.36 14.22,-114.77 27.97,-171.06 52.33,-214.24 120.53,-143.13 173.57,-229.61 -76.39,18.25 -158.17,114.8 -165.42,120.75 -19.89,16.34 -36.04,11.62 -65.29,28.26 -71.62,40.74 -197.09,82.02 -289.78,85.64 -145.05,5.67 -273.2,-90.73 -380.82,-180.81 -19.16,-16.03 -32.28,-22.77 -51.94,-41.76 -17.9,-17.3 -22.56,-27.34 -49.93,-36.61 8.11,19.08 14.74,35.09 16.93,60.36z"/>
    <path fill="#D26857" d="M4813.48 4060.03c95.84,-6.79 57.81,22.38 104.92,34.48 48.23,12.39 23.18,-6.86 97.18,23.61 1.89,0.78 4.16,1.58 6.06,2.37 116.04,47.99 144.84,34.05 200.27,74.78 14.93,10.98 9.44,6.79 24.15,14.49 40.83,21.39 63.11,29.4 99.37,55.27 63.9,45.57 31.56,67.24 77.37,117.59 46.58,51.18 14.85,36.85 40.39,69.79 27.04,34.87 42.8,-2.12 41.51,100.59 -73.67,17.5 -120.05,17.62 -199.04,24.9l-543.47 113.59c0.48,-0.9 1.95,-3.66 2.55,-4.8l5.39 -10.51c24.12,-45.74 35.11,-44.97 53.19,-91.4 43.6,-111.96 14.88,-105.73 7.53,-151.83 -11.27,-70.75 4.16,-252.84 -1.91,-286.71 -6.73,-37.62 -22.53,-26.56 -15.46,-86.21zm-73.28 363.55c57.17,-1.92 96.91,9.34 75.65,109.49 -0.23,1.08 -8.96,25.99 -9.22,26.55l-32.61 62.05c-35.53,51.03 -2.19,-18.8 -36.26,54.15 -18.03,38.61 -31.07,26.27 -30.59,66.63 42.61,0.42 229.97,-67.41 300.86,-77.77 97.75,-14.27 189.38,-43.6 269,-58.08 19.18,-3.49 37.54,-4.71 59.5,-8.1 102.64,-15.82 154.09,-6.59 222.27,-40.85 -58.64,-94.62 -87.73,-208.64 -183.9,-305.08 -35.86,-35.96 -56.15,-42.75 -98.81,-70.53 -50.36,-32.8 -170.48,-80.03 -231.53,-98.67l-132.14 -37.19c-42.48,-12.24 -95.16,-28.31 -139.18,-28.31 -5.17,105.76 41.68,71.47 33.22,339.67 -2.84,90.16 -25.83,17.89 -66.26,66.04z"/>
    <path fill="#D1937A" d="M3316.16 3128.87c10.69,17.95 0.02,18.14 54.95,38.11 54.66,19.88 185.12,33.6 248.81,33.81 81.97,0.27 259.32,-22.79 284.72,-76.61l-293.17 17.78c-112.68,-0.64 -255.79,-24.69 -255.84,-24.69 -0.06,0 -15.07,-5.76 -39.47,11.6z"/>
    <path fill="#DB9D83" d="M3481.58 2762.46c-23.35,58.38 135.69,185.79 260.08,55.96 10.7,-11.17 22.29,-24.49 17.82,-40.76 -2.21,-0.82 -5.75,-3.82 -6.91,-1.51l-26.78 0.42c-86.05,21.07 -68.59,60.24 -209.36,-10.92 -11.45,-5.79 -16.62,-10.6 -34.85,-3.19z"/>
   </g>
   <g>
    <g>
     <g>
      <g>
       <path fill="#64365C" d="M7451.08 3104.87c4.56,-1.38 15.54,1.79 10.17,-10.48 -4.34,-9.95 -5.18,-4.24 -10.68,-2.83 -4.47,10.42 -6.33,-0.07 0.51,13.31z"/>
       <path fill="#64365C" d="M8275.23 3205.85c33.51,6.99 -4.09,-35.05 0,0z"/>
      </g>
      <g>
       <path fill="#935C25" d="M7733.98 2543.35c18.82,-20.83 -1.62,-9.01 34.67,-50.93 4.66,-5.39 2.69,-3 6.99,-9.14 -26.6,6.62 -40.89,28.11 -41.66,60.07z"/>
       <path fill="#935C25" d="M7742.55 2685.78c-29.49,-26.94 -18.78,-7.97 -42.73,-44.66l-8.81 -12.32c3.4,33.83 19.94,51.55 51.54,56.98z"/>
       <path fill="#935C25" d="M7681.82 2419.41c24.97,-10.32 17.44,-12.84 50.65,-17.53 14.66,-2.07 10.66,-0.22 21.25,-5.96 -33.99,-7.64 -57.76,0.76 -71.9,23.49z"/>
       <path fill="#935C25" d="M7885.33 2504.19l12.19 -11.87c5.94,-6.9 4.99,-6.62 12.94,-12.97l24.25 -14.5c5.64,-3.71 5.51,-4.22 8.84,-7.3 -32.93,3.75 -51.51,17.65 -58.22,46.64z"/>
       <path fill="#935C25" d="M8146.51 2749.61c33.66,9.91 53.79,-8.62 67.28,-28.5 -23.58,15.01 -36.18,19.64 -67.28,28.5z"/>
       <path fill="#935C25" d="M7624.37 2645.34c-13.59,-21 -31.86,-35.39 -66.53,-31.26 15.97,10.09 22.92,4.34 48.86,20.79 9.89,6.26 6.72,5.46 17.67,10.47z"/>
      </g>
      <g>
       <path fill="#9A6428" d="M7661.25 2504.55c4.53,24.72 -13.16,43.36 -32.17,54.86 2.8,3.12 -5.62,13.98 17.89,1.65 21.9,-11.49 24.41,-43.11 23.72,-64.88 -0.79,1.16 -2.71,0.99 -3.15,2.79 -3.94,15.74 1.82,-2.51 -6.29,5.58z"/>
       <path fill="#9A6428" d="M7447.81 2396.27c15.32,7.83 29.36,7.78 47.43,-0.31 21.93,-9.82 21.4,-8.81 29.35,-30.43 -32.49,16.94 -24.3,23.46 -76.78,30.74z"/>
       <path fill="#9A6428" d="M7438.8 2675.3c-6.18,-39.83 -7.81,-40.87 -3.83,-83.06 -20.2,23 -17.85,63.02 3.83,83.06z"/>
       <path fill="#9A6428" d="M7841.25 2388.41c0.76,-8.46 -5.82,-4.17 3.31,-6.7 0,0 -0.08,-18.08 -16.51,2.28 -2.97,3.69 -8.41,13.88 -10.42,19.92 -5.75,17.33 -5.95,32.82 3.06,46.63 1.23,-24.72 1.17,-48.91 20.56,-62.13z"/>
       <path fill="#9A6428" d="M7498.41 2527.73c3.02,8 -5.08,-2.49 3.57,5.56 3.88,3.6 4.28,2.46 9.63,7.28 11.19,10.07 8.16,6.44 9.92,19.68l9.73 4.27c-1.6,-31.25 -27.69,-50.88 -60.92,-54.97 3.82,3.74 2.83,3.75 8.44,7.71l19.63 10.47z"/>
       <path fill="#9A6428" d="M7922.58 2770.99c4.02,-5.78 20.49,-17.5 31.23,-24.2 6.98,-4.34 12.39,-6.77 19.95,-9.96 2.4,-1.01 7.4,-2.74 9.31,-3.65 1.26,-0.61 5.21,-2.61 6.29,-3.23l6.02 -4.29c-38.35,-0.9 -70.37,23.85 -72.8,45.33z"/>
       <path fill="#9A6428" d="M7596.48 2493.66c-11.29,-7.23 -20.99,-9.34 -30.97,-15.19 -18.09,-10.6 -6.19,-11 -30.15,-20.88 10.94,34.63 47.16,42.05 61.12,36.07z"/>
       <path fill="#9A6428" d="M8161.3 2619.36c8.65,5.53 23.68,10.61 34.75,16.27 15.63,7.99 17.07,14.2 30.41,21.5 -9.78,-30.49 -31.46,-39.91 -65.16,-37.77z"/>
       <path fill="#9A6428" d="M7783.88 2747.37c13.25,-7.1 16.53,-17.45 31.38,-27.29 7.63,-5.05 24.79,-12.77 34.82,-17.14 -36.75,-4.22 -57.34,18.11 -66.2,44.43z"/>
       <path fill="#9A6428" d="M7953.12 2628.28c17.6,-15.15 11.44,-18.83 23.4,-31.13l23.05 -23.6c-24.39,0.48 -44,27.26 -46.45,54.73z"/>
      </g>
      <g>
       <path fill="#B99966" d="M8254.08 2633.5l18.55 1.67c-1.28,-26.25 -5.14,-20.89 -13.56,-42.5l9.38 -9.26c19.8,-17.56 36.07,-35.27 0.69,-61.1 7.54,50.71 -11.77,26.68 -30.88,52.88 -15.78,21.63 5.79,42.64 15.82,58.31z"/>
       <path fill="#B99966" d="M8275.29 2491.16c36.09,6.85 38.26,-7.65 49.16,-32.19 12.7,-28.57 33.87,-25.06 42.03,-40.7 -72.75,-10.05 -63.64,36.49 -72.61,53.16 -6.57,12.22 -13.9,10.79 -18.58,19.73z"/>
       <path fill="#B99966" d="M8060.99 2429.5c6.83,-10.36 8.63,-10.39 14.9,-23.28 3.35,-51.39 -1.65,-30.76 29.88,-54.62 -22.89,-12.96 -49.14,-0.12 -53.74,23.47 -8.45,43.41 6.56,27.72 -23.1,59.52l32.06 -5.09z"/>
       <path fill="#B99966" d="M8108.65 2291.33c11.12,-13.76 45.92,-37.29 18.28,-69.41l-7.68 18.55c-6.94,14.38 -24.03,27.6 -35.46,37.57 0.65,32.62 12.47,40.99 40.58,49.5 -8.52,-15.94 -12.11,-17.72 -15.72,-36.21z"/>
       <path fill="#B99966" d="M8239.9 2512.33c-0.99,-0.81 -2.62,-3.05 -3.23,-2.06 -0.6,0.97 -2.44,-1.53 -3.28,-1.9l-6.72 -2.86c-48.15,-18.29 -28.84,-49.04 -86.36,-45.89 49.14,51.79 49.67,78.17 99.59,52.71z"/>
       <path fill="#B99966" d="M8135.52 2344.14c10.47,-9.04 13.12,-13.24 27.19,-17.07 -0.04,-0.04 0.18,-19.86 -25.2,1.04 -21.42,17.65 -7.86,12.99 -1.99,16.03z"/>
      </g>
      <g>
       <path fill="#DB9B42" d="M7447.81 2396.27c52.48,-7.28 44.29,-13.8 76.78,-30.74 -7.95,21.62 -7.42,20.61 -29.35,30.43 -18.07,8.09 -32.11,8.14 -47.43,0.31zm-18.01 -16.22l2.72 31.31 18.08 9.77c7.12,3.08 13.11,4.71 21.9,5.44 16.19,1.35 32.21,-1.3 44.25,-9.43 33.36,-22.5 18.8,-39.58 22.52,-73.34 -18.19,-10.57 -37.03,-26.03 -68.23,-11.04 -19.32,9.28 -33.51,24.83 -41.24,47.29z"/>
       <path fill="#DB9B42" d="M7615.33 2485.32c-4.83,15.57 -7.05,10.1 -15.11,30.19 -1.28,20.83 -4.04,37.62 3.57,49.77 12.28,1.46 -0.27,-7.68 15.18,4.97 8.91,-18.73 3.02,-5.37 10.11,-10.84 19.01,-11.5 36.7,-30.14 32.17,-54.86l-3.52 -31.85c-20.04,-5.14 -28.97,5.62 -42.4,12.62z"/>
       <path fill="#DB9B42" d="M7877.23 2636.42c12,-17.78 34.16,-19.94 33.93,-52.38 -5.14,7.31 2.07,-1.91 -18.96,1.82 -15.48,2.74 -63.73,-1.44 -87.3,27.87 37.05,29.31 57.12,19.82 72.33,22.69z"/>
       <path fill="#DB9B42" d="M7844.56 2381.71c-9.13,2.53 -2.55,-1.76 -3.31,6.7 -4.74,24.91 -14.87,25.99 -15.63,53.59 29.15,24.73 38.48,4.62 47.37,0.02l3.78 -1.24c5.76,-22.39 10.76,-60.38 -8.25,-71.98l-17.21 -5.27c-0.07,0.39 0.48,0.86 0.44,1.86 -0.75,16.63 -0.3,11.27 -7.19,16.32z"/>
       <path fill="#DB9B42" d="M7462.15 2552.36c2.86,10.45 0.45,8.6 11.71,17.65 13.17,10.57 5.68,6 16.59,7.67 20.88,-0.06 48.23,18.61 31.08,-17.43 -1.76,-13.24 1.27,-9.61 -9.92,-19.68 -5.35,-4.82 -5.75,-3.68 -9.63,-7.28 -8.65,-8.05 -0.55,2.44 -3.57,-5.56 -11.68,3.79 16.85,13.87 -21.48,0.39 -0.03,20.58 2.07,5.42 -3.05,5.72l-9.9 -1.11c-0.67,-1.49 -2.88,-0.63 -5.18,-0.1l3.35 19.73z"/>
      </g>
      <g>
       <path fill="#D69947" d="M7575.95 2342.2c-1.79,32.14 -8.34,60.07 10.77,80.67 21.03,10.93 43.9,-2.52 58.19,-19.52 17.85,-21.24 8.54,-46.12 10.75,-73.63 -12.64,-16.23 -9.22,-27.05 -23.14,-42.52 -37.01,-2 -40.84,29.4 -56.57,55z"/>
       <path fill="#D69947" d="M8043.74 2625.2c-51.99,35.28 4.86,97.82 7.15,102.29l12.74 3.99c34.11,15.3 51.52,-16.41 55.81,-42.44 5.46,-33.24 -6.57,-52.49 -29.82,-65.71l13.4 -2.18 -53.21 -3.03 -6.07 7.08z"/>
       <path fill="#D69947" d="M7248.78 2630.78c-6.93,23.96 -25.67,26.64 7.56,56.74 29.31,10 39.92,19.23 73.35,3.37 21.08,-10 44.11,-20 51.55,-42.26 -8.62,-47.94 -96.14,-33.2 -132.46,-17.85z"/>
       <path fill="#D69947" d="M7571.64 2691.23c-10.73,14.08 -25.61,17.74 -12.11,42.3 4.44,8.09 24.13,26.49 35.01,30.43 37.32,13.5 83.63,-15.79 102.88,-26.23 3.76,-56.33 -79.14,-57.64 -125.78,-46.5z"/>
       <path fill="#D69947" d="M7438.8 2675.3c-21.68,-20.04 -24.03,-60.06 -3.83,-83.06 -3.98,42.19 -2.35,43.23 3.83,83.06zm37.01 -56.82c-3.16,-32.33 -11.87,-54.45 -46.23,-51.55 -18.87,18.88 -41.52,29.32 -34.33,72.42 4.97,29.75 22.44,59.05 42.91,70.44 31.55,-8.34 44.49,-54.06 37.65,-91.31z"/>
       <path fill="#D69947" d="M7922.58 2770.99c2.43,-21.48 34.45,-46.23 72.8,-45.33l-6.02 4.29c-1.08,0.62 -5.03,2.62 -6.29,3.23 -1.91,0.91 -6.91,2.64 -9.31,3.65 -7.56,3.19 -12.97,5.62 -19.95,9.96 -10.74,6.7 -27.21,18.42 -31.23,24.2zm-24.6 -6.15c-8.83,3.83 -5.55,15.03 -3.29,25.78 23.47,11.53 52.79,7.98 78.36,-3.17 30.64,-13.37 31.8,-23.76 51.12,-44.13l-0.49 -23.06c-60.52,-45.18 -108.47,-1.96 -125.7,44.58z"/>
       <path fill="#D69947" d="M7448.8 2546.76l13.35 5.6 -3.35 -19.73c2.3,-0.53 4.51,-1.39 5.18,0.1l9.9 1.11c5.12,-0.3 3.02,14.86 3.05,-5.72 38.33,13.48 9.8,3.4 21.48,-0.39l-19.63 -10.47c-5.61,-3.96 -4.62,-3.97 -8.44,-7.71 33.23,4.09 59.32,23.72 60.92,54.97l-9.73 -4.27c17.15,36.04 -10.2,17.37 -31.08,17.43 11.21,15.63 28.45,19.35 50.97,14.27 21.63,-22.98 14.31,-59.71 -8.93,-80.7 -21.12,-19.09 -56.44,-30.67 -90,-27.13 -17.58,29.55 3.08,37.43 6.31,62.64z"/>
       <path fill="#D69947" d="M7826.6 2356.97c-17.16,11.28 -23.35,16.37 -34.27,32.83 -12.98,30.85 -4.83,61.12 16.3,73.54 31.77,18.68 54.29,5.68 64.36,-21.32 -8.89,4.6 -18.22,24.71 -47.37,-0.02 0.76,-27.6 10.89,-28.68 15.63,-53.59 -19.39,13.22 -19.33,37.41 -20.56,62.13 -9.01,-13.81 -8.81,-29.3 -3.06,-46.63 2.01,-6.04 7.45,-16.23 10.42,-19.92 16.43,-20.36 16.51,-2.28 16.51,-2.28 6.89,-5.05 6.44,0.31 7.19,-16.32 0.04,-1 -0.51,-1.47 -0.44,-1.86l17.21 5.27c-4.89,-8.21 -4.55,-13.49 -18.13,-16 -9.87,-1.82 -17.69,1.79 -23.79,4.17z"/>
       <path fill="#D69947" d="M7661.25 2504.55c8.11,-8.09 2.35,10.16 6.29,-5.58 0.44,-1.8 2.36,-1.63 3.15,-2.79 0.69,21.77 -1.82,53.39 -23.72,64.88 -23.51,12.33 -15.09,1.47 -17.89,-1.65 -7.09,5.47 -1.2,-7.89 -10.11,10.84 -15.45,-12.65 -2.9,-3.51 -15.18,-4.97 10.84,23.4 22.1,26.24 50.71,16.33 21.76,-6.77 33.93,-24.75 42.74,-44.93 1.22,-36.2 -10.73,-55.44 -39.51,-63.98l3.52 31.85z"/>
      </g>
      <g>
       <path fill="#4A0B35" d="M7847.1 2678.3c11.08,9.74 17.77,2.92 19.87,26.85 1.27,14.6 -7.1,29.84 -11.17,42.47l16.07 -7.56c7.78,-2.44 -8.45,-11.37 11.57,-0.62 3.3,1.77 5.46,7.91 6.46,9.8l8.08 15.6c17.23,-46.54 65.18,-89.76 125.7,-44.58l0.49 23.06c9.76,-11.26 7.94,14.7 8.06,-14.45l18.66 -1.38c-2.29,-4.47 -59.14,-67.01 -7.15,-102.29 -1.18,-0.72 -2.77,-1.23 -3.83,-1.59 -1.05,-0.37 -2.54,-1.1 -3.84,-1.5 -1.28,-0.4 -2.45,-0.88 -3.88,-1.26l-22.07 -2.37c-7.29,1.56 -17.16,17.41 -33.66,26.39 -54.78,29.85 -39.93,-38.57 -40.16,-46.54 -8.3,-8.2 -7.23,5.52 -8.91,35.25 -48.11,20.26 -39.14,21.05 -67.13,33.32 -17.22,7.55 -10.78,-2.1 -13.16,11.4z"/>
       <path fill="#4A0B35" d="M8063.63 2731.48c-1.56,1.53 -5.37,0.59 -5.42,3.68l-0.13 8.16c21.93,7.57 19.01,1.12 35.41,4.44 13.96,2.82 6.8,0.82 14.85,8.59 19.55,18.87 -14.24,1.66 14.27,14.35 6.9,-2.98 0.49,0.58 1.97,-8.79 -13.96,-45.04 78.68,-86.02 105.53,-52.42 11.63,17.88 -9.6,36.8 -16.73,48.78 12.31,11.19 13.16,-10.16 25.48,10.92l5.35 -47.33c0.84,-29.31 0.94,-21.55 33.42,-21.55 0,-6.54 0.73,-18.43 0.04,-24.33l-8.65 -27.33c10.34,0 40.42,-4.29 43.02,4.27 -9.72,0 -21.24,0.71 -30.68,-0.74l-7.87 -1.71c-1.29,-0.34 -2.35,-0.7 -3.54,-1.08l-11.71 -5.08c55.47,-12.02 28.6,-2.67 92.55,-4.44 10.04,-16.85 1.67,-2.59 -1.69,-7.81l-76.47 3.11 -18.55 -1.67 -14.99 -3.4c4.5,15.24 11.8,25.49 8.45,44.97 -48.06,24.09 -92.49,-17.05 -105.49,-52.22l-39.03 -1.7 -13.4 2.18c23.25,13.22 35.28,32.47 29.82,65.71 -4.29,26.03 -21.7,57.74 -55.81,42.44z"/>
      </g>
      <g>
       <path fill="#DDAB5A" d="M7783.88 2747.37c8.86,-26.32 29.45,-48.65 66.2,-44.43 -10.03,4.37 -27.19,12.09 -34.82,17.14 -14.85,9.84 -18.13,20.19 -31.38,27.29zm-84.06 -106.25c23.95,36.69 13.24,17.72 42.73,44.66 -31.6,-5.43 -48.14,-23.15 -51.54,-56.98l8.81 12.32zm-12 -31.39c-17.95,8.67 -24.53,18.57 -19.95,45.97 2.9,17.39 12.36,30.28 21.62,38.72 44.24,40.35 72.21,6.57 87.68,0.18 -17.98,23.48 -22.25,31.71 -17.65,65.94l1.65 4.3c12.38,9.8 25.32,32.02 53.06,23.29 10.71,-3.37 18.44,-12.87 24.13,-19.23 7.82,-8.72 11.62,-17.02 17.44,-21.28 4.07,-12.63 12.44,-27.87 11.17,-42.47 -2.1,-23.93 -8.79,-17.11 -19.87,-26.85 -38.35,-4.71 -43.82,0.89 -71.5,16.83 11.53,-39.04 5.47,-51.58 -22.1,-69.16 -13.92,-8.87 -49.27,-25.71 -65.68,-16.24z"/>
       <path fill="#DDAB5A" d="M7681.82 2419.41c14.14,-22.73 37.91,-31.13 71.9,-23.49 -10.59,5.74 -6.59,3.89 -21.25,5.96 -33.21,4.69 -25.68,7.21 -50.65,17.53zm-0.59 -47.27c-6.51,8.72 0.87,-0.71 -7.12,8.13 -1.38,1.54 -4.5,4.6 -6.7,7.19 -11.18,13.15 -15.91,28.96 -11.43,47.58 18.77,77.9 135.36,-1.84 113.2,-48.3l-8.43 -13.43c-58.66,-16.68 -32.53,-6.35 -79.52,-1.17z"/>
       <path fill="#DDAB5A" d="M7733.98 2543.35c0.77,-31.96 15.06,-53.45 41.66,-60.07 -4.3,6.14 -2.33,3.75 -6.99,9.14 -36.29,41.92 -15.85,30.1 -34.67,50.93zm-29.01 6.25c8.73,11.78 9.14,17.99 24.94,27.02 14.26,8.14 31.13,9.53 45.09,0.03 21.04,-14.3 29.77,-60.62 22.86,-93.57 -21.55,-48.5 -101.04,-11.52 -92.89,66.52z"/>
       <path fill="#DDAB5A" d="M7885.33 2504.19c6.71,-28.99 25.29,-42.89 58.22,-46.64 -3.33,3.08 -3.2,3.59 -8.84,7.3l-24.25 14.5c-7.95,6.35 -7,6.07 -12.94,12.97l-12.19 11.87zm1.83 -57.28c-39.65,30.24 -45.24,86.28 11.6,100.1 36.88,4.81 50.47,-39.83 65.17,-67.3 2.21,-18.51 -3.4,-28.07 -6.66,-42.2 -27.53,-0.56 -46.83,-11.96 -70.11,9.4z"/>
       <path fill="#DDAB5A" d="M7624.37 2645.34c-10.95,-5.01 -7.78,-4.21 -17.67,-10.47 -25.94,-16.45 -32.89,-10.7 -48.86,-20.79 34.67,-4.13 52.94,10.26 66.53,31.26zm-87.16 -26.84c4.84,44.34 117.57,79.24 110.68,27.4 -6.99,-52.62 -115.82,-74.54 -110.68,-27.4z"/>
       <path fill="#DDAB5A" d="M8146.51 2749.61c31.1,-8.86 43.7,-13.49 67.28,-28.5 -13.49,19.88 -33.62,38.41 -67.28,28.5zm-21.93 12.3c27.11,30.36 84.59,-2.75 88.8,-3.64 7.13,-11.98 28.36,-30.9 16.73,-48.78 -26.85,-33.6 -119.49,7.38 -105.53,52.42z"/>
       <path fill="#DDAB5A" d="M7953.12 2628.28c2.45,-27.47 22.06,-54.25 46.45,-54.73l-23.05 23.6c-11.96,12.3 -5.8,15.98 -23.4,31.13zm-16.82 -29.95c0.23,7.97 -14.62,76.39 40.16,46.54 16.5,-8.98 26.37,-24.83 33.66,-26.39 6.31,-18.24 18.31,-38.58 9.84,-60.25 -15.49,-12.57 -34.01,-6.69 -49.33,2.95 -12.96,8.17 -21.22,21.25 -29.64,31.76l-4.69 5.39z"/>
       <path fill="#DDAB5A" d="M8161.3 2619.36c33.7,-2.14 55.38,7.28 65.16,37.77 -13.34,-7.3 -14.78,-13.51 -30.41,-21.5 -11.07,-5.66 -26.1,-10.74 -34.75,-16.27zm-19.25 3.49c13,35.17 57.43,76.31 105.49,52.22 3.35,-19.48 -3.95,-29.73 -8.45,-44.97 -12.71,-11.78 -20.16,-21.59 -44.64,-27.75 -25.11,-6.31 -48.63,-7.38 -52.4,20.5z"/>
       <path fill="#DDAB5A" d="M7596.48 2493.66c-13.96,5.98 -50.18,-1.44 -61.12,-36.07 23.96,9.88 12.06,10.28 30.15,20.88 9.98,5.85 19.68,7.96 30.97,15.19zm3.74 21.85c8.06,-20.09 10.28,-14.62 15.11,-30.19 -13.5,-34.08 -53.46,-65.36 -100.86,-49.08 -5.11,25.06 6.46,47.45 20.35,59.82 15.83,14.1 39.09,18.85 65.4,19.45z"/>
      </g>
      <g>
       <path fill="#E7E5E5" d="M7767.99 3530.79c-15.28,-43.79 -53.9,-28.66 -89.54,-37.92 -37.83,-9.83 -36.2,-41.39 -87.67,-3.4 -35.07,25.88 -55.56,24.54 -99.16,10.1 -54.6,-18.08 -182.82,29.2 -44.83,69.83 28.7,8.45 83.81,-2.88 109.02,-11.71 47.55,-16.66 56.24,-16.03 110.4,-9.27 29.5,3.68 89.02,7.08 101.78,-17.63z"/>
       <path fill="#E7E5E5" d="M8001.28 3462.31c12.24,54.14 126.73,82.29 169.95,39.96 26.91,-26.35 28.83,-46.46 83.15,-29.56 48.01,14.94 154.54,-0.38 72.51,-41.8 -32.99,-16.67 -121.7,-10.29 -145.3,-2.64 -22.55,7.3 -31.56,25.04 -47.9,32.52 -47.7,21.84 -76.54,-44.6 -132.41,1.52z"/>
       <path fill="#E7E5E5" d="M7492.62 4341.21c-14.27,3.28 -21.25,4.86 -27.57,17.31 -4.53,8.92 -7.41,26.09 -3.5,35.56 9.15,22.19 55.71,6.89 71.68,2.78 22.12,-5.7 49.63,-19.13 72.39,-13.79 21.86,5.12 32.73,24.6 68.35,21.13 69.74,-6.8 38.71,-69.17 -26.37,-64.08 -24.28,1.9 -56.84,9.15 -80.33,6.24 -24.92,-3.07 -44.78,-12 -74.65,-5.15z"/>
       <path fill="#E7E5E5" d="M7855.63 4469.59c0,36.51 74.43,22.32 94.68,21.6 20.13,-0.71 40.47,0.53 60.12,-2.02 23.46,-3.03 31.21,-8.51 37.07,-28.19 -23.39,-32.79 -60.53,-7.77 -79.84,6.42l-9.83 -14.06c-5.32,-8.77 0.79,-5.17 -8.95,-11.88 -9.17,-6.33 -23.31,-6.01 -33.82,-2.38 -9.83,3.39 -18.01,9.44 -30.22,12.76 -16.94,4.61 -29.21,1.52 -29.21,17.75z"/>
       <path fill="#E7E5E5" d="M8281.91 4437.61c-32.34,-10.22 -13.99,-16.55 -64.54,-17.72 -27.12,-0.62 -51.8,-0.25 -51.8,32.48 0,36.12 52.61,10.46 73.52,3.76 50.07,-16.04 48.71,19.66 90.99,7.15 23.3,-21.75 17.25,-40.95 -18.04,-47.18 -8.34,6.92 -18.37,15.11 -30.13,21.51z"/>
       <path fill="#E7E5E5" d="M7848.33 3608.61c16.04,30.38 79.77,10.72 113.53,18.6 31.08,7.26 81.8,12.52 110.21,-14.29 -1.07,-19.54 -1.46,-3.84 -12.04,-21.9 -41.3,1.05 -26.67,9.49 -48.25,19 -22.82,10.05 -136.22,-50.72 -163.45,-1.41z"/>
      </g>
      <g>
       <path fill="#51143E" d="M7374.86 2469.15c54.97,32.55 -2.39,145.9 -46.81,106.95 -20.07,-14.04 -9.61,-27.71 -10.81,-53 -32.8,28.41 -67.16,63.81 -68.46,107.68 36.32,-15.35 123.84,-30.09 132.46,17.85 -7.44,22.26 -30.47,32.26 -51.55,42.26 -33.43,15.86 -44.04,6.63 -73.35,-3.37 -7.38,15.35 9.89,20.5 24.23,45.77 12.5,-2.6 21.3,-6.22 32.76,-7.37 0.02,3.2 -2,8.75 -2.02,8.91 -0.09,0.91 -0.59,4.02 -0.4,4.96 5.6,29.01 39.51,-7.07 20.68,25.6l37.72 13.29c0.97,-1.29 3.2,-3.67 4.19,-2.39l45.11 0.48c15.32,3.8 23.7,6.33 41.63,8.89 101.88,14.54 179.04,25.09 287.87,30.07l2.35 -8.1c0.22,-1.18 0.64,-2.7 0.89,-4.16 2.18,-12.59 1.61,-31.21 9.82,-38.63l-1.65 -4.3 -15.73 -34.4c-19.12,5.07 -10.69,-12.81 -17.22,8.61 -1.76,-27.01 1.87,-17.16 -24.31,-15.98 1.32,9.91 -3.25,15.62 -3.29,15.47 -0.19,-0.72 -0.97,2.36 -1.55,3.49 -19.25,10.44 -65.56,39.73 -102.88,26.23 -10.88,-3.94 -30.57,-22.34 -35.01,-30.43 -13.5,-24.56 1.38,-28.22 12.11,-42.3 5.56,-10.06 1.12,-3.43 8.36,-11.15l8.32 -5.6c-20.09,-0.42 -37.19,-15.04 -59.77,-17.24 -0.02,-19.66 4.88,-39.29 0.04,-52.07 -27.65,4.65 11.12,5.13 -17.92,8.5 -13.36,1.54 -11.33,-2.4 -23.82,6.23l-9.85 11.49 -1.19 -12.91c6.84,37.25 -6.1,82.97 -37.65,91.31 -20.47,-11.39 -37.94,-40.69 -42.91,-70.44 -7.19,-43.1 15.46,-53.54 34.33,-72.42 19.84,-33.41 -23.56,25.07 13.62,-10.7 2.64,-2.55 3.96,3.21 5.6,-9.47 -3.23,-25.21 -23.89,-33.09 -6.31,-62.64 10.43,-11.84 12.34,-6.31 16.27,-19.85 1.76,-6.07 0.91,-27.05 0.91,-34.26 -13.99,-0.27 -21.44,1.2 -27.38,-11.74 -27.35,10.93 -23.66,40.93 -57.43,50.88z"/>
       <path fill="#51143E" d="M7653.43 2330.58c16.53,9.28 11.9,3.75 13.73,25.9 2.56,31.18 -5.08,16.7 -5.12,16.66 13.49,-5.72 5.63,-2.14 19.19,-1 46.99,-5.18 20.86,-15.51 79.52,1.17 -0.58,-0.82 -1.5,-1.9 -1.9,-2.36l-25.11 -26.57c-7.17,-9.54 -11.41,-20.73 -20.91,-31.48l-59.4 17.68z"/>
      </g>
      <g>
       <path fill="#480A38" d="M8470.48 2610.49c-35.96,10.33 -82.29,22.02 -121.38,21.57 3.36,5.22 11.73,-9.04 1.69,7.81 -63.95,1.77 -37.08,-7.58 -92.55,4.44l11.71 5.08c1.19,0.38 2.25,0.74 3.54,1.08l7.87 1.71c9.44,1.45 20.96,0.74 30.68,0.74 -2.6,-8.56 -32.68,-4.27 -43.02,-4.27l8.65 27.33c0.69,5.9 -0.04,17.79 -0.04,24.33 -32.48,0 -32.58,-7.76 -33.42,21.55l-5.35 47.33c-12.32,-21.08 -13.17,0.27 -25.48,-10.92 -4.21,0.89 -61.69,34 -88.8,3.64 -1.48,9.37 4.93,5.81 -1.97,8.79 -28.51,-12.69 5.28,4.52 -14.27,-14.35 -8.05,-7.77 -0.89,-5.77 -14.85,-8.59 -16.4,-3.32 -13.48,3.13 -35.41,-4.44l0.13 -8.16c0.05,-3.09 3.86,-2.15 5.42,-3.68l-12.74 -3.99 -18.66 1.38c-0.12,29.15 1.7,3.19 -8.06,14.45 -19.32,20.37 -20.48,30.76 -51.12,44.13 -25.57,11.15 -54.89,14.7 -78.36,3.17 -2.26,-10.75 -5.54,-21.95 3.29,-25.78l-8.08 -15.6c-1,-1.89 -3.16,-8.03 -6.46,-9.8 -20.02,-10.75 -3.79,-1.82 -11.57,0.62l-16.07 7.56c-5.82,4.26 -9.62,12.56 -17.44,21.28 -5.69,6.36 -13.42,15.86 -24.13,19.23 -27.74,8.73 -40.68,-13.49 -53.06,-23.29 -8.21,7.42 -7.64,26.04 -9.82,38.63 -0.25,1.46 -0.67,2.98 -0.89,4.16l-2.35 8.1c-108.83,-4.98 -185.99,-15.53 -287.87,-30.07 -17.93,-2.56 -26.31,-5.09 -41.63,-8.89l-45.11 -0.48c-0.99,-1.28 -3.22,1.1 -4.19,2.39 54.66,11.41 107.56,29.08 166.89,38.72 296.09,48.11 612.46,52.91 895.07,-58.09 53.8,-21.14 169.81,-77.62 155.67,-148.34 -4.92,-24.58 -30.54,-50.84 -43.7,-59.91 -31.52,40.3 2,44.82 -72.76,59.43z"/>
       <path fill="#480A38" d="M7331.59 2765.39c18.83,-32.67 -15.08,3.41 -20.68,-25.6 -0.19,-0.94 0.31,-4.05 0.4,-4.96 0.02,-0.16 2.04,-5.71 2.02,-8.91 -11.46,1.15 -20.26,4.77 -32.76,7.37 -14.34,-25.27 -31.61,-30.42 -24.23,-45.77 -33.23,-30.1 -14.49,-32.78 -7.56,-56.74 1.3,-43.87 35.66,-79.27 68.46,-107.68 1.2,25.29 -9.26,38.96 10.81,53 -6.05,-21.23 -8.94,-38.4 -1.1,-59.67 10.05,-27.25 21.44,-31.39 29.24,-40.49 -98.29,23.81 -291.61,127.88 -131.29,235.28 12.37,8.29 35.3,21.79 52.18,29.63 11.84,5.51 47.5,19 54.51,24.54z"/>
      </g>
      <g>
       <path fill="#F0F0EE" d="M8060.03 3591.02c10.58,18.06 10.97,2.36 12.04,21.9 -28.41,26.81 -79.13,21.55 -110.21,14.29 -33.76,-7.88 -97.49,11.78 -113.53,-18.6 27.23,-49.31 140.63,11.46 163.45,1.41 21.58,-9.51 6.95,-17.95 48.25,-19zm-292.04 -60.23c-12.76,24.71 -72.28,21.31 -101.78,17.63 -54.16,-6.76 -62.85,-7.39 -110.4,9.27 -25.21,8.83 -80.32,20.16 -109.02,11.71 -137.99,-40.63 -9.77,-87.91 44.83,-69.83 43.6,14.44 64.09,15.78 99.16,-10.1 51.47,-37.99 49.84,-6.43 87.67,3.4 35.64,9.26 74.26,-5.87 89.54,37.92zm233.29 -68.48c55.87,-46.12 84.71,20.32 132.41,-1.52 16.34,-7.48 25.35,-25.22 47.9,-32.52 23.6,-7.65 112.31,-14.03 145.3,2.64 82.03,41.42 -24.5,56.74 -72.51,41.8 -54.32,-16.9 -56.24,3.21 -83.15,29.56 -43.22,42.33 -157.71,14.18 -169.95,-39.96zm-689.48 -45.49c-12.68,7.57 -8.91,-0.49 -3.83,6.66 -3.41,18.3 7.98,121.84 10.8,148.06l21.77 131.67c0.48,-0.89 2.07,2.08 2.9,3.28 7.46,15.04 90.97,54.58 117.59,60.27 142.4,30.45 220.39,-93.36 250.49,-108.58 44.78,-22.64 106.23,14.94 137.06,35.07 82.2,53.7 214.82,46.21 284.78,-13.54 40.41,-34.51 49.04,-61.28 129.46,-43.3 62.05,13.86 110.95,10.65 171.73,-0.34 5.76,-24.78 7.12,-85.97 10.06,-115.89 1.47,-14.95 1.43,-38.01 3.55,-54.1 2.7,-20.45 5.54,-32.36 5.92,-53.11 -98.55,-30.63 -123.9,-4.54 -178.44,-30.5 -74.05,-35.26 -85.55,-129.1 -196.49,-32.6 -54.75,47.61 -166.8,71.93 -219.15,4.67 -34.74,-44.61 -48.24,-66.45 -122.27,-84.29 -110,-26.52 -190.54,11.97 -252.65,92.66 -77.42,100.59 -127.11,55.83 -173.28,53.91z"/>
       <path fill="#F0F0EE" d="M7855.63 4469.59c0,-16.23 12.27,-13.14 29.21,-17.75 12.21,-3.32 20.39,-9.37 30.22,-12.76 10.51,-3.63 24.65,-3.95 33.82,2.38 9.74,6.71 3.63,3.11 8.95,11.88l9.83 14.06c19.31,-14.19 56.45,-39.21 79.84,-6.42 -5.86,19.68 -13.61,25.16 -37.07,28.19 -19.65,2.55 -39.99,1.31 -60.12,2.02 -20.25,0.72 -94.68,14.91 -94.68,-21.6zm426.28 -31.98c11.76,-6.4 21.79,-14.59 30.13,-21.51 35.29,6.23 41.34,25.43 18.04,47.18 -42.28,12.51 -40.92,-23.19 -90.99,-7.15 -20.91,6.7 -73.52,32.36 -73.52,-3.76 0,-32.73 24.68,-33.1 51.8,-32.48 50.55,1.17 32.2,7.5 64.54,17.72zm-789.29 -96.4c29.87,-6.85 49.73,2.08 74.65,5.15 23.49,2.91 56.05,-4.34 80.33,-6.24 65.08,-5.09 96.11,57.28 26.37,64.08 -35.62,3.47 -46.49,-16.01 -68.35,-21.13 -22.76,-5.34 -50.27,8.09 -72.39,13.79 -15.97,4.11 -62.53,19.41 -71.68,-2.78 -3.91,-9.47 -1.03,-26.64 3.5,-35.56 6.32,-12.45 13.3,-14.03 27.57,-17.31zm-100.37 -61.42c-10.15,10.71 13.39,8.97 -13.36,8.97 12.9,16.64 13.37,133.98 18.59,167.73 5.45,35.17 16.6,40.23 50.47,48.63 277.94,69.05 543.41,72.57 822.28,9.07 105.3,-23.97 87.97,-22.18 96.26,-91.3 2.61,-21.78 5.3,-59.51 6.04,-83.48l-9.27 -1.74c-27.46,3.82 -68.61,39.78 -128.28,2.39 -33.19,-20.8 -61.04,-64.55 -112.69,-21.42 -26.64,22.25 -46.75,74.75 -98.2,69.01 -33.22,-3.71 -55.72,-37.39 -99.69,-68.52 -61.92,-43.84 -170.15,-82.85 -258.58,-52.33 -66.42,22.92 -69.78,20.53 -134.19,1.68 -43.1,-12.61 -99.29,-2.74 -139.38,11.31z"/>
      </g>
      <g>
       <path fill="#4D1944" d="M7343.44 3706.49c-16.37,9.23 -7.65,-2.41 -10.24,18.21l44.39 490.93c3.05,33.26 -1.38,65.11 14.66,64.16 40.09,-14.05 96.28,-23.92 139.38,-11.31 64.41,18.85 67.77,21.24 134.19,-1.68 88.43,-30.52 196.66,8.49 258.58,52.33 43.97,31.13 66.47,64.81 99.69,68.52 51.45,5.74 71.56,-46.76 98.2,-69.01 51.65,-43.13 79.5,0.62 112.69,21.42 59.67,37.39 100.82,1.43 128.28,-2.39 10.41,-15.62 11.49,-15.64 13.53,-40.11l26.32 -309.74c5.47,-64.71 23.46,-307.76 31.44,-351.75 -60.78,10.99 -109.68,14.2 -171.73,0.34 -80.42,-17.98 -89.05,8.79 -129.46,43.3 -69.96,59.75 -202.58,67.24 -284.78,13.54 -30.83,-20.13 -92.28,-57.71 -137.06,-35.07 -30.1,15.22 -108.09,139.03 -250.49,108.58 -26.62,-5.69 -110.13,-45.23 -117.59,-60.27z"/>
       <path fill="#4D1944" d="M8275.23 3205.85c-4.09,-35.05 33.51,6.99 0,0zm-824.15 -100.98c-6.84,-13.38 -4.98,-2.89 -0.51,-13.31 5.5,-1.41 6.34,-7.12 10.68,2.83 5.37,12.27 -5.61,9.1 -10.17,10.48zm-139.28 311.95c46.17,1.92 95.86,46.68 173.28,-53.91 62.11,-80.69 142.65,-119.18 252.65,-92.66 74.03,17.84 87.53,39.68 122.27,84.29 52.35,67.26 164.4,42.94 219.15,-4.67 110.94,-96.5 122.44,-2.66 196.49,32.6 54.54,25.96 79.89,-0.13 178.44,30.5l38.06 -429.75c-18.52,-0.56 -112.54,24.76 -142.06,30.9 -353.9,73.66 -740.63,58.29 -1084.95,-33.2 7.65,73.4 14.86,147.46 20.88,220.89 3.01,36.75 6.42,73.43 10.05,109.75 3.16,31.65 0.07,82.41 15.74,105.26z"/>
       <path fill="#4D1944" d="M7259.23 2929.5c44.48,7.16 94.62,23.33 141.05,32.44 388.44,76.25 709.76,65.91 1097.01,-33.69 49.19,-15.63 43.92,-13.12 51.2,-69.19 4.81,-37.04 11.12,-74.74 15.14,-111.9 -49.04,22.63 -52,37.62 -140.5,68.49 -166.9,58.21 -364.97,79.44 -541.57,79.87 -159.85,0.39 -393.44,-20.8 -544.85,-76.42 -62.21,-22.85 -93.07,-41.84 -143.08,-67.58 1.64,30.53 9.87,73.74 14.17,105.33 8.88,65.29 4.05,47.62 51.43,72.65z"/>
      </g>
      <path fill="#E7E7E7" d="M8497.29 2928.25l-5.15 54.97 -38.06 429.75c-0.38,20.75 -3.22,32.66 -5.92,53.11 -2.12,16.09 -2.08,39.15 -3.55,54.1 -2.94,29.92 -4.3,91.11 -10.06,115.89 -7.98,43.99 -25.97,287.04 -31.44,351.75l-26.32 309.74c-2.04,24.47 -3.12,24.49 -13.53,40.11l9.27 1.74c-0.74,23.97 -3.43,61.7 -6.04,83.48 -8.29,69.12 9.04,67.33 -96.26,91.3 -278.87,63.5 -544.34,59.98 -822.28,-9.07 -33.87,-8.4 -45.02,-13.46 -50.47,-48.63 -5.22,-33.75 -5.69,-151.09 -18.59,-167.73 26.75,0 3.21,1.74 13.36,-8.97 -16.04,0.95 -11.61,-30.9 -14.66,-64.16l-44.39 -490.93c2.59,-20.62 -6.13,-8.98 10.24,-18.21 -0.83,-1.2 -2.42,-4.17 -2.9,-3.28l-21.77 -131.67c-2.82,-26.22 -14.21,-129.76 -10.8,-148.06 -5.08,-7.15 -8.85,0.91 3.83,-6.66 -15.67,-22.85 -12.58,-73.61 -15.74,-105.26 -3.63,-36.32 -7.04,-73 -10.05,-109.75 -6.02,-73.43 -13.23,-147.49 -20.88,-220.89l-5.9 -51.42c-47.38,-25.03 -42.55,-7.36 -51.43,-72.65 -4.3,-31.59 -12.53,-74.8 -14.17,-105.33 50.01,25.74 80.87,44.73 143.08,67.58 151.41,55.62 385,76.81 544.85,76.42 176.6,-0.43 374.67,-21.66 541.57,-79.87 88.5,-30.87 91.46,-45.86 140.5,-68.49 -4.02,37.16 -10.33,74.86 -15.14,111.9 -7.28,56.07 -2.01,53.56 -51.2,69.19zm141.92 -326.6l0 41.94c-38.38,65.76 -30.09,247.44 -59.43,290.05 -41.92,60.88 -28.66,-32.99 -48.09,158.8 -42.23,416.84 -71.7,847.46 -110.81,1266.7 -11.75,125.83 7.69,153.9 -85.82,189.61 -1.02,43.04 -33.29,45.21 -68.17,56.47 -32.66,10.54 -63.6,19.27 -97.01,27.75 -63.57,16.14 -205.3,30.55 -215.7,34.64l-138.68 0c-1.89,-0.65 -186.16,-15.71 -325.5,-60.65 -41.23,-13.3 -67.69,-13.14 -68.5,-60.45 -27.96,-4.03 -54.12,-26.1 -64.02,-48.05 -10.02,-22.22 -10.92,-71.6 -13.11,-97.75l-54.69 -616.99c-5.5,-64.12 -67.23,-769.93 -76.86,-819.53 -57.13,-27.45 -51.56,-79.69 -61.02,-153.57 -6.72,-52.48 -13.15,-121.75 -40.8,-169.11l0 -38c0.61,-1.09 1.31,-4.06 1.56,-3.41 3.36,8.72 2.46,-5.53 2.93,-6.69 1.77,-4.38 2.92,-8.24 4.95,-12.76 3.51,-7.79 7.77,-13.87 11.09,-19.05 11.29,-17.59 16.45,-21.79 29.37,-35.23 72.77,-75.74 185.03,-93.56 260.05,-123.33l5.02 -16.06c0.48,-1.06 1.4,-2.56 1.84,-3.45 0.44,-0.9 1.14,-2.44 1.99,-3.48l2.72 31.31 -0.23 6.91c-27.35,10.93 -23.66,40.93 -57.43,50.88l-18.67 6.79c-98.29,23.81 -291.61,127.88 -131.29,235.28 12.37,8.29 35.3,21.79 52.18,29.63 11.84,5.51 47.5,19 54.51,24.54l37.72 13.29c54.66,11.41 107.56,29.08 166.89,38.72 296.09,48.11 612.46,52.91 895.07,-58.09 53.8,-21.14 169.81,-77.62 155.67,-148.34 -4.92,-24.58 -30.54,-50.84 -43.7,-59.91 3.94,-40.23 8.1,-60.28 5.81,-106.81l3.05 5.93c0.23,0.71 0.97,2.2 1.22,3.11 1.78,6.35 1.66,7.77 2.11,14.52 3.22,48.26 -8,11.27 48.45,73.94 20.92,23.23 19.77,33.83 35.33,59.9z"/>
      <path fill="#FAF8D0" d="M8239.9 2512.33c-49.92,25.46 -50.45,-0.92 -99.59,-52.71 57.52,-3.15 38.21,27.6 86.36,45.89l6.72 2.86c0.84,0.37 2.68,2.87 3.28,1.9 0.61,-0.99 2.24,1.25 3.23,2.06zm35.39 -21.17c4.68,-8.94 12.01,-7.51 18.58,-19.73 8.97,-16.67 -0.14,-63.21 72.61,-53.16 -8.16,15.64 -29.33,12.13 -42.03,40.7 -10.9,24.54 -13.07,39.04 -49.16,32.19zm-112.58 -164.09c-14.07,3.83 -16.72,8.03 -27.19,17.07l-5.43 5.32c-0.78,0.7 -1.81,1.67 -2.66,2.41 -0.8,0.71 -1.79,1.5 -2.6,2.19 -25.62,21.64 -21.04,19.68 -41.71,43.89l-7.23 8.27c-6.27,12.89 -8.07,12.92 -14.9,23.28 -7.1,19.46 -14.1,29.39 -18.84,48.32 -4.35,17.37 -5.91,32.51 -12.68,46.06 1.91,3.43 14.22,75.57 20.34,94.24l53.21 3.03 39.03 1.7c3.77,-27.88 27.29,-26.81 52.4,-20.5 24.48,6.16 31.93,15.97 44.64,27.75l14.99 3.4c-10.03,-15.67 -31.6,-36.68 -15.82,-58.31 19.11,-26.2 38.42,-2.17 30.88,-52.88 35.38,25.83 19.11,43.54 -0.69,61.1l-9.38 9.26c8.42,21.61 12.28,16.25 13.56,42.5l76.47 -3.11c39.09,0.45 85.42,-11.24 121.38,-21.57l-8.68 -9.21c29.65,-77.27 56.27,-122.96 18.45,-215.59 -44.61,-109.24 -129.55,-113.81 -140.34,-121.52 -62.81,3.61 -107.78,8.04 -163.6,50.41l-13.6 12.49z"/>
      <path fill="#875F8B" d="M7265.13 2980.92c344.32,91.49 731.05,106.86 1084.95,33.2 29.52,-6.14 123.54,-31.46 142.06,-30.9l5.15 -54.97c-387.25,99.6 -708.57,109.94 -1097.01,33.69 -46.43,-9.11 -96.57,-25.28 -141.05,-32.44l5.9 51.42z"/>
      <path fill="#5FA744" d="M7898 2365.35c6.89,-45.27 25.46,-70.97 51.02,-96.91 20.83,-21.14 56.18,-48.11 91.26,-54.04l-142.28 150.95zm48.91 -186.3l-36.79 17.14c-10.86,13.04 -7.46,7.25 -18.08,15.12 -6.86,5.09 -8.2,6.7 -15.63,14.43 -9.3,9.67 -22.17,25.58 -30.07,33.94l-10.34 26.08c-6.65,23.03 -12.13,44 -9.4,71.21 6.1,-2.38 13.92,-5.99 23.79,-4.17 13.58,2.51 13.24,7.79 18.13,16 19.01,11.6 14.01,49.59 8.25,71.98 17.95,-0.36 6.32,-1.61 10.39,6.13 23.28,-21.36 42.58,-9.96 70.11,-9.4 63.93,-17.22 77.64,-51.15 103.06,-109.39 16.38,-37.54 48.55,-115.69 55.4,-157.54 -63.39,-11.98 -111.07,-19.27 -168.82,8.47z"/>
      <path fill="#F4ECA3" d="M8108.65 2291.33c3.61,18.49 7.2,20.27 15.72,36.21 -28.11,-8.51 -39.93,-16.88 -40.58,-49.5 11.43,-9.97 28.52,-23.19 35.46,-37.57l7.68 -18.55c27.64,32.12 -7.16,55.65 -18.28,69.41zm-161.74 -112.28c57.75,-27.74 105.43,-20.45 168.82,-8.47 -6.85,41.85 -39.02,120 -55.4,157.54 -25.42,58.24 -39.13,92.17 -103.06,109.39 3.26,14.13 8.87,23.69 6.66,42.2 12.04,7.78 15.87,14.39 28.63,23.48 11.32,8.06 23.78,15.55 36.91,20.69 6.77,-13.55 8.33,-28.69 12.68,-46.06 4.74,-18.93 11.74,-28.86 18.84,-48.32l-32.06 5.09c29.66,-31.8 14.65,-16.11 23.1,-59.52 4.6,-23.59 30.85,-36.43 53.74,-23.47 -31.53,23.86 -26.53,3.23 -29.88,54.62l7.23 -8.27c20.67,-24.21 16.09,-22.25 41.71,-43.89 0.81,-0.69 1.8,-1.48 2.6,-2.19 0.85,-0.74 1.88,-1.71 2.66,-2.41l5.43 -5.32c-5.87,-3.04 -19.43,1.62 1.99,-16.03 25.38,-20.9 25.16,-1.08 25.2,-1.04l13.6 -12.49c55.82,-42.37 100.79,-46.8 163.6,-50.41 -68.86,-103.64 -153.45,-169.97 -290.46,-155.01 0.92,1.11 -3.04,4.95 0.63,-0.91l3.65 -6.14c-29.78,6.53 -36.64,18.11 -61.33,33.12 -13.03,7.91 -41.62,28.48 -45.49,43.82z"/>
      <path fill="#56903F" d="M7712.83 2312.9c9.5,10.75 13.74,21.94 20.91,31.48l25.11 26.57c0.4,0.46 1.32,1.54 1.9,2.36 6.57,1.96 10.28,3.09 15.85,5.73 3.49,1.66 5.71,2.95 8.32,4.71 5,3.36 4.98,3.67 7.41,6.05 10.92,-16.46 17.11,-21.55 34.27,-32.83 -2.73,-27.21 2.75,-48.18 9.4,-71.21l-100.97 -111.65c45.34,8.52 93.37,45.79 111.31,85.57 7.9,-8.36 20.77,-24.27 30.07,-33.94 7.43,-7.73 8.77,-9.34 15.63,-14.43 10.62,-7.87 7.22,-2.08 18.08,-15.12 -36.35,-67.8 -162.81,-116.17 -268.71,-80.76 4.43,26.9 22.33,74.51 31.97,99.66 11.66,30.42 32.99,71.91 39.45,97.81z"/>
      <path fill="#531434" d="M7537.21 2618.5c-5.14,-47.14 103.69,-25.22 110.68,27.4 6.89,51.84 -105.84,16.94 -110.68,-27.4zm38.74 -276.3l-36.68 1.6c-3.72,33.76 10.84,50.84 -22.52,73.34 -12.04,8.13 -28.06,10.78 -44.25,9.43 -8.79,-0.73 -14.78,-2.36 -21.9,-5.44l-18.08 -9.77 -0.23 6.91c5.94,12.94 13.39,11.47 27.38,11.74 0,7.21 0.85,28.19 -0.91,34.26 -3.93,13.54 -5.84,8.01 -16.27,19.85 33.56,-3.54 68.88,8.04 90,27.13 23.24,20.99 30.56,57.72 8.93,80.7 -22.52,5.08 -39.76,1.36 -50.97,-14.27 -10.91,-1.67 -3.42,2.9 -16.59,-7.67 -11.26,-9.05 -8.85,-7.2 -11.71,-17.65l-13.35 -5.6c-1.64,12.68 -2.96,6.92 -5.6,9.47 -37.18,35.77 6.22,-22.71 -13.62,10.7 34.36,-2.9 43.07,19.22 46.23,51.55l1.19 12.91 9.85 -11.49c12.49,-8.63 10.46,-4.69 23.82,-6.23 29.04,-3.37 -9.73,-3.85 17.92,-8.5 4.84,12.78 -0.06,32.41 -0.04,52.07 22.58,2.2 39.68,16.82 59.77,17.24l-8.32 5.6c-7.24,7.72 -2.8,1.09 -8.36,11.15 46.64,-11.14 129.54,-9.83 125.78,46.5 0.58,-1.13 1.36,-4.21 1.55,-3.49 0.04,0.15 4.61,-5.56 3.29,-15.47 26.18,-1.18 22.55,-11.03 24.31,15.98 6.53,-21.42 -1.9,-3.54 17.22,-8.61l15.73 34.4c-4.6,-34.23 -0.33,-42.46 17.65,-65.94 -15.47,6.39 -43.44,40.17 -87.68,-0.18 -9.26,-8.44 -18.72,-21.33 -21.62,-38.72 -4.58,-27.4 2,-37.3 19.95,-45.97l-25.78 -4.17c-7.68,-20.1 6.56,-11.58 -7.54,-23.95 -28.61,9.91 -39.87,7.07 -50.71,-16.33 -7.61,-12.15 -4.85,-28.94 -3.57,-49.77 -26.31,-0.6 -49.57,-5.35 -65.4,-19.45 -13.89,-12.37 -25.46,-34.76 -20.35,-59.82 47.4,-16.28 87.36,15 100.86,49.08 13.43,-7 22.36,-17.76 42.4,-12.62 28.78,8.54 40.73,27.78 39.51,63.98 -4.49,22.41 2.2,6.88 7.73,12.92 -8.15,-78.04 71.34,-115.02 92.89,-66.52 17.95,7.06 11.79,-6.7 10.54,19.21 0,-7.92 -9.66,-29.81 21.23,-22.74 14.28,3.26 21.82,37.16 25.66,44.88l5.54 12.28 -35.21 0.02c13.39,24.03 -6.57,2.86 11.47,11.31 23.31,-4.22 34.63,-2.24 54.75,8.07 11.06,3.35 6.92,4.18 6.92,-9.1 -56.84,-13.82 -51.25,-69.86 -11.6,-100.1 -4.07,-7.74 7.56,-6.49 -10.39,-6.13l-3.78 1.24c-10.07,27 -32.59,40 -64.36,21.32 -21.13,-12.42 -29.28,-42.69 -16.3,-73.54 -2.43,-2.38 -2.41,-2.69 -7.41,-6.05 -2.61,-1.76 -4.83,-3.05 -8.32,-4.71 -5.57,-2.64 -9.28,-3.77 -15.85,-5.73l8.43 13.43c22.16,46.46 -94.43,126.2 -113.2,48.3 -4.48,-18.62 0.25,-34.43 11.43,-47.58 2.2,-2.59 5.32,-5.65 6.7,-7.19 7.99,-8.84 0.61,0.59 7.12,-8.13 -13.56,-1.14 -5.7,-4.72 -19.19,1 0.04,0.04 7.68,14.52 5.12,-16.66 -1.83,-22.15 2.8,-16.62 -13.73,-25.9l2.23 -0.86c-2.21,27.51 7.1,52.39 -10.75,73.63 -14.29,17 -37.16,30.45 -58.19,19.52 -19.11,-20.6 -12.56,-48.53 -10.77,-80.67z"/>
      <path fill="#53133C" d="M7704.97 2549.6c-5.53,-6.04 -12.22,9.49 -7.73,-12.92 -8.81,20.18 -20.98,38.16 -42.74,44.93 14.1,12.37 -0.14,3.85 7.54,23.95l25.78 4.17c16.41,-9.47 51.76,7.37 65.68,16.24 27.57,17.58 33.63,30.12 22.1,69.16 27.68,-15.94 33.15,-21.54 71.5,-16.83 2.38,-13.5 -4.06,-3.85 13.16,-11.4 27.99,-12.27 19.02,-13.06 67.13,-33.32 1.68,-29.73 0.61,-43.45 8.91,-35.25l4.69 -5.39c8.42,-10.51 16.68,-23.59 29.64,-31.76 15.32,-9.64 33.84,-15.52 49.33,-2.95 8.47,21.67 -3.53,42.01 -9.84,60.25l22.07 2.37c1.43,0.38 2.6,0.86 3.88,1.26 1.3,0.4 2.79,1.13 3.84,1.5 1.06,0.36 2.65,0.87 3.83,1.59l6.07 -7.08c-6.12,-18.67 -18.43,-90.81 -20.34,-94.24 -13.13,-5.14 -25.59,-12.63 -36.91,-20.69 -12.76,-9.09 -16.59,-15.7 -28.63,-23.48 -14.7,27.47 -28.29,72.11 -65.17,67.3 0,13.28 4.14,12.45 -6.92,9.1 11.99,8.68 15.54,11.56 19.32,27.93 0.23,32.44 -21.93,34.6 -33.93,52.38 -119.92,32.38 -88.94,-87.71 -40.14,-88.38 -18.04,-8.45 1.92,12.72 -11.47,-11.31l35.21 -0.02 -5.54 -12.28c-3.84,-7.72 -11.38,-41.62 -25.66,-44.88 -30.89,-7.07 -21.23,14.82 -21.23,22.74 1.25,-25.91 7.41,-12.15 -10.54,-19.21 6.91,32.95 -1.82,79.27 -22.86,93.57 -13.96,9.5 -30.83,8.11 -45.09,-0.03 -15.8,-9.03 -16.21,-15.24 -24.94,-27.02z"/>
      <path fill="#F7ED7B" d="M8339.91 2264.17c10.79,7.71 95.73,12.28 140.34,121.52 37.82,92.63 11.2,138.32 -18.45,215.59l8.68 9.21c74.76,-14.61 41.24,-19.13 72.76,-59.43 3.94,-40.23 8.1,-60.28 5.81,-106.81 -6.34,-58.52 -57.78,-123.55 -108.25,-152.53 -72.15,-41.42 -21.33,-16.03 -49.03,-42.53l4.26 22c-16.53,-5.67 -39.2,-12.46 -56.12,-7.02z"/>
      <path fill="#EDDC6E" d="M8053.73 2102.11l-3.65 6.14c-3.67,5.86 0.29,2.02 -0.63,0.91 137.01,-14.96 221.6,51.37 290.46,155.01 16.92,-5.44 39.59,1.35 56.12,7.02l-4.26 -22c-1.56,-33.27 -52.91,-88.3 -74.2,-105.46 -14.81,-11.94 -32.66,-23.7 -55.94,-34.59 -16.51,-7.72 -58.78,-17.75 -69.36,-24.44l-91.81 0 -46.73 17.41z"/>
      <path fill="#DAA457" d="M7356.19 2475.94c-7.8,9.1 -19.19,13.24 -29.24,40.49 -7.84,21.27 -4.95,38.44 1.1,59.67 44.42,38.95 101.78,-74.4 46.81,-106.95l-18.67 6.79z"/>
      <path fill="#CB944A" d="M7877.23 2636.42c-15.21,-2.87 -35.28,6.62 -72.33,-22.69 23.57,-29.31 71.82,-25.13 87.3,-27.87 21.03,-3.73 13.82,5.49 18.96,-1.82 -3.78,-16.37 -7.33,-19.25 -19.32,-27.93 -20.12,-10.31 -31.44,-12.29 -54.75,-8.07 -48.8,0.67 -79.78,120.76 40.14,88.38z"/>
      <path fill="#56913D" d="M7898 2365.35l142.28 -150.95c-35.08,5.93 -70.43,32.9 -91.26,54.04 -25.56,25.94 -44.13,51.64 -51.02,96.91z"/>
      <path fill="#427B39" d="M7836 2285.76l10.34 -26.08c-17.94,-39.78 -65.97,-77.05 -111.31,-85.57l100.97 111.65z"/>
     </g>
    </g>
    <g>
     <path fill="#8A2281" d="M7875.11 3199.48c260.46,0 471.6,211.15 471.6,471.61 0,260.46 -211.14,471.6 -471.6,471.6 -260.46,0 -471.61,-211.14 -471.61,-471.6 0,-260.46 211.15,-471.61 471.61,-471.61z"/>
     <path fill="#00A859" d="M7802.73 4074.54c-41.5,27.64 -103.19,10.83 -121.13,-42.11 -48.01,13.46 -101.49,-21.59 -102.19,-77.48 -49.82,-2.04 -89.85,-51.89 -73.24,-105.27 -46.76,-17.33 -69.42,-77.12 -37.13,-122.75 -39.12,-30.93 -42.2,-94.8 2.62,-128.22 -27.65,-41.5 -10.84,-103.19 42.11,-121.13 -13.47,-48.01 21.58,-101.49 77.48,-102.19 2.03,-49.82 51.89,-89.85 105.27,-73.24 17.33,-46.76 77.11,-69.42 122.75,-37.13 30.93,-39.12 94.79,-42.2 128.21,2.62 41.51,-27.64 103.2,-10.84 121.13,42.11 48.02,-13.46 101.49,21.58 102.19,77.48 49.83,2.03 89.86,51.89 73.25,105.27 46.76,17.33 69.42,77.12 37.13,122.75 39.11,30.93 42.19,94.79 -2.62,128.21 27.64,41.51 10.83,103.2 -42.11,121.13 13.46,48.02 -21.59,101.5 -77.48,102.19 -2.04,49.83 -51.9,89.86 -105.27,73.25 -17.33,46.76 -77.12,69.42 -122.75,37.13 -30.93,39.11 -94.8,42.19 -128.22,-2.62z"/>
     <path fill="#FEFEFE" d="M7807.25 4049.35c-38.91,25.92 -96.75,10.16 -113.57,-39.48 -45.02,12.62 -95.15,-20.24 -95.81,-72.64 -46.71,-1.91 -84.24,-48.65 -68.67,-98.7 -43.84,-16.25 -65.09,-72.3 -34.81,-115.09 -36.68,-29 -39.56,-88.87 2.45,-120.21 -25.92,-38.91 -10.16,-96.75 39.48,-113.57 -12.62,-45.02 20.24,-95.15 72.65,-95.81 1.91,-46.71 48.65,-84.24 98.69,-68.67 16.25,-43.84 72.31,-65.09 115.09,-34.81 29,-36.67 88.88,-39.56 120.21,2.45 38.92,-25.91 96.76,-10.15 113.57,39.49 45.02,-12.63 95.16,20.23 95.81,72.64 46.72,1.91 84.25,48.65 68.67,98.7 43.84,16.25 65.09,72.3 34.82,115.08 36.67,29 39.56,88.88 -2.46,120.21 25.92,38.92 10.16,96.76 -39.48,113.57 12.62,45.02 -20.24,95.16 -72.65,95.81 -1.9,46.72 -48.65,84.25 -98.69,68.68 -16.25,43.84 -72.3,65.08 -115.09,34.81 -29,36.67 -88.88,39.56 -120.21,-2.46z"/>
     <g>
      <g>
       <path fill="#8A2281" d="M7631.86 3861.56c0,0 -103.85,-124.93 -9.65,-248.64 61.92,-81.3 155.85,-94.49 272.36,-90.73 50.69,1.63 202,19.45 186.99,-68.85l-1.24 -7.26c-1.45,-8.54 -2.82,21.02 -5.15,27.47 -21.76,60.14 -164.65,30.38 -214.03,27.12 -331.08,-21.85 -369.06,232.69 -229.28,360.89z"/>
       <path fill="#8A2281" d="M8118.35 3480.62c0,0 103.85,124.93 9.65,248.63 -61.92,81.31 -155.85,94.49 -272.36,90.74 -50.68,-1.63 -202,-19.46 -186.98,68.84l1.23 7.27c1.46,8.54 2.82,-21.02 5.15,-27.47 21.76,-60.14 164.66,-30.38 214.04,-27.12 331.07,21.85 369.05,-232.69 229.27,-360.89z"/>
      </g>
      <path fill="#8A2281" fill-rule="nonzero" d="M7651.39 3708.54c-2.34,1 -4.03,1.02 -5.09,0.07 -1.05,-0.96 -1.67,-2.48 -1.84,-4.55 -0.18,-2.07 0.08,-4.41 0.78,-7.03 0.69,-2.61 1.68,-5.18 2.97,-7.72 1.28,-2.54 2.78,-4.78 4.5,-6.72 1.71,-1.94 3.54,-3.24 5.49,-3.91 2.38,-0.57 7.27,-0.76 14.66,-0.57 7.39,0.19 15.77,0.23 25.15,0.12 5.91,-12.13 11.82,-24.47 17.75,-37.03 5.93,-12.55 11.35,-24.26 16.25,-35.1 4.91,-10.85 9.01,-20.26 12.31,-28.24 3.31,-7.98 5.35,-13.47 6.15,-16.45 0.49,-1.94 1.19,-3.32 2.1,-4.15 1.18,-2.17 3.08,-3.55 5.68,-4.15 2.6,-0.61 5.49,-0.56 8.68,0.14 3.19,0.7 6.48,1.9 9.86,3.58 3.38,1.69 6.4,3.68 9.06,5.96 2.65,2.28 4.79,4.73 6.41,7.35 1.61,2.62 2.21,5.19 1.79,7.69 -0.31,2.21 -1.11,6.71 -2.39,13.51 -1.27,6.79 -2.75,14.88 -4.44,24.26 -1.69,9.37 -3.46,19.55 -5.32,30.54 -1.86,10.98 -3.53,21.69 -5.02,32.13 -1.49,10.43 -2.67,20.07 -3.56,28.92 -0.88,8.84 -1.16,15.85 -0.83,21.01 0.06,1.72 -0.52,3.49 -1.75,5.3 -1.22,1.81 -2.7,3.07 -4.42,3.78 -1.71,0.71 -3.52,0.72 -5.41,0 -1.89,-0.71 -3.46,-2.65 -4.71,-5.82 -2.29,-5.79 -4.11,-12.83 -5.47,-21.12 -1.36,-8.29 -2.4,-17.3 -3.14,-27.03 -3.85,1.62 -7.59,2.97 -11.21,4.06 -3.63,1.08 -7.27,2.03 -10.93,2.83 -3.66,0.8 -7.33,1.49 -11.02,2.08 -3.68,0.59 -7.51,1.2 -11.48,1.82 -4.07,8.14 -8.05,15.88 -11.94,23.21 -3.88,7.33 -7.46,13.9 -10.74,19.71 -3.27,5.81 -6.15,10.67 -8.64,14.58 -2.49,3.91 -4.46,6.46 -5.91,7.65 -2.48,2.17 -4.64,3.41 -6.49,3.7 -1.84,0.3 -3.15,-0.09 -3.93,-1.15 -0.77,-1.06 -0.95,-2.56 -0.53,-4.49 0.41,-1.92 1.64,-4.02 3.68,-6.29 1.14,-1.29 2.75,-3.54 4.82,-6.75 2.07,-3.21 4.44,-7.22 7.11,-12.02 2.68,-4.8 5.6,-10.21 8.78,-16.22 3.17,-6.02 6.45,-12.41 9.82,-19.17 -5.48,1.24 -11.29,2.77 -17.43,4.59 -6.13,1.82 -12.86,4.19 -20.16,7.09zm95.86 -107.31c-4.66,10.53 -10.15,22.53 -16.47,36 -6.33,13.47 -12.86,27.04 -19.59,40.71 6.46,-0.34 12.77,-1 18.94,-1.95 6.17,-0.96 11.73,-2.46 16.69,-4.5 -0.59,-12.07 -0.82,-24.17 -0.69,-36.32 0.13,-12.15 0.5,-23.46 1.12,-33.94zm108.34 14.48c7.83,-0.94 13.87,-0.26 18.12,2.05 4.25,2.3 7.13,5.53 8.64,9.68 1.51,4.15 1.91,8.95 1.19,14.38 -0.72,5.43 -2.05,10.86 -4,16.29 -1.94,5.44 -4.3,10.49 -7.06,15.15 -2.76,4.67 -5.34,8.38 -7.76,11.12 -2.56,2.77 -4.83,4.27 -6.82,4.51 -2,0.24 -3.72,-0.28 -5.17,-1.55 -1.46,-1.27 -2.65,-3.07 -3.58,-5.42 -0.93,-2.34 -1.58,-4.72 -1.94,-7.13 -0.36,-2.41 -0.39,-4.72 -0.08,-6.93 0.32,-2.2 0.92,-3.79 1.81,-4.76 0.9,-0.98 2.19,-2.54 3.88,-4.69 1.69,-2.16 3.43,-4.5 5.22,-7.02 1.79,-2.53 3.49,-5.19 5.11,-7.99 1.61,-2.79 2.76,-5.24 3.45,-7.34 0.68,-2.11 0.77,-3.82 0.25,-5.13 -0.52,-1.31 -1.92,-1.82 -4.2,-1.55 -4.13,0.5 -8.37,3.03 -12.73,7.6 -4.36,4.57 -8.39,10.14 -12.07,16.73 -3.69,6.58 -6.86,13.57 -9.51,20.97 -2.65,7.39 -4.18,14.19 -4.59,20.37 -0.41,6.19 0.41,11.19 2.46,14.98 2.04,3.8 5.91,5.36 11.61,4.67 6.55,-0.78 12.44,-2.83 17.68,-6.13 5.23,-3.3 9.83,-7.14 13.78,-11.52 3.95,-4.37 7.17,-8.84 9.65,-13.4 2.49,-4.56 4.25,-8.5 5.3,-11.8 0.91,-3.29 2.29,-5.62 4.14,-7 1.86,-1.38 3.57,-1.87 5.13,-1.48 1.57,0.39 2.76,1.62 3.59,3.68 0.82,2.07 0.81,4.96 -0.04,8.68 -1,3.73 -3.07,8.38 -6.23,13.96 -3.16,5.58 -7.23,11.06 -12.22,16.42 -4.98,5.37 -10.73,10.11 -17.25,14.21 -6.51,4.11 -13.61,6.62 -21.3,7.55l-1.71 0.2c-0.3,1.05 -0.62,2.03 -0.94,2.93 -0.33,0.91 -0.59,1.74 -0.79,2.48 -0.32,0.91 -0.51,1.73 -0.57,2.46 4.47,-0.11 8.23,0.56 11.29,2 3.06,1.43 5.43,3.42 7.11,5.96 1.68,2.55 2.63,5.36 2.86,8.44 0.22,3.07 -0.2,6.19 -1.26,9.36 -1.82,5.27 -4.73,9.02 -8.72,11.23 -4,2.21 -8.26,3.12 -12.78,2.73 -4.53,-0.4 -8.76,-1.94 -12.7,-4.65 -3.93,-2.7 -6.77,-6.48 -8.51,-11.32 -1.05,-2.77 -1.32,-4.97 -0.8,-6.63 0.53,-1.65 1.37,-2.72 2.54,-3.23 1.17,-0.5 2.52,-0.37 4.05,0.38 1.54,0.76 2.93,2.14 4.19,4.16 1.25,2.01 2.53,3.38 3.85,4.08 1.31,0.71 2.54,1 3.68,0.86 1.13,-0.14 2.12,-0.61 2.96,-1.44 0.84,-0.82 1.42,-1.76 1.73,-2.81 0.99,-2.57 0.7,-4.67 -0.87,-6.28 -1.57,-1.62 -3.91,-2.75 -7.02,-3.38 -1.33,-0.28 -2.33,-0.81 -3,-1.59 -0.68,-0.79 -1.15,-1.71 -1.42,-2.76 -0.27,-1.05 -0.33,-2.12 -0.17,-3.23 0.16,-1.1 0.32,-2.17 0.48,-3.2 0.2,-0.74 0.48,-1.72 0.84,-2.91 0.36,-1.2 0.81,-2.56 1.36,-4.07 -7.99,-1.49 -14.35,-5.13 -19.09,-10.92 -4.74,-5.78 -7.83,-12.6 -9.28,-20.44 -1.45,-7.84 -1.3,-16.2 0.45,-25.08 1.75,-8.88 5.08,-17.22 9.99,-25.04 4.91,-7.81 11.36,-14.51 19.35,-20.09 8,-5.59 17.48,-9.04 28.44,-10.36zm94.3 22.02c0.96,-2.86 3.05,-4.7 6.27,-5.52 3.23,-0.82 6.59,-0.79 10.09,0.09 3.5,0.88 6.48,2.54 8.94,4.99 2.46,2.45 3.43,5.65 2.89,9.62 -0.4,2.65 -1.32,5.83 -2.75,9.54 -1.43,3.71 -3.03,7.51 -4.8,11.41 -1.77,3.9 -3.51,7.75 -5.22,11.57 -1.71,3.82 -3.03,7.19 -3.98,10.12 -0.95,2.93 -1.29,5.17 -1.03,6.73 0.26,1.56 1.45,2.14 3.57,1.74 3.24,-0.68 6.24,-2.45 9,-5.31 2.76,-2.86 5.28,-6.23 7.56,-10.12 2.27,-3.88 4.24,-7.95 5.9,-12.19 1.65,-4.24 2.93,-8.01 3.84,-11.3 1.04,-3.3 2.46,-5.64 4.24,-7.01 1.79,-1.37 3.5,-1.86 5.13,-1.48 1.64,0.38 2.87,1.6 3.7,3.67 0.82,2.07 0.74,4.97 -0.26,8.7 -0.85,3.71 -2.36,8.3 -4.52,13.76 -2.16,5.46 -4.91,10.77 -8.26,15.94 -3.35,5.17 -7.35,9.74 -12,13.69 -4.66,3.96 -9.97,6.29 -15.95,7.01 -6.13,0.74 -10.62,-0.92 -13.5,-4.98 -2.87,-4.06 -4.69,-9.3 -5.46,-15.7 -3.23,6.74 -7.26,12.57 -12.09,17.48 -4.82,4.92 -10.62,7.49 -17.38,7.73 -7.33,0.3 -13.3,-1.29 -17.91,-4.78 -4.6,-3.49 -7.95,-8.14 -10.02,-13.96 -2.07,-5.82 -2.87,-12.44 -2.39,-19.86 0.48,-7.43 2.18,-14.93 5.1,-22.5 2.91,-7.57 7.02,-14.86 12.32,-21.85 5.29,-6.99 11.77,-12.9 19.42,-17.72 7.66,-4.82 16.45,-8.27 26.39,-10.33 9.93,-2.06 20.96,-1.94 33.08,0.35 2.81,0.53 5.01,1.68 6.59,3.44 1.58,1.76 2.37,3.5 2.36,5.24 0,1.73 -0.91,3.21 -2.71,4.44 -1.8,1.23 -4.68,1.65 -8.63,1.26 -6.73,-0.78 -13.02,-0.24 -18.87,1.62 -5.84,1.86 -11.18,4.59 -16.02,8.21 -4.84,3.61 -9.12,7.89 -12.87,12.81 -3.74,4.93 -6.95,10.01 -9.64,15.25 -2.7,5.23 -4.75,10.39 -6.16,15.47 -1.41,5.08 -2.19,9.69 -2.34,13.83 -0.16,4.13 0.32,7.51 1.43,10.12 1.11,2.61 2.97,3.97 5.58,4.09 3.06,0.21 5.88,-0.99 8.45,-3.62 2.58,-2.62 4.98,-6.01 7.23,-10.18 2.24,-4.17 4.24,-8.85 6,-14.05 1.76,-5.2 3.29,-10.18 4.59,-14.96 0.73,-4.71 1.55,-9.07 2.44,-13.08 0.89,-4 1.77,-7.15 2.65,-9.42zm50.85 -31.25c1.13,-3.75 3.58,-5.96 7.32,-6.62 3.75,-0.67 7.63,-0.27 11.63,1.2 4.01,1.47 7.43,3.8 10.27,7 2.84,3.19 3.99,6.77 3.46,10.74 -0.41,2.65 -1.58,6.36 -3.54,11.15 -1.95,4.78 -4.14,9.99 -6.56,15.63 -2.43,5.64 -4.92,11.35 -7.47,17.15 -2.56,5.8 -4.64,10.96 -6.27,15.49 -1.62,4.53 -2.52,8.14 -2.7,10.83 -0.18,2.7 0.79,3.84 2.91,3.44 3.24,-0.67 6.24,-2.44 9,-5.3 2.76,-2.86 5.28,-6.24 7.56,-10.12 2.27,-3.89 4.24,-7.95 5.9,-12.2 1.65,-4.24 2.93,-8.01 3.84,-11.29 1.04,-3.31 2.46,-5.64 4.24,-7.01 1.79,-1.37 3.5,-1.87 5.13,-1.49 1.64,0.38 2.87,1.61 3.7,3.68 0.82,2.06 0.74,4.96 -0.26,8.69 -0.99,3.73 -2.57,8.33 -4.73,13.79 -2.16,5.46 -4.91,10.77 -8.26,15.94 -3.35,5.17 -7.36,9.74 -12.01,13.69 -4.65,3.96 -9.97,6.29 -15.95,7.01 -5.83,0.7 -10.19,-0.94 -13.05,-4.93 -2.86,-3.99 -4.73,-9.29 -5.6,-15.9 -0.86,-6.61 -0.89,-14.01 -0.07,-22.2 0.82,-8.19 1.92,-16.16 3.3,-23.91 1.38,-7.75 2.88,-14.75 4.51,-21.02 1.63,-6.26 2.86,-10.74 3.7,-13.44z"/>
      <path fill="#00A859" d="M8016.63 3593.04c-8.64,-49.42 22.61,-60.14 58.27,-74.29 12.9,-5.12 20.24,-15.71 20.24,-15.71 -2.1,27.19 -4.07,72.12 -35.34,81.81 -14.3,4.43 -23.87,4.12 -37.07,14.2 15.28,-30.18 25.02,-38.13 47.89,-61.21 0,0 -20.39,11.97 -31.86,25.39 -11.47,13.42 -22.13,29.81 -22.13,29.81z"/>
      <path fill="#8A2281" fill-rule="nonzero" d="M7877.03 3744.81c-0.29,0.56 -0.88,0.93 -1.76,1.09 -2.36,0.79 -3.63,2.49 -3.8,5.13 0.08,2.39 1.12,4.2 3.12,5.4 0.89,0.46 1.76,0.69 2.63,0.69 2.33,-0.03 4.11,-1.07 5.34,-3.12 -2.63,-2.67 -4.47,-5.73 -5.53,-9.19zm7.02 6.75c1.13,-3.73 1.69,-7.38 1.69,-10.96 -0.39,-6.26 -1.4,-10.61 -3.04,-13.06 -0.54,-0.58 -1.04,-0.88 -1.52,-0.88 -1.65,0 -2.58,2.65 -2.77,7.96 0,7.06 1.88,12.7 5.64,16.94zm-7.78 -9.96c-0.34,-2.1 -0.51,-4.01 -0.51,-5.73 0.41,-7.58 2.17,-11.45 5.26,-11.61 2.18,0 3.9,1.79 5.19,5.35 1.32,3.72 1.99,7.48 1.99,11.3 -0.04,4.16 -0.84,8.24 -2.4,12.21 0.86,1 1.89,1.52 3.1,1.54 0.71,0 1.34,-0.24 1.89,-0.72 0.72,-0.64 1.11,-1.57 1.19,-2.81 0.05,-1.01 0.35,-1.52 0.88,-1.52 0.5,0 0.76,0.41 0.76,1.21 0,1.57 -0.48,2.98 -1.41,4.21 -0.95,1.24 -2.25,1.87 -3.92,1.89 -1.29,0 -2.68,-0.5 -4.15,-1.5 -1.86,2.29 -4.27,3.46 -7.25,3.51 -0.65,0 -1.32,-0.06 -2.01,-0.18 -1.9,-0.33 -3.38,-1.23 -4.46,-2.68 -1.08,-1.46 -1.62,-3.05 -1.62,-4.78 0,-2.76 0.73,-5.01 2.21,-6.75 1.48,-1.74 3.23,-2.72 5.26,-2.94zm28.73 9.79c-0.35,-1.93 -0.54,-3.54 -0.58,-4.84 -1.21,-2.12 -2.74,-3.17 -4.59,-3.17 -1.58,0 -2.86,0.59 -3.82,1.8 -0.98,1.2 -1.46,2.75 -1.46,4.66 0,1.8 0.52,3.32 1.55,4.59 1.03,1.26 2.28,1.89 3.73,1.89 2.37,0 4.09,-1.64 5.17,-4.93zm0.74 3.62c-1.41,2.53 -3.51,3.8 -6.29,3.8 -2.13,0 -3.94,-0.88 -5.45,-2.65 -1.5,-1.76 -2.26,-3.89 -2.26,-6.38 0,-2.75 0.76,-4.95 2.26,-6.58 1.51,-1.64 3.32,-2.46 5.45,-2.46 2.11,0 3.93,0.86 5.43,2.58 0.18,-0.93 0.72,-1.39 1.62,-1.39 0.59,0 1.05,0.37 1.41,1.11 0.25,0.59 0.39,1.43 0.39,2.52 0,0.75 -0.07,1.63 -0.2,2.63 -0.11,0.88 -0.17,1.71 -0.17,2.47 0.01,3.86 0.93,5.79 2.76,5.79 0.93,0 1.69,-0.45 2.31,-1.37 0.62,-0.92 0.99,-2.13 1.11,-3.64 0.1,-1.26 0.46,-1.89 1.09,-1.89 0.6,0 0.9,0.58 0.9,1.74 0,0.45 -0.06,1 -0.18,1.64 -0.36,1.91 -1.06,3.32 -2.08,4.25 -1.04,0.92 -2.07,1.38 -3.13,1.38l-0.04 0c-1.07,-0.01 -2.07,-0.3 -2.98,-0.88 -0.91,-0.57 -1.55,-1.46 -1.95,-2.67zm35.48 4.72c-1.88,-1.44 -3.61,-2.17 -5.16,-2.17 -2.09,0.08 -3.21,0.95 -3.34,2.6 0.04,1.78 1.17,2.67 3.38,2.67 1.79,0 3.5,-1.03 5.12,-3.1zm-4.49 -32.39c0.36,4.64 5.05,7.12 14.09,7.45 7.55,-0.02 13.67,-2.25 18.38,-6.68 -5.28,-4.85 -12.1,-7.42 -20.47,-7.71 -5.11,0.2 -8.83,1.69 -11.17,4.49 -0.55,0.79 -0.83,1.61 -0.83,2.45zm34.24 2.99c-5.67,4.81 -12.44,7.23 -20.29,7.25 -5.49,-0.11 -9.61,-0.91 -12.38,-2.38 -2.77,-1.47 -4.29,-3.64 -4.55,-6.51 0,-1.26 0.34,-2.59 1.02,-4 2.64,-4.48 7.67,-6.72 15.11,-6.72 7.8,0.05 14.63,2.65 20.51,7.8 0.49,-1.16 0.74,-2.13 0.74,-2.93 -0.04,-0.48 -0.06,-0.84 -0.06,-1.09 0,-0.85 0.17,-1.57 0.51,-2.13 0.41,-0.68 1,-1.03 1.77,-1.03 1.32,0.06 1.97,0.79 1.97,2.23 0,1.93 -0.92,4.37 -2.77,7.3 3.02,4.04 4.53,9.49 4.53,16.38 -0.69,13.32 -7.41,20.24 -20.16,20.77 -5.25,-0.09 -9.82,-1.35 -13.69,-3.77 -2.17,2.58 -4.59,3.87 -7.25,3.88 -1.64,0 -2.96,-0.36 -3.96,-1.09 -1.18,-0.86 -1.77,-2.1 -1.77,-3.74 0.15,-3.5 2.12,-5.25 5.91,-5.26 1.87,0 3.92,0.88 6.17,2.65 1.13,-2.02 1.76,-4.59 1.89,-7.72 -0.03,-2.69 -0.62,-4.52 -1.74,-5.46 -1.13,-0.95 -1.72,-2.05 -1.79,-3.3 0.08,-1.26 0.76,-1.96 2.03,-2.08 1.59,0.02 2.75,1.12 3.49,3.29 0.42,1.31 0.63,2.93 0.63,4.84 -0.13,4.88 -1.03,8.84 -2.69,11.87 3.51,2.17 7.78,3.29 12.81,3.37 11.09,-0.52 16.94,-6.54 17.56,-18.05 0,-6.24 -1.18,-11.03 -3.55,-14.37zm22.89 20.63c0.05,-0.36 0.08,-0.72 0.08,-1.12 0,-1.85 -0.54,-3.44 -1.62,-4.74 -1.08,-1.31 -2.39,-1.96 -3.92,-1.96 -1.44,0.08 -2.16,0.72 -2.16,1.93 0.06,2.19 1.58,3.89 4.54,5.13 1.02,0.39 2.05,0.64 3.08,0.76zm-0.53 2.01c-2.47,-0.21 -4.53,-0.88 -6.18,-2.01 -1.91,-1.3 -3.03,-2.9 -3.37,-4.8 -0.59,1.08 -0.89,2.31 -0.89,3.68 0,1.87 0.53,3.45 1.61,4.76 1.08,1.31 2.38,1.97 3.9,1.97 2.19,0 3.83,-1.2 4.93,-3.6zm2.97 -1.94c1.03,0 1.96,-0.26 2.8,-0.79 0.85,-0.54 1.36,-1.2 1.55,-1.99 0.2,-0.64 0.52,-0.96 0.93,-0.96 0.49,0 0.74,0.27 0.74,0.82 -0.01,1 -0.58,2.05 -1.71,3.13 -1.13,1.09 -2.72,1.68 -4.76,1.79 -1.57,3.85 -4.15,5.78 -7.72,5.78 -2.28,0 -4.22,-0.88 -5.82,-2.65 -1.61,-1.76 -2.41,-3.89 -2.41,-6.38 0,-2.49 0.8,-4.62 2.41,-6.39 1.6,-1.76 3.54,-2.65 5.82,-2.65 2.28,0 4.22,0.89 5.83,2.65 1.61,1.77 2.42,3.9 2.42,6.39 0,0.44 -0.03,0.85 -0.08,1.25zm12.65 2.01c0.32,2.21 1.43,3.36 3.33,3.43 0.01,0 0.02,0 0.02,-0.02 0.93,0 1.76,-0.48 2.51,-1.47 0.74,-0.98 1.16,-2.55 1.26,-4.7 0,-0.75 0.24,-1.11 0.72,-1.11 0.61,0 0.91,0.37 0.91,1.15 0,2.22 -0.5,4.15 -1.51,5.79 -1,1.63 -2.44,2.45 -4.3,2.45 -2.25,-0.01 -3.92,-1.08 -5.01,-3.2 -0.57,-1.1 -0.86,-2.38 -0.86,-3.84 0,-1.35 0.25,-2.86 0.74,-4.52 -1.1,0.93 -2.35,1.4 -3.76,1.4 -2.03,-0.15 -3.41,-1.15 -4.15,-3 -0.23,-0.74 -0.35,-1.41 -0.35,-1.99 0.26,-2 1.24,-3.06 2.95,-3.16 1.58,0.09 2.44,1.02 2.56,2.79 0,0.82 -0.25,1.81 -0.75,2.98 1.45,0 2.7,-0.63 3.74,-1.89 0.75,-0.91 1.44,-1.36 2.07,-1.36 0.91,0.06 1.36,0.58 1.36,1.54 0,0.52 -0.2,1.21 -0.61,2.09 -0.67,1.63 -1.01,3.26 -1.01,4.89 0,0.58 0.05,1.17 0.14,1.75zm20.1 -1.65c-0.35,-1.93 -0.54,-3.54 -0.59,-4.84 -1.21,-2.12 -2.73,-3.17 -4.58,-3.17 -1.58,0 -2.86,0.59 -3.83,1.8 -0.97,1.2 -1.45,2.75 -1.45,4.66 0,1.8 0.51,3.32 1.55,4.59 1.03,1.26 2.28,1.89 3.73,1.89 2.37,0 4.09,-1.64 5.17,-4.93zm0.74 3.62c-1.42,2.53 -3.51,3.8 -6.3,3.8 -2.12,0 -3.93,-0.88 -5.44,-2.65 -1.5,-1.76 -2.26,-3.89 -2.26,-6.38 0,-2.75 0.76,-4.95 2.26,-6.58 1.51,-1.64 3.32,-2.46 5.44,-2.46 2.12,0 3.94,0.86 5.44,2.58 0.18,-0.93 0.72,-1.39 1.62,-1.39 0.58,0 1.05,0.37 1.4,1.11 0.26,0.59 0.39,1.43 0.39,2.52 0,0.75 -0.06,1.63 -0.19,2.63 -0.12,0.88 -0.18,1.71 -0.18,2.47 0.02,3.86 0.94,5.79 2.77,5.79 0.93,0 1.69,-0.45 2.31,-1.37 0.62,-0.92 0.98,-2.13 1.1,-3.64 0.1,-1.26 0.47,-1.89 1.1,-1.89 0.59,0 0.89,0.58 0.89,1.74 0,0.45 -0.06,1 -0.18,1.64 -0.35,1.91 -1.05,3.32 -2.08,4.25 -1.03,0.92 -2.07,1.38 -3.12,1.38l-0.04 0c-1.08,-0.01 -2.07,-0.3 -2.98,-0.88 -0.91,-0.57 -1.56,-1.46 -1.95,-2.67z"/>
     </g>
    </g>
   </g>
  </g>
 </g>
</svg>
