<?xml version="1.0" encoding="UTF-8"?>
<!DOCTYPE svg PUBLIC "-//W3C//DTD SVG 1.1//EN" "http://www.w3.org/Graphics/SVG/1.1/DTD/svg11.dtd">
<!-- Creator: CorelDRAW 2021 (64 Bit) -->
<svg xmlns="http://www.w3.org/2000/svg" xml:space="preserve" width="100mm" height="100mm" version="1.1" shape-rendering="geometricPrecision" text-rendering="geometricPrecision" image-rendering="optimizeQuality" fill-rule="evenodd" clip-rule="evenodd"
viewBox="0 0 10000 10000"
 xmlns:xlink="http://www.w3.org/1999/xlink"
 xmlns:xodm="http://www.corel.com/coreldraw/odm/2003">
 <g id="Camada_x0020_1">
  <metadata id="CorelCorpID_0Corel-Layer"/>
  <rect fill="none" x="-3.84" y="3.78" width="10000" height="10000"/>
  <g id="_1489037941568">
   <g>
    <g>
     <path fill="#FEE2E2" d="M4748.71 8701.08c0,15.77 10.15,1.62 3.94,0 -0.08,-0.02 -3.94,-18.02 -3.94,0z"/>
     <path fill="#FEE2E2" d="M4761.41 8656.63l1.9 -1.89c-0.13,0.12 -2.53,1.26 -1.9,1.89z"/>
    </g>
    <g>
     <path fill="white" d="M3370.91 8605.84c0,7.46 13.66,14.3 9.82,0 -3.84,-14.35 16.16,-0.17 -2.93,-1.88 -8,-0.72 -6.89,-11.03 -6.89,1.88z"/>
     <path fill="white" d="M3485.19 7285.18l2.15 2.14c0.03,-0.04 0.75,-1.08 0.75,-1.12l-2.9 -1.02z"/>
    </g>
    <g>
     <path fill="#FBFBFC" d="M3409 7494.7c8.56,-4.8 7.02,-3.47 19.05,-6.35 -15.72,-21.45 -14.28,-21.57 -19.05,6.35z"/>
     <path fill="#FBFBFC" d="M3466.14 7348.67c0,15.77 10.16,1.62 3.94,0 -0.07,-0.02 -3.94,-18.01 -3.94,0z"/>
    </g>
    <path fill="#080808" d="M5345.58 1316.77c-11.61,-25.57 -21.28,-47.42 4.6,-69.67 21.04,10.02 14.2,4.18 13.52,34.9 47.16,-21.88 27.98,-0.55 45.14,-22.48 5.91,-7.55 0.64,-3.11 6.55,-10.22 15.2,9.39 21.9,9.71 20.44,35.08 -1.2,20.92 -2.24,14.39 -8.83,24.63l-81.42 7.76zm-1149.26 171.46c175.27,0 1503.43,11.87 1576.73,-10.6 90.5,-27.75 141.09,-93.75 152.29,-188.73 13.56,-115.05 11.01,-86.39 315.46,-86.39 71.91,0 136.32,2.01 203.99,24.58 97.58,32.55 146.16,94.92 192.5,175.77 15.19,26.49 24.47,54.64 31.95,89.12 28.93,133.18 -2.32,889.73 11.4,1140.29 0.67,12.34 4.62,29.96 4.62,49.64l0 2114.33c0,11.97 -9.27,22.62 -11.76,57.67 -3.8,53.74 -6.37,550.62 1.34,574.98 4.77,15.08 -0.6,0.58 6.49,12.56 7.35,12.41 4.59,4.37 10.28,15.12 -26.47,9.58 -6.06,-0.8 -6.38,127.03l1.29 64.57c-0.05,1.01 -0.32,2.87 -0.39,3.79l-0.87 2039.57c0,54.9 -0.96,110.57 -0.25,165.34 0.4,31.41 7.95,43.51 5.02,74.35 -6.92,72.76 10.9,249.74 -1.43,329.44 -21.91,141.61 29.07,219.11 -80.92,343.79 -38.42,43.56 -70.43,83.7 -128.15,106.78 -50.26,20.1 -125.45,27.94 -200.63,27.94l-2736.56 0c-95.89,0 -197.43,-78.3 -236.56,-138.49l-57.67 -126.51c-1.71,-10.38 0.04,-5.46 -2.96,-16.22 -0.35,-1.25 -1.05,-2.96 -1.44,-4.27l-12.66 -152.48c0.02,-39.3 3.7,-59.35 6.19,-89.36 7.75,-93.67 0.2,-452.98 0.33,-564.75 0.08,-66.45 -6.37,-109.65 -6.35,-177.78l0 -1320.67c0,-64.2 -17.49,-1750.71 -4.73,-1821.52 0.3,-1.67 0.89,-3.39 1.22,-4.9l0.23 -29.65c-3.73,-26.85 3.94,-18.66 0.93,-34.2l-3.97 -922.53c0.8,-281.87 -7.28,-1754.88 -0.36,-1802.99 9.59,-66.69 37.95,-129.98 76.45,-184.38 39.34,-55.61 116.33,-114.14 187.73,-124.37 3.05,-0.44 6.79,0.06 17.1,-1.71l62.87 -8.08c42.15,2.95 56.73,-5.78 100.49,-5.6 39.4,0.16 242.84,-8.02 275.45,3.23 44.3,15.28 4.57,193.91 160.71,259.33 24.94,10.45 57.82,16.96 90.98,16.96zm-1053.82 7046.83c4.7,73.93 142.08,227.01 235.8,260.72 44.48,16.01 57.47,27.1 94.74,31.27 142.78,15.99 712.28,7.08 869.31,7.16l1968.47 -1.68c210.25,-0.29 240.75,-33.01 370.99,-122.2 -2.68,-18.92 3.32,-5.35 -11,-4.85 24.65,-17.9 110.75,-128 115.32,-163.77 -0.22,-8.48 2.33,-32.46 2.27,-32.89 -3.1,-22.85 -11.98,0.82 -23.58,-32.27 -10.52,-30.04 -7.37,-326.05 -7.88,-372.31l-3.98 -1422.25c0.16,-317.4 -1.2,-634.98 -1.57,-952.4 -0.37,-315.8 4.11,-637.2 -2.48,-952.4 -6.58,-314.89 -2.27,-636.78 -2.81,-952.4l1.07 -1904.8c-0.01,-71.34 -7.49,-377.79 14.41,-439.16 0.63,-1.76 2.59,-6.72 3.13,-8.41l2.26 -8c19.02,-80.64 -100.25,-225.64 -184.35,-274.61 -11.14,11.06 -15.23,17.91 -24.35,28.33 -27.49,-8.04 -35.82,-17.69 -61.43,-26.2 -67.14,-22.33 -154.14,-27.58 -230.64,-27.51l-1022.24 1.13c-452.33,3.31 -906.2,2.22 -1358.76,2.06 -128.64,-0.05 -381.7,-11.41 -498.6,19.07 -67.75,17.66 -13.61,-13.9 -58.35,4.87 -60.84,25.52 -171.37,160.68 -189.33,235.04 -6.84,28.36 3.97,47.47 8.59,72.36 11.11,59.8 13.9,505.1 13.9,573.41 0,1927.01 9.81,3858.38 3.15,5784.25l0.98 514.29c-1.25,82.39 11.96,131.26 -22.82,140.74l-0.22 23.41z"/>
    <path fill="#141414" d="M3280.18 1196.13c-34.97,15.32 -82.98,74.14 -107.41,106.96l-69.84 128.03c-1.92,5.48 -4.94,18.94 -4.98,19.05 0.97,39.73 -10.24,64.42 -12.71,101.46 -8.79,131.89 -0.66,647.55 -0.66,793.76l3.24 885.55c9.63,115.06 1.61,730.41 1.61,898.61l7.07 1097.3c5.29,66.67 -1.73,131.81 -1.73,204.16 0.01,178.44 6.22,255.55 5.53,419.22l0.62 2260.36c0,79.13 3.91,143.49 4.76,222.23 0.72,65.86 -2.33,141.19 32.97,196.87 0.98,1.54 2.42,3.69 3.85,5.37l0.22 -23.41c34.78,-9.48 21.57,-58.35 22.82,-140.74l-0.98 -514.29c6.66,-1925.87 -3.15,-3857.24 -3.15,-5784.25 0,-68.31 -2.79,-513.61 -13.9,-573.41 -4.62,-24.89 -15.43,-44 -8.59,-72.36 17.96,-74.36 128.49,-209.52 189.33,-235.04 44.74,-18.77 -9.4,12.79 58.35,-4.87 116.9,-30.48 369.96,-19.12 498.6,-19.07 452.56,0.16 906.43,1.25 1358.76,-2.06l1022.24 -1.13c76.5,-0.07 163.5,5.18 230.64,27.51 25.61,8.51 33.94,18.16 61.43,26.2 9.12,-10.42 13.21,-17.27 24.35,-28.33 84.1,48.97 203.37,193.97 184.35,274.61l-2.26 8c-0.54,1.69 -2.5,6.65 -3.13,8.41 -21.9,61.37 -14.42,367.82 -14.41,439.16l-1.07 1904.8c0.54,315.62 -3.77,637.51 2.81,952.4 6.59,315.2 2.11,636.6 2.48,952.4 0.37,317.42 1.73,635 1.57,952.4l3.98 1422.25c0.51,46.26 -2.64,342.27 7.88,372.31 11.6,33.09 20.48,9.42 23.58,32.27 0.06,0.43 -2.49,24.41 -2.27,32.89 0.11,-0.09 13.62,13.07 29.09,-62.7 5.33,-26.1 9.64,-51.12 11.64,-76.41 8.32,-105.18 2.88,-404.22 2.89,-520.59 0.01,-230.72 -1.2,-461.36 -1.19,-692.08 0,-460.96 1.49,-923.34 -2.69,-1384.15 -12.49,-1376.35 -1.92,-2778 -1.81,-4158.82 0.01,-127.57 -10.09,-192.7 -59.67,-282.33 -41.67,-75.32 -97.53,-140.42 -165,-183.31 -155.48,-98.85 -408.19,-72.22 -625.26,-71.97l-2076.23 2.43c-101.4,0 -409.19,-10.87 -494.56,24.2 -14.33,5.88 -16.95,7.12 -30.4,13.59l-45.94 22.52c-21.38,15.12 -15.64,17.27 -46.82,24.04z"/>
    <path fill="#C1C6C9" d="M3008.99 2111.41l31.57 -0.18c-0.32,-137.98 -0.73,-275.75 -0.9,-413.47 -0.19,-154.51 3.73,-238.96 67.08,-353.22 103.75,-187.15 270.22,-277.85 556.23,-278.57l2501.64 -2.91c263.72,-0.35 441.04,-0.97 604.51,232.78 62.64,89.56 94.22,184.32 95.59,325.73 1.34,139.48 0.23,279.49 0.52,419.05 0.29,139.67 0.93,279.39 0.57,419.06 -0.34,136.32 6.16,286.81 0.31,420.94l-1.35 15.1c10.01,-2.02 24.2,-16.4 30.83,6.8 7.52,26.29 -20.91,3.38 -24.34,1.92 -10.22,152.06 8.71,709.68 -4.15,774.34l-0.84 990.47 28.14 19.05c-9.5,57.81 -9.48,513.42 -0.16,571.44l-28.47 19.04c7.81,26.23 3.35,681.44 3.6,768.27l2.72 1542.89c0.49,256.47 6.24,518.94 -0.64,774.72 -5.48,203.57 -115.52,384.06 -296.62,466.59 -153.73,70.05 -527.6,45.95 -727.68,46.47l-1930.2 2.88c-125.29,0.22 -263.77,5.73 -387.56,-2.07 -213.02,-13.43 -378.94,-165.2 -442.99,-329.68 -56.45,-144.95 -36,-543.21 -36.28,-736.68l-6.36 -3871.11 -16.14 -6.66c-1.35,-0.67 -3.3,-1.73 -4.59,-2.4l-9.61 -5.62c-3.51,-38.94 7.46,-75.8 7.2,-120.58l-0.83 -260.39c-0.29,-46.1 -7.75,-87.27 -8.27,-126.98 11.21,-7.13 -12.6,-17.47 27.53,-2.11 3.39,-23.35 8.05,-164.13 3.01,-181.66 -13.37,-46.51 -46.5,31.42 -24.16,-70.07 9.21,-41.87 6.58,-364.46 -3.71,-423.22 -4.97,-28.37 2.15,-12.32 -2.34,-40.42 14.04,-7.17 18.6,-0.95 27.37,-6.34l1.78 -307.8 -32.01 1.66c0,38.19 3.73,265.59 -3.6,289.83 -17.41,57.47 -9.1,100.48 -9.1,181.39 0,50.23 -5.95,320.29 6.1,355.81 14.97,44.15 13.17,56.09 13.18,114.26 0.02,78.9 -16.61,54.29 -19.58,101.06l2.7 486.81c12.44,51.38 16.84,-13.85 16.66,110.33 -0.17,113.62 -8.01,3127.32 1.73,3198.34 42.87,312.81 -66.93,1172 61.93,1398.41 12.87,22.6 30.1,51.78 46.84,73.8 46.16,60.76 134.68,140.63 203.21,171.4 135.41,60.79 246.94,53.4 435.5,53.4l2457.2 -6.35c221.23,0 408.35,-6.87 548.81,-187.71 150.2,-193.38 143.27,-297.18 143.27,-593.26 0,-82.54 0,-165.09 0,-247.63 0,-88.46 -6.4,-158.23 -6.35,-241.27l0.21 -3441.56c-0.06,-42.16 -6.76,-65.8 -6.58,-114.05l0.02 -247.65c-0.01,-83.96 -11.97,-99.65 19.05,-107.93l0 -888.91 -19.05 0c0,-130.42 8.18,-1192.32 -2.64,-1267.23 -18.57,-128.5 -28.64,-206.19 -109.73,-315.68 -60.89,-82.23 -128.22,-148.83 -229.5,-189.55 -148.83,-59.84 -222.61,-43.45 -381.96,-43.45l-2546.09 -0.01c-286.83,-0.65 -450.66,113.59 -552.8,298.01 -59.06,106.65 -69.43,191.73 -69.43,355.98 0,142.12 0,284.24 0,426.35z"/>
    <path fill="#292929" d="M3280.18 1196.13c31.18,-6.77 25.44,-8.92 46.82,-24.04l45.94 -22.52c13.45,-6.47 16.07,-7.71 30.4,-13.59 85.37,-35.07 393.16,-24.2 494.56,-24.2l2076.23 -2.43c217.07,-0.25 469.78,-26.88 625.26,71.97 67.47,42.89 123.33,107.99 165,183.31 49.58,89.63 59.68,154.76 59.67,282.33 -0.11,1380.82 -10.68,2782.47 1.81,4158.82 4.18,460.81 2.69,923.19 2.69,1384.15 -0.01,230.72 1.2,461.36 1.19,692.08 -0.01,116.37 5.43,415.41 -2.89,520.59 -2,25.29 -6.31,50.31 -11.64,76.41 -15.47,75.77 -28.98,62.61 -29.09,62.7 -4.57,35.77 -90.67,145.87 -115.32,163.77 14.32,-0.5 8.32,-14.07 11,4.85 -130.24,89.19 -160.74,121.91 -370.99,122.2l-1968.47 1.68c-157.03,-0.08 -726.53,8.83 -869.31,-7.16 -37.27,-4.17 -50.26,-15.26 -94.74,-31.27 -93.72,-33.71 -231.1,-186.79 -235.8,-260.72 -1.43,-1.68 -2.87,-3.83 -3.85,-5.37 -35.3,-55.68 -32.25,-131.01 -32.97,-196.87 -0.85,-78.74 -4.76,-143.1 -4.76,-222.23l-0.62 -2260.36c0.69,-163.67 -5.52,-240.78 -5.53,-419.22 0,-72.35 7.02,-137.49 1.73,-204.16l-7.07 -1097.3c0,-168.2 8.02,-783.55 -1.61,-898.61l-3.24 -885.55c0,-146.21 -8.13,-661.87 0.66,-793.76 2.47,-37.04 13.68,-61.73 12.71,-101.46 -41.88,50.26 -37.05,180.94 -37.04,234.89 0.15,597.09 5.26,1201.55 0.71,1796.86 -1.31,172.21 5.06,341.94 5.09,507.95l2.56 3600.07c-0.01,171.55 1.14,342.8 2.15,514.3 0.81,136.17 -9.41,177.98 12.64,308.15 3.31,19.56 1.77,40.38 4.14,60.33 4.46,37.43 36.25,107.15 53.64,132.78l87.37 117.72c29.84,34.86 23.58,16.83 51,42.81l36.49 26.27c137.54,91.75 344.68,67.17 536.76,67.07l2304.8 -3.5c151.47,-0.34 314.02,15.08 448.31,-63.38 55,-32.14 91.77,-69.36 133.8,-119 98.9,-116.78 113.49,-207.66 113.07,-404.17l-5.86 -2558.78c0,-341.54 5.42,-687.63 -0.89,-1028.59l-0.11 -958.1 20.52 -45.07c12.86,-64.66 -6.07,-622.28 4.15,-774.34 3.43,1.46 31.86,24.37 24.34,-1.92 -6.63,-23.2 -20.82,-8.82 -30.83,-6.8l1.35 -15.1c-10.13,-9.58 -13.97,-10.37 -16.86,-34.05l1.73 -983.73c0.88,-327.88 26.49,-486.25 -238.52,-694.82 -143.09,-112.61 -483.48,-78.64 -682.77,-78.65 -455.03,0 -910.1,1.26 -1365.11,1.1 -226.47,-0.08 -452.89,0.3 -679.38,0.17 -170.41,-0.1 -365.59,-19.42 -514.47,44.09l-57.47 25.15c-26.07,14.31 -15.29,-8.49 -18.58,17.2 -20.76,6.26 -5.77,-5.99 -14.5,19.05z"/>
    <path fill="#4B4C4C" d="M3008.99 2111.41c0,44.32 6.38,79.91 6.35,132.39 -0.01,22.89 0.89,47.38 0.21,70.03 -0.99,32.91 -6.56,37.56 -6.56,74.64l32.01 -1.66 -1.78 307.8c-8.77,5.39 -13.33,-0.83 -27.37,6.34 4.49,28.1 -2.63,12.05 2.34,40.42 10.29,58.76 12.92,381.35 3.71,423.22 -22.34,101.49 10.79,23.56 24.16,70.07 5.04,17.53 0.38,158.31 -3.01,181.66 -40.13,-15.36 -16.32,-5.02 -27.53,2.11 0.52,39.71 7.98,80.88 8.27,126.98l0.83 260.39c0.26,44.78 -10.71,81.64 -7.2,120.58l9.61 5.62c1.29,0.67 3.24,1.73 4.59,2.4l16.14 6.66 6.36 3871.11c0.28,193.47 -20.17,591.73 36.28,736.68 64.05,164.48 229.97,316.25 442.99,329.68 123.79,7.8 262.27,2.29 387.56,2.07l1930.2 -2.88c200.08,-0.52 573.95,23.58 727.68,-46.47 181.1,-82.53 291.14,-263.02 296.62,-466.59 6.88,-255.78 1.13,-518.25 0.64,-774.72l-2.72 -1542.89c-0.25,-86.83 4.21,-742.04 -3.6,-768.27l28.47 -19.04c-9.32,-58.02 -9.34,-513.63 0.16,-571.44l-28.14 -19.05 0.84 -990.47 -20.52 45.07 0.11 958.1c6.31,340.96 0.89,687.05 0.89,1028.59l5.86 2558.78c0.42,196.51 -14.17,287.39 -113.07,404.17 -42.03,49.64 -78.8,86.86 -133.8,119 -134.29,78.46 -296.84,63.04 -448.31,63.38l-2304.8 3.5c-192.08,0.1 -399.22,24.68 -536.76,-67.07l-36.49 -26.27c-27.42,-25.98 -21.16,-7.95 -51,-42.81l-87.37 -117.72c-17.39,-25.63 -49.18,-95.35 -53.64,-132.78 -2.37,-19.95 -0.83,-40.77 -4.14,-60.33 -22.05,-130.17 -11.83,-171.98 -12.64,-308.15 -1.01,-171.5 -2.16,-342.75 -2.15,-514.3l-2.56 -3600.07c-0.03,-166.01 -6.4,-335.74 -5.09,-507.95 4.55,-595.31 -0.56,-1199.77 -0.71,-1796.86 -0.01,-53.95 -4.84,-184.63 37.04,-234.89 0.04,-0.11 3.06,-13.57 4.98,-19.05l69.84 -128.03c24.43,-32.82 72.44,-91.64 107.41,-106.96 8.73,-25.04 -6.26,-12.79 14.5,-19.05 3.29,-25.69 -7.49,-2.89 18.58,-17.2l57.47 -25.15c148.88,-63.51 344.06,-44.19 514.47,-44.09 226.49,0.13 452.91,-0.25 679.38,-0.17 455.01,0.16 910.08,-1.1 1365.11,-1.1 199.29,0.01 539.68,-33.96 682.77,78.65 265.01,208.57 239.4,366.94 238.52,694.82l-1.73 983.73c2.89,23.68 6.73,24.47 16.86,34.05 5.85,-134.13 -0.65,-284.62 -0.31,-420.94 0.36,-139.67 -0.28,-279.39 -0.57,-419.06 -0.29,-139.56 0.82,-279.57 -0.52,-419.05 -1.37,-141.41 -32.95,-236.17 -95.59,-325.73 -163.47,-233.75 -340.79,-233.13 -604.51,-232.78l-2501.64 2.91c-286.01,0.72 -452.48,91.42 -556.23,278.57 -63.35,114.26 -67.27,198.71 -67.08,353.22 0.17,137.72 0.58,275.49 0.9,413.47l-31.57 0.18z"/>
    <path fill="#333435" d="M5345.58 1316.77l81.42 -7.76c6.59,-10.24 7.63,-3.71 8.83,-24.63 1.46,-25.37 -5.24,-25.69 -20.44,-35.08 -5.91,7.11 -0.64,2.67 -6.55,10.22 -17.16,21.93 2.02,0.6 -45.14,22.48 0.68,-30.72 7.52,-24.88 -13.52,-34.9 -25.88,22.25 -16.21,44.1 -4.6,69.67z"/>
    <path fill="#F91BA6" d="M3237.57 4243.84c1.34,7.25 13.96,13.89 8.54,1.29 -2.28,-5.32 -11.59,-17.78 -8.54,-1.29z"/>
    <path fill="#FF3686" d="M3313.76 4700.99l1.89 -1.89c-0.12,0.13 -2.52,1.26 -1.89,1.89z"/>
   </g>
   <g>
    <path fill="#8A2281" d="M4989.99 2150.7c680.42,0 1232.02,551.59 1232.02,1232.02 0,680.43 -551.6,1232.03 -1232.02,1232.03 -680.43,0 -1232.03,-551.6 -1232.03,-1232.03 0,-680.43 551.6,-1232.02 1232.03,-1232.02z"/>
    <path fill="#00A859" d="M4800.92 4436.7c-108.44,72.22 -269.59,28.31 -316.45,-110.01 -125.44,35.17 -265.14,-56.39 -266.96,-202.41 -130.17,-5.32 -234.74,-135.56 -191.34,-275.01 -122.16,-45.27 -181.37,-201.46 -97.01,-320.67 -102.18,-80.81 -110.23,-247.64 6.84,-334.95 -72.21,-108.43 -28.3,-269.59 110.02,-316.44 -35.18,-125.44 56.38,-265.14 202.41,-266.97 5.31,-130.16 135.56,-234.73 275,-191.34 45.28,-122.16 201.46,-181.36 320.67,-97 80.81,-102.19 247.65,-110.23 334.96,6.84 108.43,-72.22 269.58,-28.31 316.44,110.01 125.44,-35.17 265.14,56.39 266.96,202.41 130.17,5.32 234.74,135.56 191.35,275.01 122.15,45.27 181.36,201.46 97,320.67 102.18,80.81 110.23,247.64 -6.84,334.95 72.21,108.43 28.3,269.59 -110.01,316.45 35.17,125.44 -56.39,265.13 -202.42,266.96 -5.31,130.16 -135.56,234.74 -275,191.34 -45.28,122.16 -201.46,181.36 -320.67,97 -80.81,102.19 -247.65,110.23 -334.95,-6.84z"/>
    <path fill="#FEFEFE" d="M4812.72 4370.9c-101.66,67.71 -252.76,26.54 -296.69,-103.14 -117.61,32.98 -248.59,-52.87 -250.3,-189.78 -122.04,-4.98 -220.08,-127.09 -179.4,-257.83 -114.53,-42.45 -170.03,-188.89 -90.94,-300.65 -95.81,-75.77 -103.35,-232.19 6.41,-314.05 -67.71,-101.66 -26.54,-252.75 103.15,-296.69 -32.98,-117.61 52.86,-248.58 189.77,-250.29 4.98,-122.04 127.1,-220.09 257.84,-179.4 42.45,-114.53 188.88,-170.04 300.65,-90.95 75.77,-95.8 232.19,-103.34 314.04,6.42 101.67,-67.71 252.76,-26.54 296.69,103.14 117.61,-32.98 248.59,52.87 250.3,189.78 122.04,4.98 220.08,127.09 179.4,257.83 114.53,42.45 170.04,188.89 90.94,300.65 95.81,75.77 103.35,232.19 -6.41,314.05 67.71,101.66 26.54,252.76 -103.14,296.69 32.97,117.61 -52.87,248.59 -189.78,250.29 -4.98,122.04 -127.1,220.09 -257.84,179.4 -42.45,114.53 -188.88,170.04 -300.65,90.95 -75.76,95.8 -232.19,103.35 -314.04,-6.42z"/>
    <g>
     <g>
      <path fill="#8A2281" d="M4354.52 3880.31c0,0 -271.29,-326.38 -25.2,-649.54 161.76,-212.41 407.15,-246.85 711.51,-237.04 132.42,4.26 527.72,50.83 488.49,-179.85l-3.23 -18.97c-3.79,-22.32 -7.36,54.91 -13.45,71.75 -56.85,157.11 -430.15,79.38 -559.15,70.86 -864.9,-57.09 -964.12,607.88 -598.97,942.79z"/>
      <path fill="#8A2281" d="M5625.45 2885.13c0,0 271.3,326.38 25.2,649.54 -161.76,212.41 -407.15,246.85 -711.51,237.04 -132.42,-4.26 -527.72,-50.82 -488.49,179.85l3.23 18.98c3.8,22.31 7.36,-54.91 13.46,-71.76 56.84,-157.11 430.14,-79.37 559.14,-70.86 864.91,57.09 964.12,-607.88 598.97,-942.79z"/>
     </g>
     <path fill="#8A2281" fill-rule="nonzero" d="M4405.54 3480.55c-6.1,2.62 -10.53,2.68 -13.28,0.18 -2.76,-2.5 -4.36,-6.45 -4.83,-11.87 -0.46,-5.42 0.22,-11.54 2.04,-18.36 1.82,-6.82 4.41,-13.55 7.76,-20.18 3.35,-6.63 7.27,-12.48 11.76,-17.55 4.48,-5.06 9.26,-8.47 14.33,-10.21 6.24,-1.5 19.01,-2 38.31,-1.5 19.31,0.51 41.21,0.61 65.7,0.3 15.43,-31.66 30.9,-63.9 46.38,-96.71 15.49,-32.81 29.64,-63.38 42.46,-91.71 12.81,-28.34 23.53,-52.93 32.16,-73.78 8.62,-20.85 13.97,-35.17 16.05,-42.97 1.28,-5.06 3.11,-8.68 5.49,-10.85 3.09,-5.65 8.04,-9.27 14.83,-10.84 6.79,-1.57 14.35,-1.44 22.69,0.38 8.33,1.83 16.91,4.95 25.74,9.36 8.84,4.41 16.72,9.59 23.67,15.55 6.94,5.96 12.52,12.36 16.74,19.21 4.23,6.85 5.79,13.55 4.69,20.1 -0.82,5.76 -2.89,17.52 -6.23,35.27 -3.34,17.76 -7.21,38.89 -11.62,63.38 -4.41,24.5 -9.04,51.09 -13.89,79.79 -4.85,28.7 -9.22,56.67 -13.11,83.94 -3.89,27.26 -6.99,52.44 -9.3,75.55 -2.31,23.11 -3.04,41.4 -2.17,54.89 0.16,4.5 -1.36,9.12 -4.56,13.85 -3.21,4.72 -7.05,8.01 -11.55,9.88 -4.49,1.86 -9.21,1.86 -14.15,0 -4.94,-1.86 -9.04,-6.93 -12.3,-15.22 -5.97,-15.13 -10.73,-33.52 -14.28,-55.17 -3.55,-21.64 -6.29,-45.19 -8.22,-70.61 -10.05,4.23 -19.82,7.76 -29.29,10.6 -9.47,2.83 -18.98,5.3 -28.54,7.39 -9.56,2.1 -19.15,3.91 -28.78,5.45 -9.63,1.53 -19.63,3.11 -30,4.74 -10.64,21.28 -21.04,41.5 -31.19,60.64 -10.15,19.15 -19.5,36.31 -28.05,51.49 -8.55,15.18 -16.08,27.88 -22.59,38.09 -6.5,10.22 -11.65,16.88 -15.42,19.97 -6.49,5.69 -12.14,8.92 -16.95,9.69 -4.81,0.76 -8.24,-0.24 -10.27,-3.01 -2.03,-2.78 -2.5,-6.68 -1.41,-11.72 1.09,-5.04 4.3,-10.52 9.63,-16.44 2.99,-3.38 7.18,-9.26 12.59,-17.65 5.41,-8.39 11.6,-18.85 18.58,-31.39 6.98,-12.54 14.62,-26.66 22.92,-42.38 8.3,-15.71 16.86,-32.4 25.67,-50.07 -14.32,3.23 -29.5,7.23 -45.53,11.99 -16.04,4.76 -33.59,10.93 -52.68,18.51zm250.42 -280.32c-12.16,27.5 -26.51,58.84 -43.03,94.04 -16.51,35.2 -33.57,70.65 -51.16,106.35 16.87,-0.9 33.37,-2.6 49.48,-5.11 16.11,-2.5 30.64,-6.42 43.59,-11.75 -1.53,-31.52 -2.13,-63.14 -1.8,-94.88 0.33,-31.74 1.31,-61.29 2.92,-88.65zm283.04 37.82c20.46,-2.46 36.24,-0.68 47.34,5.35 11.11,6.02 18.63,14.45 22.58,25.3 3.94,10.84 4.98,23.36 3.1,37.55 -1.88,14.19 -5.36,28.38 -10.44,42.58 -5.09,14.19 -11.23,27.39 -18.45,39.58 -7.21,12.18 -13.97,21.86 -20.28,29.04 -6.67,7.22 -12.62,11.14 -17.83,11.77 -5.2,0.62 -9.7,-0.72 -13.5,-4.04 -3.79,-3.32 -6.91,-8.03 -9.34,-14.16 -2.44,-6.12 -4.13,-12.33 -5.08,-18.63 -0.94,-6.3 -1.01,-12.33 -0.19,-18.09 0.81,-5.76 2.39,-9.91 4.72,-12.46 2.34,-2.54 5.72,-6.63 10.13,-12.25 4.42,-5.63 8.97,-11.74 13.65,-18.34 4.67,-6.6 9.12,-13.55 13.34,-20.86 4.21,-7.29 7.22,-13.69 9.01,-19.19 1.79,-5.5 2.01,-9.96 0.65,-13.38 -1.35,-3.43 -5.01,-4.78 -10.96,-4.06 -10.79,1.3 -21.88,7.91 -33.27,19.85 -11.39,11.94 -21.91,26.51 -31.54,43.7 -9.62,17.2 -17.9,35.46 -24.82,54.78 -6.92,19.33 -10.92,37.07 -11.99,53.24 -1.07,16.16 1.06,29.21 6.41,39.13 5.34,9.93 15.45,13.99 30.33,12.2 17.11,-2.06 32.51,-7.4 46.19,-16.03 13.68,-8.63 25.68,-18.65 36,-30.09 10.32,-11.43 18.73,-23.1 25.22,-35.01 6.49,-11.91 11.11,-22.19 13.84,-30.82 2.36,-8.58 5.97,-14.68 10.82,-18.28 4.85,-3.6 9.32,-4.9 13.4,-3.88 4.09,1.02 7.21,4.23 9.37,9.63 2.16,5.4 2.12,12.95 -0.11,22.66 -2.6,9.74 -8.02,21.9 -16.27,36.48 -8.24,14.58 -18.88,28.88 -31.91,42.9 -13.03,14.02 -28.05,26.39 -45.06,37.12 -17.01,10.73 -35.56,17.3 -55.65,19.71l-4.46 0.54c-0.81,2.74 -1.63,5.29 -2.48,7.66 -0.85,2.36 -1.53,4.52 -2.05,6.47 -0.85,2.37 -1.34,4.5 -1.49,6.41 11.66,-0.27 21.5,1.47 29.49,5.22 8,3.76 14.19,8.95 18.58,15.6 4.38,6.64 6.87,13.98 7.46,22.02 0.59,8.05 -0.5,16.2 -3.28,24.45 -4.76,13.78 -12.36,23.57 -22.79,29.35 -10.44,5.79 -21.57,8.16 -33.39,7.13 -11.82,-1.03 -22.88,-5.07 -33.16,-12.14 -10.28,-7.06 -17.7,-16.93 -22.24,-29.59 -2.75,-7.21 -3.45,-12.98 -2.08,-17.3 1.37,-4.31 3.57,-7.12 6.62,-8.43 3.05,-1.31 6.58,-0.99 10.6,0.99 4.01,1.96 7.65,5.58 10.93,10.85 3.27,5.27 6.62,8.83 10.05,10.68 3.43,1.85 6.64,2.6 9.61,2.24 2.98,-0.36 5.56,-1.61 7.76,-3.77 2.19,-2.15 3.69,-4.59 4.49,-7.33 2.59,-6.73 1.84,-12.2 -2.26,-16.43 -4.09,-4.22 -10.2,-7.16 -18.33,-8.83 -3.48,-0.71 -6.1,-2.09 -7.85,-4.15 -1.76,-2.05 -2.99,-4.45 -3.7,-7.19 -0.71,-2.75 -0.86,-5.56 -0.45,-8.44 0.41,-2.88 0.83,-5.67 1.26,-8.36 0.52,-1.95 1.25,-4.49 2.2,-7.62 0.94,-3.14 2.12,-6.67 3.53,-10.62 -20.85,-3.9 -37.46,-13.41 -49.85,-28.53 -12.38,-15.11 -20.47,-32.91 -24.25,-53.4 -3.79,-20.49 -3.4,-42.33 1.17,-65.52 4.57,-23.19 13.26,-44.99 26.09,-65.4 12.83,-20.41 29.68,-37.91 50.57,-52.5 20.89,-14.59 45.65,-23.61 74.29,-27.06zm246.36 57.53c2.5,-7.47 7.96,-12.28 16.38,-14.42 8.42,-2.15 17.2,-2.08 26.35,0.22 9.14,2.3 16.93,6.64 23.36,13.04 6.43,6.4 8.95,14.77 7.55,25.13 -1.05,6.92 -3.45,15.22 -7.19,24.92 -3.74,9.7 -7.92,19.63 -12.54,29.81 -4.63,10.18 -9.17,20.26 -13.63,30.23 -4.46,9.97 -7.93,18.78 -10.41,26.44 -2.47,7.66 -3.37,13.52 -2.69,17.59 0.68,4.07 3.79,5.58 9.32,4.54 8.47,-1.78 16.31,-6.4 23.52,-13.87 7.21,-7.47 13.79,-16.28 19.74,-26.44 5.95,-10.14 11.09,-20.76 15.42,-31.85 4.32,-11.09 7.67,-20.92 10.03,-29.51 2.74,-8.63 6.43,-14.74 11.1,-18.32 4.66,-3.58 9.13,-4.87 13.4,-3.87 4.27,0.99 7.49,4.19 9.64,9.59 2.16,5.4 1.94,12.98 -0.66,22.72 -2.23,9.71 -6.16,21.69 -11.8,35.95 -5.65,14.27 -12.84,28.15 -21.6,41.66 -8.75,13.5 -19.2,25.42 -31.35,35.75 -12.16,10.33 -26.04,16.44 -41.67,18.32 -15.99,1.92 -27.74,-2.42 -35.24,-13.03 -7.51,-10.6 -12.27,-24.27 -14.28,-41.01 -8.45,17.62 -18.97,32.85 -31.58,45.68 -12.6,12.84 -27.74,19.57 -45.4,20.18 -19.15,0.8 -34.75,-3.36 -46.79,-12.48 -12.04,-9.12 -20.76,-21.28 -26.18,-36.47 -5.41,-15.2 -7.49,-32.5 -6.24,-51.89 1.25,-19.4 5.68,-38.99 13.3,-58.78 7.62,-19.78 18.35,-38.81 32.19,-57.08 13.84,-18.27 30.76,-33.7 50.75,-46.29 20,-12.6 42.97,-21.59 68.93,-26.97 25.95,-5.39 54.76,-5.09 86.43,0.92 7.34,1.38 13.07,4.37 17.21,8.96 4.14,4.6 6.2,9.16 6.18,13.69 -0.02,4.53 -2.39,8.4 -7.1,11.61 -4.71,3.21 -12.22,4.3 -22.53,3.28 -17.6,-2.03 -34.03,-0.62 -49.3,4.23 -15.26,4.86 -29.22,12.01 -41.85,21.45 -12.64,9.45 -23.84,20.61 -33.62,33.48 -9.77,12.88 -18.17,26.15 -25.2,39.83 -7.04,13.68 -12.4,27.15 -16.08,40.43 -3.69,13.27 -5.73,25.31 -6.13,36.11 -0.4,10.8 0.85,19.61 3.75,26.44 2.89,6.82 7.76,10.38 14.59,10.69 7.99,0.55 15.35,-2.6 22.07,-9.44 6.72,-6.85 13.01,-15.72 18.87,-26.62 5.86,-10.89 11.09,-23.12 15.68,-36.69 4.59,-13.58 8.59,-26.6 11.99,-39.09 1.92,-12.3 4.04,-23.69 6.37,-34.16 2.32,-10.47 4.64,-18.67 6.94,-24.61zm132.82 -81.64c2.97,-9.8 9.35,-15.56 19.14,-17.31 9.79,-1.74 19.92,-0.7 30.38,3.14 10.46,3.84 19.4,9.93 26.82,18.28 7.42,8.35 10.44,17.71 9.04,28.07 -1.05,6.92 -4.13,16.62 -9.23,29.13 -5.1,12.5 -10.82,26.11 -17.16,40.83 -6.34,14.73 -12.85,29.66 -19.52,44.81 -6.66,15.14 -12.12,28.63 -16.35,40.46 -4.24,11.83 -6.6,21.26 -7.07,28.3 -0.47,7.04 2.06,10.03 7.59,8.99 8.47,-1.77 16.31,-6.4 23.52,-13.87 7.22,-7.47 13.8,-16.28 19.75,-26.43 5.94,-10.15 11.08,-20.77 15.41,-31.86 4.32,-11.08 7.67,-20.92 10.03,-29.5 2.74,-8.63 6.44,-14.74 11.1,-18.32 4.66,-3.58 9.13,-4.87 13.4,-3.88 4.27,1 7.49,4.2 9.65,9.6 2.16,5.4 1.94,12.97 -0.67,22.72 -2.6,9.74 -6.72,21.75 -12.36,36.01 -5.64,14.27 -12.84,28.15 -21.59,41.66 -8.75,13.5 -19.21,25.42 -31.36,35.75 -12.15,10.33 -26.04,16.44 -41.66,18.32 -15.25,1.83 -26.62,-2.46 -34.1,-12.88 -7.48,-10.42 -12.35,-24.27 -14.62,-41.54 -2.27,-17.28 -2.33,-36.61 -0.19,-58 2.14,-21.39 5.02,-42.21 8.62,-62.45 3.6,-20.25 7.53,-38.55 11.79,-54.91 4.26,-16.36 7.47,-28.07 9.64,-35.12z"/>
     <path fill="#00A859" d="M5359.7 3178.82c-22.57,-129.11 59.06,-157.11 152.23,-194.07 33.69,-13.37 52.88,-41.03 52.88,-41.03 -5.5,71.03 -10.63,188.41 -92.34,213.71 -37.35,11.57 -62.36,10.77 -96.83,37.1 39.91,-78.85 65.37,-99.62 125.1,-159.92 0,0 -53.25,31.27 -83.22,66.34 -29.97,35.06 -57.82,77.87 -57.82,77.87z"/>
     <path fill="#8A2281" fill-rule="nonzero" d="M4995 3575.32c-0.75,1.46 -2.28,2.42 -4.59,2.85 -6.17,2.05 -9.49,6.5 -9.93,13.4 0.21,6.24 2.92,10.96 8.16,14.1 2.31,1.2 4.59,1.79 6.87,1.79 6.08,-0.07 10.72,-2.78 13.96,-8.15 -6.87,-6.95 -11.69,-14.95 -14.47,-23.99zm18.34 17.63c2.96,-9.76 4.42,-19.28 4.42,-28.64 -1.01,-16.36 -3.65,-27.73 -7.95,-34.11 -1.39,-1.53 -2.71,-2.29 -3.96,-2.29 -4.31,0 -6.73,6.92 -7.23,20.77 0,18.45 4.9,33.19 14.72,44.27zm-20.32 -26.03c-0.89,-5.47 -1.34,-10.46 -1.34,-14.97 1.1,-19.8 5.68,-29.9 13.75,-30.32 5.69,0 10.19,4.66 13.56,13.96 3.46,9.72 5.2,19.56 5.2,29.54 -0.1,10.87 -2.19,21.51 -6.28,31.89 2.25,2.62 4.94,3.96 8.11,4.03 1.86,0 3.51,-0.63 4.93,-1.9 1.88,-1.65 2.91,-4.1 3.12,-7.32 0.13,-2.66 0.9,-3.98 2.29,-3.98 1.32,0 1.98,1.06 1.98,3.17 0,4.1 -1.23,7.77 -3.68,11 -2.47,3.22 -5.88,4.87 -10.23,4.94 -3.39,0 -7,-1.32 -10.84,-3.93 -4.86,5.98 -11.17,9.04 -18.95,9.16 -1.69,0 -3.45,-0.14 -5.24,-0.45 -4.97,-0.89 -8.85,-3.22 -11.66,-7.02 -2.82,-3.81 -4.23,-7.97 -4.23,-12.49 0,-7.19 1.91,-13.07 5.77,-17.62 3.86,-4.54 8.44,-7.12 13.74,-7.69zm75.07 25.58c-0.92,-5.03 -1.43,-9.25 -1.53,-12.64 -3.17,-5.53 -7.15,-8.3 -11.98,-8.3 -4.14,0 -7.47,1.57 -10,4.71 -2.53,3.13 -3.8,7.2 -3.8,12.19 0,4.7 1.35,8.68 4.05,11.98 2.69,3.29 5.96,4.94 9.75,4.94 6.19,0 10.68,-4.3 13.51,-12.88zm1.93 9.47c-3.7,6.61 -9.18,9.93 -16.45,9.93 -5.54,0 -10.27,-2.32 -14.22,-6.94 -3.93,-4.61 -5.91,-10.17 -5.91,-16.66 0,-7.19 1.98,-12.93 5.91,-17.21 3.95,-4.27 8.68,-6.41 14.22,-6.41 5.53,0 10.28,2.24 14.21,6.73 0.47,-2.42 1.87,-3.62 4.22,-3.62 1.53,0 2.75,0.96 3.67,2.9 0.68,1.53 1.02,3.73 1.02,6.58 0,1.96 -0.17,4.26 -0.52,6.86 -0.29,2.31 -0.45,4.47 -0.45,6.47 0.04,10.08 2.45,15.13 7.23,15.13 2.42,0 4.42,-1.19 6.04,-3.59 1.61,-2.39 2.57,-5.56 2.88,-9.51 0.26,-3.28 1.22,-4.93 2.85,-4.93 1.57,0 2.35,1.51 2.35,4.53 0,1.19 -0.16,2.61 -0.47,4.28 -0.94,4.99 -2.76,8.69 -5.44,11.11 -2.7,2.4 -5.41,3.62 -8.15,3.62l-0.11 0c-2.81,-0.04 -5.41,-0.8 -7.79,-2.3 -2.38,-1.49 -4.07,-3.82 -5.09,-6.97zm92.68 12.33c-4.92,-3.78 -9.42,-5.67 -13.49,-5.67 -5.46,0.21 -8.36,2.47 -8.71,6.78 0.1,4.66 3.04,6.97 8.81,6.97 4.68,0 9.15,-2.69 13.39,-8.08zm-11.72 -84.62c0.92,12.1 13.18,18.59 36.79,19.46 19.73,-0.06 35.73,-5.88 48.02,-17.46 -13.79,-12.67 -31.61,-19.38 -53.48,-20.13 -13.33,0.52 -23.07,4.42 -29.17,11.72 -1.43,2.07 -2.16,4.2 -2.16,6.41zm89.45 7.81c-14.83,12.55 -32.51,18.88 -53.03,18.93 -14.32,-0.29 -25.1,-2.36 -32.33,-6.21 -7.23,-3.84 -11.2,-9.51 -11.88,-17 0,-3.3 0.89,-6.78 2.66,-10.45 6.89,-11.72 20.05,-17.57 39.47,-17.57 20.37,0.14 38.23,6.93 53.58,20.37 1.29,-3.02 1.93,-5.56 1.93,-7.63 -0.09,-1.27 -0.14,-2.21 -0.14,-2.85 0,-2.24 0.44,-4.1 1.32,-5.56 1.08,-1.8 2.63,-2.7 4.63,-2.7 3.44,0.14 5.14,2.07 5.14,5.81 0,5.06 -2.4,11.42 -7.23,19.09 7.89,10.53 11.82,24.79 11.82,42.78 -1.79,34.81 -19.35,52.89 -52.66,54.26 -13.71,-0.24 -25.64,-3.53 -35.76,-9.84 -5.67,6.73 -11.98,10.1 -18.95,10.14 -4.28,0 -7.72,-0.96 -10.33,-2.85 -3.09,-2.25 -4.64,-5.5 -4.64,-9.78 0.4,-9.14 5.55,-13.71 15.44,-13.75 4.89,0 10.26,2.3 16.13,6.92 2.96,-5.27 4.61,-11.98 4.94,-20.16 -0.09,-7.03 -1.62,-11.79 -4.55,-14.26 -2.94,-2.49 -4.49,-5.36 -4.66,-8.62 0.21,-3.29 1.98,-5.11 5.3,-5.44 4.14,0.06 7.18,2.93 9.11,8.6 1.09,3.42 1.63,7.65 1.63,12.64 -0.33,12.76 -2.67,23.1 -7.02,31.02 9.16,5.66 20.32,8.6 33.47,8.81 28.96,-1.37 44.26,-17.09 45.88,-47.17 0,-16.3 -3.08,-28.8 -9.27,-37.53zm59.79 53.88c0.14,-0.93 0.21,-1.88 0.21,-2.91 0,-4.85 -1.41,-8.99 -4.23,-12.39 -2.83,-3.41 -6.24,-5.13 -10.24,-5.13 -3.77,0.21 -5.65,1.89 -5.65,5.04 0.16,5.72 4.12,10.17 11.86,13.4 2.68,1.03 5.37,1.69 8.05,1.99zm-1.38 5.25c-6.45,-0.54 -11.83,-2.3 -16.15,-5.25 -4.99,-3.4 -7.93,-7.57 -8.81,-12.52 -1.55,2.81 -2.33,6.01 -2.33,9.61 0,4.87 1.41,9.01 4.22,12.43 2.82,3.43 6.21,5.15 10.19,5.15 5.7,0 10,-3.15 12.88,-9.42zm7.74 -5.05c2.7,0 5.13,-0.69 7.34,-2.08 2.21,-1.39 3.54,-3.13 4.03,-5.2 0.54,-1.67 1.36,-2.5 2.43,-2.5 1.29,0 1.95,0.71 1.95,2.13 -0.03,2.63 -1.53,5.36 -4.48,8.19 -2.96,2.84 -7.11,4.38 -12.43,4.66 -4.11,10.09 -10.84,15.13 -20.17,15.13 -5.95,0 -11.02,-2.32 -15.21,-6.94 -4.19,-4.61 -6.3,-10.17 -6.3,-16.66 0,-6.51 2.11,-12.08 6.3,-16.7 4.19,-4.61 9.26,-6.92 15.21,-6.92 5.94,0 11.02,2.31 15.23,6.92 4.21,4.62 6.31,10.19 6.31,16.7 0,1.14 -0.07,2.21 -0.21,3.27zm33.05 5.25c0.85,5.78 3.76,8.77 8.71,8.96 0.03,0 0.05,-0.02 0.05,-0.05 2.42,0 4.61,-1.27 6.56,-3.85 1.94,-2.55 3.04,-6.65 3.28,-12.29 0,-1.95 0.63,-2.9 1.88,-2.9 1.6,0 2.4,0.99 2.4,3.01 0,5.8 -1.32,10.85 -3.95,15.12 -2.62,4.28 -6.38,6.42 -11.23,6.42 -5.88,-0.04 -10.24,-2.82 -13.09,-8.37 -1.49,-2.88 -2.24,-6.22 -2.24,-10.03 0,-3.53 0.64,-7.47 1.93,-11.82 -2.89,2.45 -6.16,3.67 -9.83,3.67 -5.3,-0.4 -8.91,-3.01 -10.84,-7.84 -0.61,-1.93 -0.93,-3.67 -0.93,-5.2 0.68,-5.21 3.26,-7.98 7.71,-8.24 4.13,0.23 6.38,2.66 6.71,7.28 0,2.14 -0.66,4.73 -1.98,7.79 3.8,0 7.05,-1.65 9.78,-4.93 1.97,-2.39 3.76,-3.57 5.39,-3.57 2.38,0.16 3.57,1.51 3.57,4.02 0,1.35 -0.53,3.18 -1.59,5.46 -1.75,4.27 -2.64,8.53 -2.64,12.77 0,1.53 0.12,3.06 0.35,4.59zm52.52 -4.32c-0.92,-5.03 -1.42,-9.25 -1.53,-12.64 -3.16,-5.53 -7.14,-8.3 -11.98,-8.3 -4.14,0 -7.47,1.57 -9.99,4.71 -2.54,3.13 -3.81,7.2 -3.81,12.19 0,4.7 1.35,8.68 4.05,11.98 2.69,3.29 5.96,4.94 9.75,4.94 6.19,0 10.68,-4.3 13.51,-12.88zm1.93 9.47c-3.7,6.61 -9.18,9.93 -16.45,9.93 -5.54,0 -10.27,-2.32 -14.22,-6.94 -3.93,-4.61 -5.91,-10.17 -5.91,-16.66 0,-7.19 1.98,-12.93 5.91,-17.21 3.95,-4.27 8.68,-6.41 14.22,-6.41 5.53,0 10.28,2.24 14.21,6.73 0.47,-2.42 1.88,-3.62 4.22,-3.62 1.53,0 2.75,0.96 3.67,2.9 0.68,1.53 1.03,3.73 1.03,6.58 0,1.96 -0.18,4.26 -0.52,6.86 -0.3,2.31 -0.46,4.47 -0.46,6.47 0.04,10.08 2.45,15.13 7.24,15.13 2.41,0 4.41,-1.19 6.03,-3.59 1.62,-2.39 2.57,-5.56 2.88,-9.51 0.27,-3.28 1.22,-4.93 2.86,-4.93 1.56,0 2.34,1.51 2.34,4.53 0,1.19 -0.15,2.61 -0.47,4.28 -0.94,4.99 -2.76,8.69 -5.44,11.11 -2.69,2.4 -5.41,3.62 -8.15,3.62l-0.11 0c-2.81,-0.04 -5.4,-0.8 -7.79,-2.3 -2.38,-1.49 -4.06,-3.82 -5.09,-6.97z"/>
    </g>
   </g>
   <g>
    <g>
     <path fill="#64365C" d="M4284.09 5570.43c7.59,-2.31 25.87,2.97 16.94,-17.46 -7.24,-16.55 -8.63,-7.04 -17.79,-4.7 -7.43,17.35 -10.53,-0.12 0.85,22.16z"/>
     <path fill="#64365C" d="M5656.09 5738.53c55.79,11.65 -6.8,-58.35 0,0z"/>
    </g>
    <g>
     <path fill="#935C25" d="M4755.05 4635.64c31.34,-34.67 -2.7,-15.01 57.72,-84.79 7.76,-8.98 4.48,-4.99 11.63,-15.21 -44.28,11.02 -68.06,46.79 -69.35,100z"/>
     <path fill="#935C25" d="M4769.32 4872.75c-49.09,-44.85 -31.27,-13.27 -71.14,-74.34l-14.66 -20.52c5.66,56.31 33.19,85.82 85.8,94.86z"/>
     <path fill="#935C25" d="M4668.21 4429.32c41.58,-17.19 29.05,-21.38 84.33,-29.19 24.39,-3.45 17.74,-0.37 35.38,-9.92 -56.59,-12.73 -96.16,1.26 -119.71,39.11z"/>
     <path fill="#935C25" d="M5007.01 4570.46l20.29 -19.78c9.9,-11.47 8.3,-11.02 21.54,-21.58l40.38 -24.14c9.38,-6.19 9.17,-7.02 14.72,-12.15 -54.82,6.24 -85.75,29.37 -96.93,77.65z"/>
     <path fill="#935C25" d="M5441.81 4979.01c56.04,16.49 89.54,-14.36 112.01,-47.44 -39.26,24.98 -60.25,32.69 -112.01,47.44z"/>
     <path fill="#935C25" d="M4572.58 4805.43c-22.62,-34.96 -53.05,-58.93 -110.76,-52.04 26.58,16.8 38.16,7.21 81.35,34.6 16.45,10.43 11.17,9.1 29.41,17.44z"/>
    </g>
    <g>
     <path fill="#9A6428" d="M4633.97 4571.04c7.55,41.16 -21.91,72.19 -53.55,91.34 4.65,5.18 -9.35,23.27 29.78,2.74 36.46,-19.12 40.64,-71.76 39.48,-108.01 -1.3,1.94 -4.5,1.64 -5.24,4.64 -6.55,26.21 3.04,-4.18 -10.47,9.29z"/>
     <path fill="#9A6428" d="M4278.64 4390.79c25.51,13.04 48.89,12.95 78.96,-0.51 36.52,-16.35 35.63,-14.68 48.87,-50.66 -54.09,28.19 -40.46,39.06 -127.83,51.17z"/>
     <path fill="#9A6428" d="M4263.64 4855.29c-10.28,-66.29 -12.99,-68.02 -6.36,-138.26 -33.63,38.29 -29.72,104.91 6.36,138.26z"/>
     <path fill="#9A6428" d="M4933.63 4377.7c1.27,-14.08 -9.7,-6.94 5.51,-11.15 0,-0.01 -0.14,-30.09 -27.48,3.8 -4.95,6.13 -14.01,23.1 -17.35,33.16 -9.58,28.85 -9.9,54.63 5.08,77.63 2.06,-41.16 1.95,-81.42 34.24,-103.44z"/>
     <path fill="#9A6428" d="M4362.89 4609.64c5.03,13.31 -8.46,-4.15 5.94,9.26 6.45,5.99 7.12,4.09 16.03,12.11 18.64,16.76 13.59,10.73 16.51,32.77l16.2 7.09c-2.65,-52.01 -46.09,-84.69 -101.42,-91.49 6.37,6.21 4.71,6.23 14.05,12.82l32.69 17.44z"/>
     <path fill="#9A6428" d="M5069.02 5014.61c6.69,-9.64 34.11,-29.14 52,-40.29 11.61,-7.23 20.62,-11.28 33.19,-16.58 4,-1.68 12.33,-4.57 15.51,-6.09 2.1,-1 8.67,-4.33 10.47,-5.37l10.03 -7.14c-63.85,-1.49 -117.16,39.71 -121.2,75.47z"/>
     <path fill="#9A6428" d="M4526.15 4552.91c-18.8,-12.03 -34.94,-15.54 -51.55,-25.27 -30.12,-17.65 -10.31,-18.32 -50.19,-34.76 18.21,57.64 78.5,69.99 101.74,60.03z"/>
     <path fill="#9A6428" d="M5466.43 4762.18c14.4,9.21 39.41,17.66 57.85,27.08 26.02,13.3 28.42,23.64 50.63,35.79 -16.3,-50.75 -52.38,-66.43 -108.48,-62.87z"/>
     <path fill="#9A6428" d="M4838.12 4975.29c22.05,-11.83 27.51,-29.06 52.24,-45.44 12.7,-8.41 41.26,-21.25 57.96,-28.54 -61.17,-7.02 -95.46,30.15 -110.2,73.98z"/>
     <path fill="#9A6428" d="M5119.86 4777.03c29.29,-25.22 19.04,-31.35 38.96,-51.82l38.38 -39.3c-40.62,0.81 -73.26,45.39 -77.34,91.12z"/>
    </g>
    <g>
     <path fill="#B99966" d="M5620.89 4785.72l30.88 2.77c-2.14,-43.7 -8.56,-34.77 -22.58,-70.75l15.62 -15.42c32.97,-29.22 60.05,-58.7 1.14,-101.71 12.55,84.42 -19.59,44.42 -51.4,88.04 -26.27,36.01 9.64,70.98 26.34,97.07z"/>
     <path fill="#B99966" d="M5656.2 4548.75c60.07,11.42 63.68,-12.74 81.83,-53.58 21.14,-47.56 56.39,-41.72 69.97,-67.75 -121.11,-16.73 -105.94,60.73 -120.88,88.5 -10.93,20.33 -23.13,17.95 -30.92,32.83z"/>
     <path fill="#B99966" d="M5299.44 4446.11c11.36,-17.25 14.36,-17.29 24.81,-38.76 5.57,-85.55 -2.75,-51.21 49.73,-90.93 -38.1,-21.56 -81.8,-0.19 -89.45,39.07 -14.07,72.28 10.92,46.15 -38.47,99.09l53.38 -8.47z"/>
     <path fill="#B99966" d="M5378.78 4216.09c18.51,-22.91 76.45,-62.07 30.44,-115.55l-12.8 30.88c-11.54,23.95 -40,45.95 -59.02,62.55 1.08,54.29 20.75,68.23 67.55,82.41 -14.18,-26.54 -20.15,-29.51 -26.17,-60.29z"/>
     <path fill="#B99966" d="M5597.27 4584c-1.63,-1.35 -4.36,-5.08 -5.37,-3.44 -1,1.63 -4.06,-2.55 -5.45,-3.16l-11.2 -4.75c-80.15,-30.45 -48.01,-81.64 -143.76,-76.41 81.8,86.23 82.68,130.14 165.78,87.76z"/>
     <path fill="#B99966" d="M5423.52 4304c17.41,-15.04 21.83,-22.03 45.25,-28.42 -0.06,-0.05 0.31,-33.05 -41.94,1.75 -35.66,29.37 -13.09,21.61 -3.31,26.67z"/>
    </g>
    <g>
     <path fill="#DB9B42" d="M4278.64 4390.79c87.37,-12.11 73.74,-22.98 127.83,-51.17 -13.24,35.98 -12.35,34.31 -48.87,50.66 -30.07,13.46 -53.45,13.55 -78.96,0.51zm-29.97 -27l4.53 52.12 30.1 16.27c11.85,5.13 21.82,7.83 36.45,9.05 26.96,2.25 53.62,-2.16 73.67,-15.69 55.54,-37.47 31.3,-65.9 37.49,-122.1 -30.28,-17.59 -61.64,-43.34 -113.59,-18.39 -32.16,15.45 -55.79,41.35 -68.65,78.74z"/>
     <path fill="#DB9B42" d="M4557.52 4539.04c-8.03,25.91 -11.72,16.81 -25.15,50.25 -2.13,34.68 -6.72,62.64 5.95,82.85 20.44,2.45 -0.45,-12.78 25.27,8.28 14.83,-31.18 5.03,-8.94 16.83,-18.04 31.64,-19.15 61.1,-50.18 53.55,-91.34l-5.85 -53.02c-33.36,-8.55 -48.24,9.36 -70.6,21.02z"/>
     <path fill="#DB9B42" d="M4993.53 4790.58c19.97,-29.6 56.87,-33.2 56.47,-87.21 -8.54,12.18 3.46,-3.17 -31.56,3.03 -25.76,4.58 -106.09,-2.4 -145.33,46.41 61.68,48.79 95.09,32.99 120.42,37.77z"/>
     <path fill="#DB9B42" d="M4939.14 4366.55c-15.21,4.21 -4.24,-2.93 -5.51,11.15 -7.89,41.47 -24.77,43.28 -26.02,89.22 48.53,41.17 64.06,7.69 78.86,0.03l6.3 -2.06c9.59,-37.28 17.91,-100.53 -13.75,-119.84l-28.65 -8.76c-0.11,0.64 0.81,1.42 0.73,3.09 -1.24,27.68 -0.49,18.77 -11.96,27.17z"/>
     <path fill="#DB9B42" d="M4302.52 4650.63c4.76,17.4 0.74,14.33 19.5,29.39 21.92,17.59 9.45,9.98 27.61,12.78 34.76,-0.11 80.29,30.97 51.74,-29.02 -2.92,-22.04 2.13,-16.01 -16.51,-32.77 -8.91,-8.02 -9.58,-6.12 -16.03,-12.11 -14.4,-13.41 -0.91,4.05 -5.94,-9.26 -19.45,6.31 28.04,23.09 -35.76,0.64 -0.06,34.27 3.44,9.02 -5.08,9.53l-16.49 -1.85c-1.11,-2.48 -4.78,-1.05 -8.62,-0.17l5.58 32.84z"/>
    </g>
    <g>
     <path fill="#D69947" d="M4491.96 4300.78c-2.96,53.5 -13.88,100 17.94,134.28 35,18.2 73.09,-4.19 96.87,-32.49 29.71,-35.36 14.21,-76.77 17.89,-122.57 -21.04,-27.03 -15.34,-45.03 -38.52,-70.78 -61.61,-3.34 -67.98,48.94 -94.18,91.56z"/>
     <path fill="#D69947" d="M5270.73 4771.9c-86.55,58.73 8.09,162.84 11.9,170.29l21.2 6.63c56.78,25.49 85.78,-27.3 92.91,-70.65 9.09,-55.34 -10.94,-87.37 -49.64,-109.38l22.31 -3.64 -88.58 -5.03 -10.1 11.78z"/>
     <path fill="#D69947" d="M3947.31 4781.19c-11.52,39.88 -42.73,44.35 12.59,94.46 48.8,16.64 66.45,32.01 122.11,5.61 35.1,-16.66 73.44,-33.3 85.82,-70.35 -14.35,-79.81 -160.05,-55.28 -220.52,-29.72z"/>
     <path fill="#D69947" d="M4484.79 4881.82c-17.85,23.45 -42.62,29.54 -20.16,70.43 7.39,13.46 40.17,44.09 58.3,50.64 62.11,22.48 139.21,-26.28 171.26,-43.65 6.25,-93.78 -131.75,-95.97 -209.4,-77.42z"/>
     <path fill="#D69947" d="M4263.64 4855.29c-36.08,-33.35 -39.99,-99.97 -6.36,-138.26 -6.63,70.24 -3.92,71.97 6.36,138.26zm61.63 -94.58c-5.27,-53.83 -19.78,-90.65 -76.97,-85.81 -31.41,31.42 -69.12,48.8 -57.14,120.56 8.26,49.52 37.35,98.29 71.43,117.26 52.51,-13.89 74.06,-90 62.68,-152.01z"/>
     <path fill="#D69947" d="M5069.02 5014.61c4.04,-35.76 57.35,-76.96 121.2,-75.47l-10.03 7.14c-1.8,1.04 -8.37,4.37 -10.47,5.37 -3.18,1.52 -11.51,4.41 -15.51,6.09 -12.57,5.3 -21.58,9.35 -33.19,16.58 -17.89,11.15 -45.31,30.65 -52,40.29zm-40.96 -10.24c-14.68,6.38 -9.22,25.02 -5.46,42.92 39.07,19.19 87.87,13.27 130.43,-5.29 51.02,-22.25 52.96,-39.55 85.11,-73.47l-0.81 -38.37c-100.75,-75.22 -180.57,-3.27 -209.27,74.21z"/>
     <path fill="#D69947" d="M4280.3 4641.31l22.22 9.32 -5.58 -32.84c3.84,-0.88 7.51,-2.31 8.62,0.17l16.49 1.85c8.52,-0.51 5.02,24.74 5.08,-9.53 63.8,22.45 16.31,5.67 35.76,-0.64l-32.69 -17.44c-9.34,-6.59 -7.68,-6.61 -14.05,-12.82 55.33,6.8 98.77,39.48 101.42,91.49l-16.2 -7.09c28.55,59.99 -16.98,28.91 -51.74,29.02 18.67,26.02 47.36,32.21 84.85,23.74 36.01,-38.25 23.83,-99.39 -14.86,-134.35 -35.16,-31.77 -93.95,-51.05 -149.83,-45.15 -29.27,49.2 5.12,62.3 10.51,104.27z"/>
     <path fill="#D69947" d="M4909.24 4325.36c-28.58,18.79 -38.87,27.26 -57.04,54.67 -21.63,51.34 -8.05,101.74 27.12,122.42 52.9,31.09 90.38,9.45 107.15,-35.5 -14.8,7.66 -30.33,41.14 -78.86,-0.03 1.25,-45.94 18.13,-47.75 26.02,-89.22 -32.29,22.02 -32.18,62.28 -34.24,103.44 -14.98,-23 -14.66,-48.78 -5.08,-77.63 3.34,-10.06 12.4,-27.03 17.35,-33.16 27.34,-33.89 27.48,-3.81 27.48,-3.8 11.47,-8.4 10.72,0.51 11.96,-27.17 0.08,-1.67 -0.84,-2.45 -0.73,-3.09l28.65 8.76c-8.13,-13.65 -7.57,-22.45 -30.18,-26.63 -16.43,-3.04 -29.45,2.98 -39.6,6.94z"/>
     <path fill="#D69947" d="M4633.97 4571.04c13.51,-13.47 3.92,16.92 10.47,-9.29 0.74,-3 3.94,-2.7 5.24,-4.64 1.16,36.25 -3.02,88.89 -39.48,108.01 -39.13,20.53 -25.13,2.44 -29.78,-2.74 -11.8,9.1 -2,-13.14 -16.83,18.04 -25.72,-21.06 -4.83,-5.83 -25.27,-8.28 18.05,38.97 36.79,43.68 84.42,27.2 36.22,-11.28 56.48,-41.21 71.15,-74.8 2.02,-60.27 -17.86,-92.3 -65.77,-106.52l5.85 53.02z"/>
    </g>
    <g>
     <path fill="#4A0B35" d="M4943.37 4860.3c18.43,16.21 29.58,4.86 33.07,44.69 2.13,24.31 -11.82,49.68 -18.59,70.71l26.76 -12.59c12.94,-4.07 -14.08,-18.93 19.25,-1.02 5.5,2.94 9.09,13.16 10.76,16.31l13.44 25.97c28.7,-77.48 108.52,-149.43 209.27,-74.21l0.81 38.37c16.25,-18.74 13.22,24.49 13.42,-24.04l31.07 -2.3c-3.81,-7.45 -98.45,-111.56 -11.9,-170.29 -1.97,-1.2 -4.62,-2.05 -6.38,-2.66 -1.76,-0.6 -4.23,-1.82 -6.39,-2.48 -2.14,-0.67 -4.09,-1.48 -6.46,-2.1l-36.75 -3.95c-12.14,2.59 -28.57,28.98 -56.03,43.94 -91.2,49.68 -66.47,-64.21 -66.85,-77.49 -13.83,-13.64 -12.04,9.2 -14.84,58.69 -80.1,33.73 -65.16,35.05 -111.76,55.47 -28.66,12.57 -17.94,-3.49 -21.9,18.98z"/>
     <path fill="#4A0B35" d="M5303.83 4948.82c-2.59,2.56 -8.94,0.99 -9.03,6.14l-0.21 13.57c36.52,12.61 31.65,1.87 58.95,7.39 23.25,4.71 11.33,1.37 24.73,14.31 32.53,31.41 -23.71,2.77 23.75,23.88 11.48,-4.95 0.82,0.97 3.27,-14.63 -23.23,-74.97 131,-143.19 175.68,-87.27 19.38,29.77 -15.96,61.28 -27.84,81.21 20.49,18.63 21.91,-16.91 42.42,18.19l8.91 -78.79c1.39,-48.8 1.56,-35.88 55.62,-35.88 0,-10.89 1.22,-30.69 0.08,-40.5l-14.41 -45.5c17.22,0 67.3,-7.15 71.63,7.1 -16.19,0 -35.36,1.19 -51.08,-1.23l-13.1 -2.84c-2.15,-0.57 -3.91,-1.17 -5.9,-1.8l-19.48 -8.47c92.34,-20 47.61,-4.44 154.06,-7.38 16.71,-28.04 2.78,-4.32 -2.81,-13l-127.3 5.17 -30.88 -2.77 -24.97 -5.66c7.5,25.36 19.65,42.43 14.07,74.86 -80,40.1 -153.97,-28.39 -175.61,-86.93l-64.97 -2.84 -22.31 3.64c38.7,22.01 58.73,54.04 49.64,109.38 -7.13,43.35 -36.13,96.14 -92.91,70.65z"/>
    </g>
    <g>
     <path fill="#DDAB5A" d="M4838.12 4975.29c14.74,-43.83 49.03,-81 110.2,-73.98 -16.7,7.29 -45.26,20.13 -57.96,28.54 -24.73,16.38 -30.19,33.61 -52.24,45.44zm-139.94 -176.88c39.87,61.07 22.05,29.49 71.14,74.34 -52.61,-9.04 -80.14,-38.55 -85.8,-94.86l14.66 20.52zm-19.97 -52.27c-29.89,14.45 -40.84,30.92 -33.22,76.53 4.83,28.95 20.58,50.41 35.99,64.47 73.66,67.17 120.21,10.93 145.97,0.29 -29.93,39.09 -37.04,52.8 -29.39,109.77l2.76 7.17c20.61,16.31 42.14,53.3 88.33,38.77 17.82,-5.61 30.69,-21.43 40.17,-32.01 13.01,-14.53 19.34,-28.34 29.03,-35.43 6.77,-21.03 20.72,-46.4 18.59,-70.71 -3.49,-39.83 -14.64,-28.48 -33.07,-44.69 -63.84,-7.84 -72.95,1.47 -119.04,28.01 19.2,-64.99 9.11,-85.87 -36.79,-115.13 -23.17,-14.77 -82.02,-42.8 -109.33,-27.04z"/>
     <path fill="#DDAB5A" d="M4668.21 4429.32c23.55,-37.85 63.12,-51.84 119.71,-39.11 -17.64,9.55 -10.99,6.47 -35.38,9.92 -55.28,7.81 -42.75,12 -84.33,29.19zm-0.98 -78.71c-10.83,14.53 1.45,-1.17 -11.84,13.54 -2.31,2.56 -7.5,7.66 -11.17,11.97 -18.6,21.9 -26.48,48.22 -19.01,79.21 31.24,129.68 225.33,-3.07 188.44,-80.41l-14.03 -22.35c-97.65,-27.77 -54.15,-10.57 -132.39,-1.96z"/>
     <path fill="#DDAB5A" d="M4755.05 4635.64c1.29,-53.21 25.07,-88.98 69.35,-100 -7.15,10.22 -3.87,6.23 -11.63,15.21 -60.42,69.78 -26.38,50.12 -57.72,84.79zm-48.29 10.4c14.52,19.61 15.21,29.95 41.51,44.98 23.74,13.56 51.83,15.86 75.08,0.06 35.01,-23.8 49.55,-100.92 38.04,-155.77 -35.88,-80.75 -168.2,-19.19 -154.63,110.73z"/>
     <path fill="#DDAB5A" d="M5007.01 4570.46c11.18,-48.28 42.11,-71.41 96.93,-77.65 -5.55,5.13 -5.34,5.96 -14.72,12.15l-40.38 24.14c-13.24,10.56 -11.64,10.11 -21.54,21.58l-20.29 19.78zm3.05 -95.36c-66.01,50.33 -75.32,143.62 19.31,166.64 61.4,8 84.02,-66.31 108.49,-112.05 3.68,-30.8 -5.67,-46.73 -11.08,-70.25 -45.83,-0.94 -77.97,-19.91 -116.72,15.66z"/>
     <path fill="#DDAB5A" d="M4572.58 4805.43c-18.24,-8.34 -12.96,-7.01 -29.41,-17.44 -43.19,-27.39 -54.77,-17.8 -81.35,-34.6 57.71,-6.89 88.14,17.08 110.76,52.04zm-145.1 -44.69c8.06,73.83 195.72,131.91 184.26,45.63 -11.64,-87.6 -192.82,-124.1 -184.26,-45.63z"/>
     <path fill="#DDAB5A" d="M5441.81 4979.01c51.76,-14.75 72.75,-22.46 112.01,-47.44 -22.47,33.08 -55.97,63.93 -112.01,47.44zm-36.52 20.47c45.13,50.55 140.84,-4.56 147.84,-6.06 11.88,-19.93 47.22,-51.44 27.84,-81.21 -44.68,-55.92 -198.91,12.3 -175.68,87.27z"/>
     <path fill="#DDAB5A" d="M5119.86 4777.03c4.08,-45.73 36.72,-90.31 77.34,-91.12l-38.38 39.3c-19.92,20.47 -9.67,26.6 -38.96,51.82zm-27.99 -49.87c0.38,13.28 -24.35,127.17 66.85,77.49 27.46,-14.96 43.89,-41.35 56.03,-43.94 10.5,-30.37 30.49,-64.23 16.39,-100.3 -25.8,-20.93 -56.63,-11.13 -82.12,4.92 -21.58,13.59 -35.34,35.37 -49.36,52.86l-7.79 8.97z"/>
     <path fill="#DDAB5A" d="M5466.43 4762.18c56.1,-3.56 92.18,12.12 108.48,62.87 -22.21,-12.15 -24.61,-22.49 -50.63,-35.79 -18.44,-9.42 -43.45,-17.87 -57.85,-27.08zm-32.05 5.81c21.64,58.54 95.61,127.03 175.61,86.93 5.58,-32.43 -6.57,-49.5 -14.07,-74.86 -21.15,-19.62 -33.56,-35.95 -74.31,-46.2 -41.79,-10.51 -80.95,-12.28 -87.23,34.13z"/>
     <path fill="#DDAB5A" d="M4526.15 4552.91c-23.24,9.96 -83.53,-2.39 -101.74,-60.03 39.88,16.44 20.07,17.11 50.19,34.76 16.61,9.73 32.75,13.24 51.55,25.27zm6.22 36.38c13.43,-33.44 17.12,-24.34 25.15,-50.25 -22.47,-56.75 -88.98,-108.82 -167.89,-81.71 -8.52,41.72 10.74,78.99 33.87,99.59 26.35,23.47 65.07,31.38 108.87,32.37z"/>
    </g>
    <g>
     <path fill="#E7E5E5" d="M4811.66 6279.48c-25.43,-72.9 -89.73,-47.71 -149.06,-63.13 -62.98,-16.36 -60.25,-68.91 -145.94,-5.67 -58.38,43.09 -92.5,40.85 -165.08,16.82 -90.9,-30.09 -304.34,48.61 -74.62,116.25 47.78,14.07 139.52,-4.79 181.47,-19.49 79.17,-27.74 93.63,-26.69 183.81,-15.44 49.1,6.13 148.19,11.79 169.42,-29.34z"/>
     <path fill="#E7E5E5" d="M5200.04 6165.47c20.37,90.14 210.97,137 282.92,66.53 44.8,-43.87 47.99,-77.34 138.42,-49.21 79.93,24.88 257.27,-0.64 120.72,-69.6 -54.93,-27.73 -202.61,-17.11 -241.89,-4.39 -37.54,12.16 -52.55,41.68 -79.74,54.14 -79.42,36.37 -127.42,-74.25 -220.43,2.53z"/>
     <path fill="#E7E5E5" d="M4353.26 7628.63c-23.77,5.45 -35.4,8.09 -45.91,28.8 -7.54,14.86 -12.33,43.44 -5.82,59.21 15.23,36.93 92.74,11.46 119.33,4.62 36.82,-9.49 82.61,-31.84 120.5,-22.96 36.39,8.53 54.49,40.95 113.79,35.18 116.09,-11.32 64.44,-115.14 -43.91,-106.67 -40.41,3.15 -94.62,15.22 -133.72,10.39 -41.48,-5.13 -74.54,-19.98 -124.26,-8.57z"/>
     <path fill="#E7E5E5" d="M4957.56 7842.33c0,60.79 123.92,37.16 157.63,35.97 33.51,-1.19 67.37,0.87 100.07,-3.36 39.06,-5.05 51.96,-14.17 61.72,-46.94 -38.94,-54.58 -100.77,-12.94 -132.91,10.69l-16.37 -23.4c-8.86,-14.61 1.32,-8.61 -14.89,-19.79 -15.27,-10.53 -38.81,-10 -56.3,-3.95 -16.37,5.65 -29.98,15.71 -50.31,21.24 -28.2,7.67 -48.64,2.52 -48.64,29.54z"/>
     <path fill="#E7E5E5" d="M5667.21 7789.11c-53.84,-17.03 -23.28,-27.57 -107.43,-29.5 -45.15,-1.04 -86.24,-0.43 -86.24,54.06 0,60.14 87.58,17.42 122.38,6.27 83.36,-26.72 81.1,32.73 151.49,11.89 38.78,-36.2 28.72,-68.16 -30.03,-78.54 -13.9,11.51 -30.59,25.15 -50.17,35.82z"/>
     <path fill="#E7E5E5" d="M4945.42 6409.03c26.7,50.58 132.78,17.84 188.98,30.97 51.76,12.08 136.19,20.83 183.48,-23.8 -1.77,-32.52 -2.43,-6.39 -20.05,-36.46 -68.74,1.75 -44.4,15.81 -80.32,31.63 -37.99,16.73 -226.76,-84.42 -272.09,-2.34z"/>
    </g>
    <g>
     <path fill="#51143E" d="M4157.21 4512.11c91.5,54.19 -3.99,242.89 -77.94,178.05 -33.4,-23.37 -15.99,-46.13 -17.99,-88.23 -54.61,47.29 -111.8,106.23 -113.97,179.26 60.47,-25.56 206.17,-50.09 220.52,29.72 -12.38,37.05 -50.72,53.69 -85.82,70.35 -55.66,26.4 -73.31,11.03 -122.11,-5.61 -12.28,25.56 16.46,34.12 40.34,76.19 20.81,-4.33 35.46,-10.35 54.53,-12.27 0.03,5.33 -3.33,14.57 -3.35,14.84 -0.15,1.51 -0.98,6.69 -0.68,8.25 9.33,48.3 65.77,-11.76 34.44,42.63l62.79 22.11c1.61,-2.14 5.33,-6.1 6.97,-3.97l75.1 0.8c25.5,6.32 39.46,10.53 69.3,14.79 169.6,24.21 298.05,41.77 479.24,50.06l3.9 -13.49c0.37,-1.96 1.08,-4.49 1.49,-6.91 3.63,-20.97 2.68,-51.97 16.35,-64.31l-2.76 -7.17 -26.19 -57.26c-31.81,8.45 -17.78,-21.33 -28.66,14.33 -2.92,-44.97 3.11,-28.57 -40.46,-26.61 2.19,16.51 -5.42,26.01 -5.48,25.76 -0.32,-1.2 -1.63,3.93 -2.58,5.82 -32.05,17.37 -109.15,66.13 -171.26,43.65 -18.13,-6.55 -50.91,-37.18 -58.3,-50.64 -22.46,-40.89 2.31,-46.98 20.16,-70.43 9.26,-16.75 1.87,-5.71 13.93,-18.55l13.84 -9.33c-33.45,-0.7 -61.91,-25.04 -99.5,-28.7 -0.03,-32.73 8.12,-65.41 0.07,-86.68 -46.03,7.74 18.5,8.54 -29.83,14.14 -22.25,2.57 -18.86,-3.99 -39.65,10.38l-16.41 19.12 -1.97 -21.49c11.38,62.01 -10.17,138.12 -62.68,152.01 -34.08,-18.97 -63.17,-67.74 -71.43,-117.26 -11.98,-71.76 25.73,-89.14 57.14,-120.56 33.02,-55.62 -39.23,41.73 22.67,-17.82 4.4,-4.24 6.6,5.34 9.33,-15.77 -5.39,-41.97 -39.78,-55.07 -10.51,-104.27 17.36,-19.72 20.55,-10.51 27.08,-33.05 2.93,-10.1 1.52,-45.02 1.52,-57.03 -23.28,-0.45 -35.68,1.99 -45.58,-19.54 -45.52,18.19 -39.39,68.13 -95.6,84.69z"/>
     <path fill="#51143E" d="M4620.95 4281.43c27.53,15.46 19.82,6.24 22.85,43.12 4.27,51.91 -8.45,27.8 -8.52,27.74 22.47,-9.52 9.38,-3.58 31.95,-1.68 78.24,-8.61 34.74,-25.81 132.39,1.96 -0.98,-1.37 -2.5,-3.17 -3.16,-3.94l-41.81 -44.22c-11.94,-15.88 -18.99,-34.52 -34.81,-52.41l-98.89 29.43z"/>
    </g>
    <g>
     <path fill="#480A38" d="M5981.13 4747.42c-59.86,17.19 -136.99,36.65 -202.06,35.9 5.59,8.68 19.52,-15.04 2.81,13 -106.45,2.94 -61.72,-12.62 -154.06,7.38l19.48 8.47c1.99,0.63 3.75,1.23 5.9,1.8l13.1 2.84c15.72,2.42 34.89,1.23 51.08,1.23 -4.33,-14.25 -54.41,-7.1 -71.63,-7.1l14.41 45.5c1.14,9.81 -0.08,29.61 -0.08,40.5 -54.06,0 -54.23,-12.92 -55.62,35.88l-8.91 78.79c-20.51,-35.1 -21.93,0.44 -42.42,-18.19 -7,1.5 -102.71,56.61 -147.84,6.06 -2.45,15.6 8.21,9.68 -3.27,14.63 -47.46,-21.11 8.78,7.53 -23.75,-23.88 -13.4,-12.94 -1.48,-9.6 -24.73,-14.31 -27.3,-5.52 -22.43,5.22 -58.95,-7.39l0.21 -13.57c0.09,-5.15 6.44,-3.58 9.03,-6.14l-21.2 -6.63 -31.07 2.3c-0.2,48.53 2.83,5.3 -13.42,24.04 -32.15,33.92 -34.09,51.22 -85.11,73.47 -42.56,18.56 -91.36,24.48 -130.43,5.29 -3.76,-17.9 -9.22,-36.54 5.46,-42.92l-13.44 -25.97c-1.67,-3.15 -5.26,-13.37 -10.76,-16.31 -33.33,-17.91 -6.31,-3.05 -19.25,1.02l-26.76 12.59c-9.69,7.09 -16.02,20.9 -29.03,35.43 -9.48,10.58 -22.35,26.4 -40.17,32.01 -46.19,14.53 -67.72,-22.46 -88.33,-38.77 -13.67,12.34 -12.72,43.34 -16.35,64.31 -0.41,2.42 -1.12,4.95 -1.49,6.91l-3.9 13.49c-181.19,-8.29 -309.64,-25.85 -479.24,-50.06 -29.84,-4.26 -43.8,-8.47 -69.3,-14.79l-75.1 -0.8c-1.64,-2.13 -5.36,1.83 -6.97,3.97 91,19 179.07,48.41 277.83,64.46 492.91,80.1 1019.59,88.08 1490.06,-96.71 89.57,-35.18 282.7,-129.2 259.14,-246.95 -8.18,-40.9 -50.82,-84.62 -72.73,-99.73 -52.48,67.1 3.31,74.63 -121.14,98.95z"/>
     <path fill="#480A38" d="M4085.18 5005.29c31.33,-54.39 -25.11,5.67 -34.44,-42.63 -0.3,-1.56 0.53,-6.74 0.68,-8.25 0.02,-0.27 3.38,-9.51 3.35,-14.84 -19.07,1.92 -33.72,7.94 -54.53,12.27 -23.88,-42.07 -52.62,-50.63 -40.34,-76.19 -55.32,-50.11 -24.11,-54.58 -12.59,-94.46 2.17,-73.03 59.36,-131.97 113.97,-179.26 2,42.1 -15.41,64.86 17.99,88.23 -10.07,-35.34 -14.88,-63.92 -1.82,-99.34 16.72,-45.37 35.69,-52.26 48.68,-67.41 -163.62,39.65 -485.46,212.9 -218.57,391.7 20.59,13.79 58.77,36.26 86.86,49.32 19.71,9.17 79.08,31.62 90.76,40.86z"/>
    </g>
    <g>
     <path fill="#F0F0EE" d="M5297.83 6379.74c17.62,30.07 18.28,3.94 20.05,36.46 -47.29,44.63 -131.72,35.88 -183.48,23.8 -56.2,-13.13 -162.28,19.61 -188.98,-30.97 45.33,-82.08 234.1,19.07 272.09,2.34 35.92,-15.82 11.58,-29.88 80.32,-31.63zm-486.17 -100.26c-21.23,41.13 -120.32,35.47 -169.42,29.34 -90.18,-11.25 -104.64,-12.3 -183.81,15.44 -41.95,14.7 -133.69,33.56 -181.47,19.49 -229.72,-67.64 -16.28,-146.34 74.62,-116.25 72.58,24.03 106.7,26.27 165.08,-16.82 85.69,-63.24 82.96,-10.69 145.94,5.67 59.33,15.42 123.63,-9.77 149.06,63.13zm388.38 -114.01c93.01,-76.78 141.01,33.84 220.43,-2.53 27.19,-12.46 42.2,-41.98 79.74,-54.14 39.28,-12.72 186.96,-23.34 241.89,4.39 136.55,68.96 -40.79,94.48 -120.72,69.6 -90.43,-28.13 -93.62,5.34 -138.42,49.21 -71.95,70.47 -262.55,23.61 -282.92,-66.53zm-1147.82 -75.72c-21.1,12.59 -14.83,-0.83 -6.37,11.09 -5.67,30.45 13.28,202.83 17.98,246.47l36.25 219.2c0.79,-1.48 3.44,3.47 4.82,5.47 12.42,25.02 151.45,90.86 195.76,100.33 237.06,50.68 366.89,-155.43 417,-180.75 74.55,-37.7 176.84,24.85 228.17,58.38 136.84,89.38 357.61,76.92 474.08,-22.55 67.29,-57.45 81.64,-102.01 215.52,-72.09 103.3,23.08 184.7,17.73 285.88,-0.55 9.6,-41.27 11.87,-143.12 16.77,-192.93 2.44,-24.9 2.37,-63.29 5.9,-90.07 4.49,-34.04 9.23,-53.87 9.85,-88.41 -164.06,-51 -206.26,-7.56 -297.05,-50.79 -123.27,-58.69 -142.42,-214.91 -327.12,-54.27 -91.13,79.27 -277.68,119.75 -364.83,7.79 -57.82,-74.27 -80.29,-110.63 -203.53,-140.33 -183.14,-44.15 -317.22,19.93 -420.6,154.25 -128.89,167.47 -211.61,92.95 -288.48,89.76z"/>
     <path fill="#F0F0EE" d="M4957.56 7842.33c0,-27.02 20.44,-21.87 48.64,-29.54 20.33,-5.53 33.94,-15.59 50.31,-21.24 17.49,-6.05 41.03,-6.58 56.3,3.95 16.21,11.18 6.03,5.18 14.89,19.79l16.37 23.4c32.14,-23.63 93.97,-65.27 132.91,-10.69 -9.76,32.77 -22.66,41.89 -61.72,46.94 -32.7,4.23 -66.56,2.17 -100.07,3.36 -33.71,1.19 -157.63,24.82 -157.63,-35.97zm709.65 -53.22c19.58,-10.67 36.27,-24.31 50.17,-35.82 58.75,10.38 68.81,42.34 30.03,78.54 -70.39,20.84 -68.13,-38.61 -151.49,-11.89 -34.8,11.15 -122.38,53.87 -122.38,-6.27 0,-54.49 41.09,-55.1 86.24,-54.06 84.15,1.93 53.59,12.47 107.43,29.5zm-1313.95 -160.48c49.72,-11.41 82.78,3.44 124.26,8.57 39.1,4.83 93.31,-7.24 133.72,-10.39 108.35,-8.47 160,95.35 43.91,106.67 -59.3,5.77 -77.4,-26.65 -113.79,-35.18 -37.89,-8.88 -83.68,13.47 -120.5,22.96 -26.59,6.84 -104.1,32.31 -119.33,-4.62 -6.51,-15.77 -1.72,-44.35 5.82,-59.21 10.51,-20.71 22.14,-23.35 45.91,-28.8zm-167.1 -102.27c-16.9,17.84 22.29,14.94 -22.24,14.94 21.47,27.7 22.25,223.04 30.95,279.22 9.06,58.56 27.63,66.98 84.01,80.98 462.71,114.93 904.65,120.8 1368.89,15.09 175.3,-39.91 146.44,-36.92 160.24,-152 4.35,-36.25 8.83,-99.07 10.06,-138.97l-15.43 -2.89c-45.71,6.35 -114.23,66.22 -213.56,3.97 -55.25,-34.62 -101.6,-107.45 -187.59,-35.65 -44.34,37.03 -77.84,124.44 -163.47,114.87 -55.31,-6.17 -92.78,-62.24 -165.96,-114.06 -103.08,-72.99 -283.26,-137.93 -430.48,-87.12 -110.57,38.16 -116.17,34.18 -223.4,2.8 -71.73,-20.99 -165.28,-4.56 -232.02,18.82z"/>
    </g>
    <g>
     <path fill="#4D1944" d="M4104.9 6571.98c-27.25,15.35 -12.74,-4.02 -17.04,30.3l73.88 817.28c5.09,55.37 -2.29,108.38 24.42,106.8 66.74,-23.38 160.29,-39.81 232.02,-18.82 107.23,31.38 112.83,35.36 223.4,-2.8 147.22,-50.81 327.4,14.13 430.48,87.12 73.18,51.82 110.65,107.89 165.96,114.06 85.63,9.57 119.13,-77.84 163.47,-114.87 85.99,-71.8 132.34,1.03 187.59,35.65 99.33,62.25 167.85,2.38 213.56,-3.97 17.34,-26.01 19.13,-26.04 22.53,-66.77l43.81 -515.64c9.1,-107.74 39.06,-512.35 52.33,-585.57 -101.18,18.28 -182.58,23.63 -285.88,0.55 -133.88,-29.92 -148.23,14.64 -215.52,72.09 -116.47,99.47 -337.24,111.93 -474.08,22.55 -51.33,-33.53 -153.62,-96.08 -228.17,-58.38 -50.11,25.32 -179.94,231.43 -417,180.75 -44.31,-9.47 -183.34,-75.31 -195.76,-100.33z"/>
     <path fill="#4D1944" d="M5656.09 5738.53c-6.8,-58.35 55.79,11.65 0,0zm-1372 -168.1c-11.38,-22.28 -8.28,-4.81 -0.85,-22.16 9.16,-2.34 10.55,-11.85 17.79,4.7 8.93,20.43 -9.35,15.15 -16.94,17.46zm-231.87 519.32c76.87,3.19 159.59,77.71 288.48,-89.76 103.38,-134.32 237.46,-198.4 420.6,-154.25 123.24,29.7 145.71,66.06 203.53,140.33 87.15,111.96 273.7,71.48 364.83,-7.79 184.7,-160.64 203.85,-4.42 327.12,54.27 90.79,43.23 132.99,-0.21 297.05,50.79l63.36 -715.42c-30.82,-0.94 -187.35,41.21 -236.5,51.43 -589.14,122.63 -1232.95,97.04 -1806.16,-55.26 12.74,122.19 24.74,245.47 34.76,367.72 5.02,61.18 10.7,122.24 16.74,182.71 5.25,52.69 0.11,137.18 26.19,175.23z"/>
     <path fill="#4D1944" d="M3964.72 5278.49c74.03,11.91 157.51,38.82 234.81,53.99 646.65,126.94 1181.56,109.72 1826.24,-56.08 81.88,-26.02 73.11,-21.85 85.23,-115.18 8.02,-61.67 18.51,-124.42 25.21,-186.29 -81.64,37.67 -86.57,62.63 -233.9,114.01 -277.85,96.91 -607.59,132.26 -901.57,132.98 -266.11,0.64 -654.98,-34.64 -907.05,-127.22 -103.55,-38.04 -154.92,-69.67 -238.18,-112.5 2.73,50.81 16.42,122.75 23.58,175.34 14.79,108.69 6.75,79.28 85.63,120.95z"/>
    </g>
    <path fill="#E7E7E7" d="M6025.77 5276.4l-8.58 91.52 -63.36 715.42c-0.62,34.54 -5.36,54.37 -9.85,88.41 -3.53,26.78 -3.46,65.17 -5.9,90.07 -4.9,49.81 -7.17,151.66 -16.77,192.93 -13.27,73.22 -43.23,477.83 -52.33,585.57l-43.81 515.64c-3.4,40.73 -5.19,40.76 -22.53,66.77l15.43 2.89c-1.23,39.9 -5.71,102.72 -10.06,138.97 -13.8,115.08 15.06,112.09 -160.24,152 -464.24,105.71 -906.18,99.84 -1368.89,-15.09 -56.38,-14 -74.95,-22.42 -84.01,-80.98 -8.7,-56.18 -9.48,-251.52 -30.95,-279.22 44.53,0 5.34,2.9 22.24,-14.94 -26.71,1.58 -19.33,-51.43 -24.42,-106.8l-73.88 -817.28c4.3,-34.32 -10.21,-14.95 17.04,-30.3 -1.38,-2 -4.03,-6.95 -4.82,-5.47l-36.25 -219.2c-4.7,-43.64 -23.65,-216.02 -17.98,-246.47 -8.46,-11.92 -14.73,1.5 6.37,-11.09 -26.08,-38.05 -20.94,-122.54 -26.19,-175.23 -6.04,-60.47 -11.72,-121.53 -16.74,-182.71 -10.02,-122.25 -22.02,-245.53 -34.76,-367.72l-9.81 -85.6c-78.88,-41.67 -70.84,-12.26 -85.63,-120.95 -7.16,-52.59 -20.85,-124.53 -23.58,-175.34 83.26,42.83 134.63,74.46 238.18,112.5 252.07,92.58 640.94,127.86 907.05,127.22 293.98,-0.72 623.72,-36.07 901.57,-132.98 147.33,-51.38 152.26,-76.34 233.9,-114.01 -6.7,61.87 -17.19,124.62 -25.21,186.29 -12.12,93.33 -3.35,89.16 -85.23,115.18zm236.25 -543.71l0 69.82c-63.89,109.47 -50.09,411.93 -98.93,482.86 -69.78,101.35 -47.72,-54.92 -80.06,264.36 -70.3,693.94 -119.35,1410.81 -184.47,2108.74 -19.55,209.47 12.8,256.21 -142.87,315.65 -1.7,71.65 -55.42,75.27 -113.48,94 -54.38,17.55 -105.89,32.08 -161.5,46.21 -105.82,26.87 -341.77,50.86 -359.08,57.66l-230.87 0c-3.14,-1.08 -309.91,-26.16 -541.87,-100.97 -68.64,-22.14 -112.69,-21.87 -114.03,-100.62 -46.55,-6.72 -90.1,-43.45 -106.59,-80 -16.68,-36.99 -18.18,-119.2 -21.81,-162.74l-91.05 -1027.12c-9.16,-106.75 -111.93,-1281.73 -127.95,-1364.31 -95.11,-45.69 -85.83,-132.67 -101.59,-255.66 -11.19,-87.36 -21.89,-202.68 -67.92,-281.51l0 -63.27c1.02,-1.82 2.18,-6.76 2.6,-5.67 5.59,14.51 4.08,-9.22 4.86,-11.15 2.96,-7.28 4.87,-13.71 8.26,-21.24 5.83,-12.96 12.92,-23.09 18.45,-31.71 18.8,-29.28 27.4,-36.27 48.89,-58.64 121.15,-126.09 308.04,-155.76 432.92,-205.33l8.36 -26.72c0.8,-1.77 2.34,-4.27 3.06,-5.74 0.73,-1.51 1.91,-4.08 3.32,-5.8l4.53 52.12 -0.39 11.51c-45.52,18.19 -39.39,68.13 -95.6,84.69l-31.08 11.3c-163.62,39.65 -485.46,212.9 -218.57,391.7 20.59,13.79 58.77,36.26 86.86,49.32 19.71,9.17 79.08,31.62 90.76,40.86l62.79 22.11c91,19 179.07,48.41 277.83,64.46 492.91,80.1 1019.59,88.08 1490.06,-96.71 89.57,-35.18 282.7,-129.2 259.14,-246.95 -8.18,-40.9 -50.82,-84.62 -72.73,-99.73 6.55,-66.97 13.48,-100.35 9.67,-177.8l5.07 9.86c0.39,1.19 1.61,3.67 2.04,5.19 2.96,10.56 2.76,12.93 3.51,24.17 5.36,80.33 -13.33,18.75 80.66,123.09 34.83,38.67 32.91,56.31 58.8,99.71z"/>
    <path fill="#FAF8D0" d="M5597.27 4584c-83.1,42.38 -83.98,-1.53 -165.78,-87.76 95.75,-5.23 63.61,45.96 143.76,76.41l11.2 4.75c1.39,0.61 4.45,4.79 5.45,3.16 1.01,-1.64 3.74,2.09 5.37,3.44zm58.93 -35.25c7.79,-14.88 19.99,-12.5 30.92,-32.83 14.94,-27.77 -0.23,-105.23 120.88,-88.5 -13.58,26.03 -48.83,20.19 -69.97,67.75 -18.15,40.84 -21.76,65 -81.83,53.58zm-187.43 -273.17c-23.42,6.39 -27.84,13.38 -45.25,28.42l-9.06 8.86c-1.29,1.17 -3.01,2.79 -4.42,4.02 -1.33,1.17 -2.97,2.49 -4.33,3.64 -42.64,36.03 -35.02,32.77 -69.44,73.07l-12.02 13.76c-10.45,21.47 -13.45,21.51 -24.81,38.76 -11.82,32.4 -23.47,48.93 -31.37,80.44 -7.24,28.92 -9.83,54.12 -21.1,76.67 3.18,5.71 23.67,125.81 33.86,156.9l88.58 5.03 64.97 2.84c6.28,-46.41 45.44,-44.64 87.23,-34.13 40.75,10.25 53.16,26.58 74.31,46.2l24.97 5.66c-16.7,-26.09 -52.61,-61.06 -26.34,-97.07 31.81,-43.62 63.95,-3.62 51.4,-88.04 58.91,43.01 31.83,72.49 -1.14,101.71l-15.62 15.42c14.02,35.98 20.44,27.05 22.58,70.75l127.3 -5.17c65.07,0.75 142.2,-18.71 202.06,-35.9l-14.44 -15.34c49.35,-128.63 93.67,-204.7 30.7,-358.9 -74.25,-181.86 -215.66,-189.48 -233.62,-202.31 -104.57,6.01 -179.43,13.39 -272.35,83.92l-22.65 20.79z"/>
    <path fill="#875F8B" d="M3974.53 5364.09c573.21,152.3 1217.02,177.89 1806.16,55.26 49.15,-10.22 205.68,-52.37 236.5,-51.43l8.58 -91.52c-644.68,165.8 -1179.59,183.02 -1826.24,56.08 -77.3,-15.17 -160.78,-42.08 -234.81,-53.99l9.81 85.6z"/>
    <path fill="#5FA744" d="M5028.11 4339.31c11.47,-75.36 42.37,-118.14 84.93,-161.33 34.67,-35.18 93.52,-80.09 151.92,-89.96l-236.85 251.29zm81.41 -310.13l-61.25 28.53c-18.08,21.7 -12.42,12.07 -30.08,25.17 -11.42,8.46 -13.66,11.16 -26.03,24.02 -15.48,16.1 -36.91,42.58 -50.05,56.49l-17.23 43.42c-11.07,38.34 -20.19,73.26 -15.64,118.55 10.15,-3.96 23.17,-9.98 39.6,-6.94 22.61,4.18 22.05,12.98 30.18,26.63 31.66,19.31 23.34,82.56 13.75,119.84 29.88,-0.61 10.5,-2.69 17.29,10.21 38.75,-35.57 70.89,-16.6 116.72,-15.66 106.42,-28.67 129.24,-85.15 171.56,-182.11 27.28,-62.48 80.82,-192.59 92.22,-262.26 -105.53,-19.95 -184.9,-32.08 -281.04,14.11z"/>
    <path fill="#F4ECA3" d="M5378.78 4216.09c6.02,30.78 11.99,33.75 26.17,60.29 -46.8,-14.18 -66.47,-28.12 -67.55,-82.41 19.02,-16.6 47.48,-38.6 59.02,-62.55l12.8 -30.88c46.01,53.48 -11.93,92.64 -30.44,115.55zm-269.26 -186.91c96.14,-46.19 175.51,-34.06 281.04,-14.11 -11.4,69.67 -64.94,199.78 -92.22,262.26 -42.32,96.96 -65.14,153.44 -171.56,182.11 5.41,23.52 14.76,39.45 11.08,70.25 20.04,12.97 26.41,23.96 47.67,39.09 18.84,13.41 39.57,25.89 61.44,34.44 11.27,-22.55 13.86,-47.75 21.1,-76.67 7.9,-31.51 19.55,-48.04 31.37,-80.44l-53.38 8.47c49.39,-52.94 24.4,-26.81 38.47,-99.09 7.65,-39.26 51.35,-60.63 89.45,-39.07 -52.48,39.72 -44.16,5.38 -49.73,90.93l12.02 -13.76c34.42,-40.3 26.8,-37.04 69.44,-73.07 1.36,-1.15 3,-2.47 4.33,-3.64 1.41,-1.23 3.13,-2.85 4.42,-4.02l9.06 -8.86c-9.78,-5.06 -32.35,2.7 3.31,-26.67 42.25,-34.8 41.88,-1.8 41.94,-1.75l22.65 -20.79c92.92,-70.53 167.78,-77.91 272.35,-83.92 -114.64,-172.52 -255.45,-282.95 -483.54,-258.04 1.52,1.84 -5.06,8.24 1.04,-1.52l6.09 -10.23c-49.58,10.87 -61.01,30.15 -102.11,55.14 -21.68,13.18 -69.28,47.41 -75.73,72.96z"/>
    <path fill="#56903F" d="M4719.84 4252c15.82,17.89 22.87,36.53 34.81,52.41l41.81 44.22c0.66,0.77 2.18,2.57 3.16,3.94 10.93,3.26 17.11,5.13 26.37,9.54 5.82,2.75 9.52,4.91 13.87,7.84 8.31,5.59 8.28,6.11 12.34,10.08 18.17,-27.41 28.46,-35.88 57.04,-54.67 -4.55,-45.29 4.57,-80.21 15.64,-118.55l-168.09 -185.87c75.49,14.2 155.44,76.23 185.32,142.45 13.14,-13.91 34.57,-40.39 50.05,-56.49 12.37,-12.86 14.61,-15.56 26.03,-24.02 17.66,-13.1 12,-3.47 30.08,-25.17 -60.5,-112.88 -271.03,-193.4 -447.33,-134.45 7.38,44.79 37.18,124.04 53.22,165.91 19.41,50.65 54.92,119.7 65.68,162.83z"/>
    <path fill="#531434" d="M4427.48 4760.74c-8.56,-78.47 172.62,-41.97 184.26,45.63 11.46,86.28 -176.2,28.2 -184.26,-45.63zm64.48 -459.96l-61.05 2.66c-6.19,56.2 18.05,84.63 -37.49,122.1 -20.05,13.53 -46.71,17.94 -73.67,15.69 -14.63,-1.22 -24.6,-3.92 -36.45,-9.05l-30.1 -16.27 -0.39 11.51c9.9,21.53 22.3,19.09 45.58,19.54 0,12.01 1.41,46.93 -1.52,57.03 -6.53,22.54 -9.72,13.33 -27.08,33.05 55.88,-5.9 114.67,13.38 149.83,45.15 38.69,34.96 50.87,96.1 14.86,134.35 -37.49,8.47 -66.18,2.28 -84.85,-23.74 -18.16,-2.8 -5.69,4.81 -27.61,-12.78 -18.76,-15.06 -14.74,-11.99 -19.5,-29.39l-22.22 -9.32c-2.73,21.11 -4.93,11.53 -9.33,15.77 -61.9,59.55 10.35,-37.8 -22.67,17.82 57.19,-4.84 71.7,31.98 76.97,85.81l1.97 21.49 16.41 -19.12c20.79,-14.37 17.4,-7.81 39.65,-10.38 48.33,-5.6 -16.2,-6.4 29.83,-14.14 8.05,21.27 -0.1,53.95 -0.07,86.68 37.59,3.66 66.05,28 99.5,28.7l-13.84 9.33c-12.06,12.84 -4.67,1.8 -13.93,18.55 77.65,-18.55 215.65,-16.36 209.4,77.42 0.95,-1.89 2.26,-7.02 2.58,-5.82 0.06,0.25 7.67,-9.25 5.48,-25.76 43.57,-1.96 37.54,-18.36 40.46,26.61 10.88,-35.66 -3.15,-5.88 28.66,-14.33l26.19 57.26c-7.65,-56.97 -0.54,-70.68 29.39,-109.77 -25.76,10.64 -72.31,66.88 -145.97,-0.29 -15.41,-14.06 -31.16,-35.52 -35.99,-64.47 -7.62,-45.61 3.33,-62.08 33.22,-76.53l-42.93 -6.93c-12.78,-33.46 10.94,-19.29 -12.54,-39.87 -47.63,16.48 -66.37,11.77 -84.42,-27.2 -12.67,-20.21 -8.08,-48.17 -5.95,-82.85 -43.8,-0.99 -82.52,-8.9 -108.87,-32.37 -23.13,-20.6 -42.39,-57.87 -33.87,-99.59 78.91,-27.11 145.42,24.96 167.89,81.71 22.36,-11.66 37.24,-29.57 70.6,-21.02 47.91,14.22 67.79,46.25 65.77,106.52 -7.47,37.31 3.66,11.45 12.87,21.5 -13.57,-129.92 118.75,-191.48 154.63,-110.73 29.88,11.75 19.63,-11.16 17.55,31.97 0,-13.17 -16.07,-49.62 35.35,-37.85 23.76,5.43 36.32,61.87 42.7,74.71l9.23 20.44 -58.61 0.04c22.29,39.99 -10.94,4.77 19.08,18.83 38.83,-7.02 57.66,-3.73 91.15,13.43 18.43,5.59 11.53,6.95 11.53,-15.14 -94.63,-23.02 -85.32,-116.31 -19.31,-166.64 -6.79,-12.9 12.59,-10.82 -17.29,-10.21l-6.3 2.06c-16.77,44.95 -54.25,66.59 -107.15,35.5 -35.17,-20.68 -48.75,-71.08 -27.12,-122.42 -4.06,-3.97 -4.03,-4.49 -12.34,-10.08 -4.35,-2.93 -8.05,-5.09 -13.87,-7.84 -9.26,-4.41 -15.44,-6.28 -26.37,-9.54l14.03 22.35c36.89,77.34 -157.2,210.09 -188.44,80.41 -7.47,-30.99 0.41,-57.31 19.01,-79.21 3.67,-4.31 8.86,-9.41 11.17,-11.97 13.29,-14.71 1.01,0.99 11.84,-13.54 -22.57,-1.9 -9.48,-7.84 -31.95,1.68 0.07,0.06 12.79,24.17 8.52,-27.74 -3.03,-36.88 4.68,-27.66 -22.85,-43.12l3.71 -1.43c-3.68,45.8 11.82,87.21 -17.89,122.57 -23.78,28.3 -61.87,50.69 -96.87,32.49 -31.82,-34.28 -20.9,-80.78 -17.94,-134.28z"/>
    <path fill="#53133C" d="M4706.76 4646.04c-9.21,-10.05 -20.34,15.81 -12.87,-21.5 -14.67,33.59 -34.93,63.52 -71.15,74.8 23.48,20.58 -0.24,6.41 12.54,39.87l42.93 6.93c27.31,-15.76 86.16,12.27 109.33,27.04 45.9,29.26 55.99,50.14 36.79,115.13 46.09,-26.54 55.2,-35.85 119.04,-28.01 3.96,-22.47 -6.76,-6.41 21.9,-18.98 46.6,-20.42 31.66,-21.74 111.76,-55.47 2.8,-49.49 1.01,-72.33 14.84,-58.69l7.79 -8.97c14.02,-17.49 27.78,-39.27 49.36,-52.86 25.49,-16.05 56.32,-25.85 82.12,-4.92 14.1,36.07 -5.89,69.93 -16.39,100.3l36.75 3.95c2.37,0.62 4.32,1.43 6.46,2.1 2.16,0.66 4.63,1.88 6.39,2.48 1.76,0.61 4.41,1.46 6.38,2.66l10.1 -11.78c-10.19,-31.09 -30.68,-151.19 -33.86,-156.9 -21.87,-8.55 -42.6,-21.03 -61.44,-34.44 -21.26,-15.13 -27.63,-26.12 -47.67,-39.09 -24.47,45.74 -47.09,120.05 -108.49,112.05 0,22.09 6.9,20.73 -11.53,15.14 19.96,14.45 25.87,19.25 32.16,46.49 0.4,54.01 -36.5,57.61 -56.47,87.21 -199.64,53.9 -148.06,-146.01 -66.84,-147.13 -30.02,-14.06 3.21,21.16 -19.08,-18.83l58.61 -0.04 -9.23 -20.44c-6.38,-12.84 -18.94,-69.28 -42.7,-74.71 -51.42,-11.77 -35.35,24.68 -35.35,37.85 2.08,-43.13 12.33,-20.22 -17.55,-31.97 11.51,54.85 -3.03,131.97 -38.04,155.77 -23.25,15.8 -51.34,13.5 -75.08,-0.06 -26.3,-15.03 -26.99,-25.37 -41.51,-44.98z"/>
    <path fill="#F7ED7B" d="M5763.77 4170.87c17.96,12.83 159.37,20.45 233.62,202.31 62.97,154.2 18.65,230.27 -30.7,358.9l14.44 15.34c124.45,-24.32 68.66,-31.85 121.14,-98.95 6.55,-66.97 13.48,-100.35 9.67,-177.8 -10.57,-97.44 -96.2,-205.69 -180.21,-253.93 -120.11,-68.96 -35.51,-26.68 -81.63,-70.79l7.09 36.61c-27.51,-9.44 -65.25,-20.75 -93.42,-11.69z"/>
    <path fill="#EDDC6E" d="M5287.36 3901.08l-6.09 10.23c-6.1,9.76 0.48,3.36 -1.04,1.52 228.09,-24.91 368.9,85.52 483.54,258.04 28.17,-9.06 65.91,2.25 93.42,11.69l-7.09 -36.61c-2.59,-55.4 -88.08,-147 -123.52,-175.58 -24.65,-19.87 -54.38,-39.45 -93.12,-57.57 -27.49,-12.86 -97.87,-29.56 -115.47,-40.7l-152.84 0 -77.79 28.98z"/>
    <path fill="#DAA457" d="M4126.13 4523.41c-12.99,15.15 -31.96,22.04 -48.68,67.41 -13.06,35.42 -8.25,64 1.82,99.34 73.95,64.84 169.44,-123.86 77.94,-178.05l-31.08 11.3z"/>
    <path fill="#CB944A" d="M4993.53 4790.58c-25.33,-4.78 -58.74,11.02 -120.42,-37.77 39.24,-48.81 119.57,-41.83 145.33,-46.41 35.02,-6.2 23.02,9.15 31.56,-3.03 -6.29,-27.24 -12.2,-32.04 -32.16,-46.49 -33.49,-17.16 -52.32,-20.45 -91.15,-13.43 -81.22,1.12 -132.8,201.03 66.84,147.13z"/>
    <path fill="#56913D" d="M5028.11 4339.31l236.85 -251.29c-58.4,9.87 -117.25,54.78 -151.92,89.96 -42.56,43.19 -73.46,85.97 -84.93,161.33z"/>
    <path fill="#427B39" d="M4924.88 4206.81l17.23 -43.42c-29.88,-66.22 -109.83,-128.25 -185.32,-142.45l168.09 185.87z"/>
   </g>
  </g>
 </g>
</svg>
